<svg width="45" height="21" viewBox="0 0 45 21" fill="none" xmlns="http://www.w3.org/2000/svg">
<g clip-path="url(#clip0_2261_5293)">
<path d="M13.2976 5.4134C13.1285 5.56891 12.9566 5.72298 12.7897 5.88134C12.197 6.442 11.7511 7.09397 11.5942 7.90715C11.3802 9.03348 11.6085 10.0664 12.2911 10.9922C12.6328 11.4552 13.0401 11.8397 13.5822 12.0622C13.6457 12.0879 13.7099 12.1107 13.7876 12.1407C13.7163 12.3326 13.655 12.5216 13.5794 12.7056C13.1371 13.7756 12.5629 14.7657 11.7797 15.6245C11.631 15.7831 11.4708 15.9305 11.3003 16.0653C10.7297 16.529 10.0877 16.7073 9.36367 16.4969C9.00273 16.3913 8.64607 16.2736 8.28727 16.1624C7.92077 16.0386 7.53879 15.9666 7.15239 15.9484C6.66947 15.9369 6.22508 16.0817 5.7764 16.2458C5.43991 16.3789 5.09571 16.4915 4.74566 16.5832C4.19498 16.7145 3.69638 16.5447 3.23843 16.2351C2.78912 15.9174 2.40222 15.5196 2.09712 15.0617C1.30098 13.9416 0.703319 12.6929 0.330242 11.3703C-0.00431772 10.1977 -0.0848123 8.96715 0.0941342 7.76092C0.257483 6.68596 0.658367 5.71585 1.41519 4.91408C2.19913 4.08378 3.16353 3.74211 4.29556 3.85196C4.85837 3.90759 5.39692 4.07094 5.93619 4.22787C6.16088 4.2935 6.39128 4.34272 6.61812 4.40049C6.93674 4.47217 7.26886 4.4559 7.57895 4.35342C8.02263 4.22288 8.46061 4.07522 8.90358 3.94397C9.55396 3.74114 10.2442 3.70097 10.9137 3.82699C11.7925 3.99676 12.4873 4.46897 13.0686 5.13093C13.14 5.21367 13.2113 5.29785 13.2826 5.38202C13.2888 5.39189 13.2938 5.40242 13.2976 5.4134Z" fill="#000100"/>
<path d="M9.99356 0C10.0121 0.184137 10.02 0.369197 10.0171 0.554246C9.9569 1.50463 9.55687 2.40166 8.89006 3.08152C8.58476 3.40109 8.24807 3.68213 7.83292 3.8462C7.47627 3.98886 7.10249 4.01596 6.72729 4.04378C6.72158 4.04378 6.71516 4.03736 6.70874 4.03451C6.76153 1.85462 7.8636 0.438689 9.99356 0Z" fill="#000100"/>
<path d="M17.9912 2.59577C19.1366 2.4098 20.2954 2.31961 21.4558 2.32614C23.2391 2.32614 24.548 2.74057 25.379 3.48741C26.1465 4.15151 26.6031 5.1687 26.6031 6.41201C26.6031 7.67743 26.23 8.67393 25.5245 9.40008C24.5701 10.4166 23.0137 10.9351 21.2496 10.9351C20.7104 10.9351 20.2125 10.9145 19.7973 10.811V16.4134H17.9926L17.9912 2.59577ZM19.7959 9.33874C20.1904 9.44288 20.6883 9.4814 21.2939 9.4814C23.4723 9.4814 24.8005 8.42355 24.8005 6.49332C24.8005 4.64655 23.493 3.75491 21.5007 3.75491C20.7125 3.75491 20.1105 3.81696 19.7995 3.89757L19.7959 9.33874Z" fill="#000100"/>
<path d="M33.1156 16.4148L32.973 15.1487H32.9109C32.351 15.9376 31.2703 16.6431 29.8437 16.6431C27.81 16.6431 26.7728 15.2115 26.7728 13.7584C26.7728 11.3332 28.9306 10.0028 32.8103 10.0235V9.81666C32.8103 8.98636 32.5828 7.49268 30.5277 7.49268C29.594 7.49268 28.6189 7.783 27.9134 8.23952L27.4983 7.03616C28.3279 6.49618 29.5312 6.1438 30.7974 6.1438C33.8682 6.1438 34.615 8.23952 34.615 10.2518V14.0074C34.615 14.8791 34.6564 15.73 34.7812 16.4148H33.1156ZM32.846 11.2897C30.8537 11.2483 28.5925 11.6007 28.5925 13.5509C28.5925 14.7343 29.3807 15.2942 30.3144 15.2942C31.6212 15.2942 32.4544 14.4639 32.7397 13.6136C32.8043 13.4264 32.8394 13.2303 32.8439 13.0323L32.846 11.2897Z" fill="#000100"/>
<path d="M37.0345 6.37207L39.2323 12.3061C39.4605 12.9702 39.7095 13.7585 39.8743 14.3605H39.9156C40.1018 13.7585 40.3094 12.9909 40.5576 12.2648L42.5499 6.37207H44.4759L41.7367 13.5302C40.4299 16.9748 39.5376 18.7374 38.2928 19.8173C37.4005 20.6063 36.5095 20.9173 36.0516 21L35.5951 19.465C36.1797 19.272 36.722 18.9691 37.1929 18.5726C37.8559 18.0232 38.3817 17.3269 38.7287 16.539C38.8114 16.3521 38.8713 16.2073 38.8713 16.1031C38.8713 15.999 38.83 15.8542 38.7472 15.6259L35.043 6.37207H37.0345Z" fill="#000100"/>
</g>
<defs>
<clipPath id="clip0_2261_5293">
<rect width="44.4838" height="21" fill="white"/>
</clipPath>
</defs>
</svg>
