<?xml version="1.0" encoding="utf-8"?><!-- Uploaded to: SVG Repo, www.svgrepo.com, Generator: SVG Repo Mixer Tools -->
<svg width="800px" height="800px" viewBox="-0.5 0 25 25" fill="none" xmlns="http://www.w3.org/2000/svg">
<path d="M6 22.42C8.20914 22.42 10 20.6292 10 18.42C10 16.2109 8.20914 14.42 6 14.42C3.79086 14.42 2 16.2109 2 18.42C2 20.6292 3.79086 22.42 6 22.42Z" stroke="#000000" stroke-width="1.5" stroke-linecap="round" stroke-linejoin="round"/>
<path d="M18 20.42C20.2091 20.42 22 18.6292 22 16.42C22 14.2109 20.2091 12.42 18 12.42C15.7909 12.42 14 14.2109 14 16.42C14 18.6292 15.7909 20.42 18 20.42Z" stroke="#000000" stroke-width="1.5" stroke-linecap="round" stroke-linejoin="round"/>
<path d="M10 18.4099V9.5C9.99907 8.0814 10.5008 6.70828 11.4162 5.62451C12.3315 4.54074 13.6012 3.81639 15 3.57996L22 2.40991V16.4099" stroke="#000000" stroke-width="1.5" stroke-linecap="round" stroke-linejoin="round"/>
</svg>