<svg width="33" height="32" viewBox="0 0 33 32" fill="none" xmlns="http://www.w3.org/2000/svg">
<path d="M24.8032 22.44L25.3232 26.6533C25.4566 27.76 24.2699 28.5333 23.3232 27.96L18.7099 25.2133C18.3899 25.0266 18.3099 24.6266 18.4832 24.3066C19.1499 23.08 19.5099 21.6933 19.5099 20.3066C19.5099 15.4266 15.3232 11.4533 10.1766 11.4533C9.12322 11.4533 8.09656 11.6133 7.13656 11.9333C6.64322 12.0933 6.16322 11.64 6.28322 11.1333C7.49656 6.27996 12.1632 2.66663 17.7366 2.66663C24.2432 2.66663 29.5099 7.58663 29.5099 13.6533C29.5099 17.2533 27.6566 20.44 24.8032 22.44Z" fill="#C0C0C0"/>
<path d="M17.5099 20.3067C17.5099 21.8934 16.9233 23.36 15.9366 24.52C14.6166 26.12 12.5233 27.1467 10.1766 27.1467L6.69659 29.2134C6.10993 29.5734 5.36326 29.08 5.44326 28.4L5.77659 25.7734C3.98993 24.5334 2.84326 22.5467 2.84326 20.3067C2.84326 17.96 4.0966 15.8934 6.0166 14.6667C7.20326 13.8934 8.62993 13.4534 10.1766 13.4534C14.2299 13.4534 17.5099 16.52 17.5099 20.3067Z" fill="#C0C0C0"/>
</svg>
