<svg width="18" height="21" viewBox="0 0 18 21" fill="none" xmlns="http://www.w3.org/2000/svg">
<path d="M11.7522 11.2259C11.7353 11.2472 11.7187 11.2686 11.7022 11.2901C11.0932 12.0855 10.1197 12.6071 9 12.6071C8.59432 12.6071 8.19191 12.6519 7.79979 12.7396C7.53417 12.4255 7.23113 12.1387 6.89375 11.8864C6.05192 11.2569 5.5 10.2439 5.5 9.06231C5.5 7.81719 6.10771 6.75804 7.01315 6.13476L7.05513 6.10558C7.60201 5.72158 8.2527 5.5 9 5.5C10.9006 5.5 12.5 7.05611 12.5 9.06231C12.5 9.884 12.2218 10.631 11.7522 11.2259Z" stroke="white" stroke-width="11" stroke-linecap="round" stroke-linejoin="round"/>
</svg>
