<svg width="43" height="39" viewBox="0 0 43 39" fill="none" xmlns="http://www.w3.org/2000/svg">
<path d="M41.1 24.8241L41.0959 24.8377L41.0923 24.8514C40.0636 28.8076 36.6855 31.3354 31.8584 31.3354H23.5595H23.3335L23.1436 31.4578L13.9293 37.3941L13.9293 37.394L13.9192 37.4007C13.0381 37.9883 11.9094 37.3452 11.9094 36.3857V32.1033V31.3354H11.1415C8.19562 31.3354 5.80467 30.3873 4.1699 28.8049C2.50565 27.194 1.53568 24.8911 1.53568 22.0618V10.0415C1.53568 7.4044 2.37874 5.22727 3.82697 3.65439C5.2747 2.08203 7.37516 1.06152 9.98426 0.824348C10.3818 0.794754 10.7492 0.767857 11.1415 0.767857H31.8584C34.8034 0.767857 37.1947 1.71538 38.8453 3.31313C40.4937 4.90871 41.4642 7.21121 41.4642 10.0415V22.0618C41.4642 23.0681 41.3485 23.9954 41.1 24.8241Z" stroke="white" stroke-width="1.53571"/>
</svg>
