<?xml version="1.0" standalone="no"?>
<!DOCTYPE svg PUBLIC "-//W3C//DTD SVG 20010904//EN"
 "http://www.w3.org/TR/2001/REC-SVG-20010904/DTD/svg10.dtd">
<svg version="1.0" xmlns="http://www.w3.org/2000/svg"
 width="100.000000pt" height="108.000000pt" viewBox="0 0 100.000000 108.000000"
 preserveAspectRatio="xMidYMid meet">
<metadata>
Created by potrace 1.16, written by Peter Selinger 2001-2019
</metadata>
<g transform="translate(0.000000,108.000000) scale(0.100000,-0.100000)"
fill="#000000" stroke="none">
<path d="M0 540 l0 -540 500 0 500 0 0 540 0 540 -500 0 -500 0 0 -540z m420
506 c0 -33 80 -65 115 -46 25 13 95 6 95 -10 0 -4 -30 -18 -67 -30 -125 -41
-287 -126 -398 -210 -59 -44 -111 -80 -116 -80 -18 0 -41 62 -34 94 3 17 9 56
14 86 6 45 13 58 41 80 19 14 56 46 82 73 39 39 54 47 85 48 21 0 47 4 58 9
11 5 44 9 73 9 48 1 52 -1 52 -23z m347 -196 c28 -47 52 -88 52 -92 1 -4 -25
-12 -56 -18 -84 -18 -185 -56 -287 -108 l-88 -45 -49 21 c-48 20 -52 20 -130
4 -72 -14 -81 -14 -95 0 -14 14 -13 18 13 43 89 85 272 190 438 251 132 49
139 47 202 -56z m152 -149 c17 6 38 8 46 5 34 -13 10 -59 -85 -163 -47 -52
-64 -64 -114 -78 -91 -27 -173 -66 -263 -128 -81 -55 -83 -56 -83 -31 0 14 5
34 10 45 15 26 3 82 -26 125 -13 19 -24 36 -24 38 0 8 138 86 195 112 84 37
275 84 296 73 11 -5 29 -4 48 2z m-95 -297 c3 -9 6 -33 6 -55 0 -35 -4 -42
-35 -60 -40 -24 -55 -46 -55 -82 0 -14 -7 -30 -15 -37 -8 -7 -25 -30 -37 -52
-29 -51 -74 -78 -129 -78 l-44 1 -28 62 c-15 34 -30 78 -33 97 -5 33 -2 37 44
72 68 50 154 97 226 124 73 28 92 29 100 8z"/>
</g>
</svg>
