<svg width="32" height="26" viewBox="0 0 32 26" fill="none" xmlns="http://www.w3.org/2000/svg">
<path fill-rule="evenodd" clip-rule="evenodd" d="M28.6523 8.83035C28.8769 8.73804 29.1176 8.6912 29.3605 8.69253L29.3302 8.64209C29.8199 8.64209 30.2895 8.83661 30.6358 9.18287C30.982 9.52913 31.1766 9.99876 31.1766 10.4884C31.1766 10.9781 30.982 11.4478 30.6358 11.794C30.2895 12.1403 29.8199 12.3348 29.3302 12.3348C29.2195 12.3457 29.108 12.3457 28.9973 12.3348L27.615 19.4882H4.47002L3.05751 12.2642C2.64189 12.3831 2.19764 12.3516 1.80299 12.1751C1.40833 11.9987 1.08857 11.6887 0.900011 11.2997C0.711452 10.9107 0.666184 10.4676 0.772178 10.0485C0.878171 9.62942 1.12863 9.26115 1.47945 9.00855C1.83028 8.75596 2.25897 8.63524 2.69005 8.66765C3.12113 8.70006 3.52696 8.88351 3.83607 9.18572C4.14519 9.48793 4.33777 9.8895 4.37991 10.3197C4.42205 10.75 4.31105 11.1813 4.06645 11.5377L7.62799 15.5735L7.92058 15.8358L7.8096 7.35065C7.37901 7.33352 6.96816 7.1655 6.64896 6.87599C6.32976 6.58648 6.12255 6.19393 6.06359 5.76705C6.00464 5.34016 6.0977 4.90615 6.32648 4.54096C6.55526 4.17577 6.90519 3.90268 7.31503 3.76948C7.72486 3.63629 8.16848 3.65148 8.56825 3.81238C8.96801 3.97329 9.29845 4.26968 9.50172 4.64965C9.705 5.02963 9.76816 5.469 9.68015 5.89085C9.59214 6.3127 9.35857 6.69016 9.02032 6.95716L12.6929 13.1419L15.4977 4.20277C15.0848 4.06394 14.7347 3.78285 14.5099 3.40971C14.2852 3.03656 14.2004 2.59566 14.2707 2.16576C14.341 1.73586 14.5619 1.34497 14.8939 1.0629C15.2258 0.78084 15.6473 0.625977 16.0829 0.625977C16.5185 0.625977 16.9399 0.78084 17.2719 1.0629C17.6038 1.34497 17.8247 1.73586 17.8951 2.16576C17.9654 2.59566 17.8806 3.03656 17.6558 3.40971C17.4311 3.78285 17.081 4.06394 16.6681 4.20277L19.8866 13.1218L23.1253 7.06815C22.7536 6.84819 22.4714 6.50427 22.3281 6.09684C22.1849 5.68941 22.1899 5.24453 22.3422 4.8404C22.4945 4.43627 22.7843 4.09874 23.1608 3.88714C23.5373 3.67554 23.9763 3.60341 24.4007 3.68342C24.8251 3.76343 25.2077 3.99046 25.4813 4.32461C25.7549 4.65877 25.9019 5.07866 25.8966 5.5105C25.8913 5.94234 25.7339 6.35848 25.4522 6.6858C25.1705 7.01312 24.7824 7.23066 24.3562 7.3002L24.6084 15.8156L27.9883 11.7193C27.6915 11.3969 27.5229 10.9771 27.5141 10.5389C27.5128 10.296 27.5596 10.0554 27.6519 9.83074C27.7443 9.60612 27.8802 9.40205 28.0519 9.23034C28.2236 9.05862 28.4277 8.92267 28.6523 8.83035ZM4.52312 21.5666H27.3685V24.2559C27.3685 24.8735 26.8678 25.3742 26.2502 25.3742H5.64137C5.02378 25.3742 4.52312 24.8735 4.52312 24.2559V21.5666Z" fill="#C0C0C0"/>
</svg>
