<svg width="16" height="16" viewBox="0 0 16 16" fill="none" xmlns="http://www.w3.org/2000/svg">
<path d="M11.8046 5.13807C12.0649 4.87772 12.0649 4.45561 11.8046 4.19526C11.5442 3.93491 11.1221 3.93491 10.8618 4.19526L4.6665 10.3905L1.80458 7.5286C1.54423 7.26825 1.12212 7.26825 0.861766 7.5286C0.601417 7.78894 0.601417 8.21106 0.861766 8.4714L4.1951 11.8047C4.45545 12.0651 4.87756 12.0651 5.13791 11.8047L11.8046 5.13807Z" fill="#F94C84"/>
<path d="M15.1379 5.13807C15.3983 4.87772 15.3983 4.45561 15.1379 4.19526C14.8776 3.93491 14.4554 3.93491 14.1951 4.19526L7.99669 10.3937C7.73501 10.1862 7.3536 10.2034 7.11177 10.4453C6.85142 10.7056 6.85142 11.1277 7.11177 11.3881L7.52843 11.8047C7.78878 12.0651 8.21089 12.0651 8.47124 11.8047L15.1379 5.13807Z" fill="#F94C84"/>
<path d="M5.55457 7.94526L5.13791 7.5286C4.87756 7.26825 4.45545 7.26825 4.1951 7.5286C3.93475 7.78894 3.93475 8.21106 4.1951 8.4714L4.61177 8.88807C4.87212 9.14842 5.29423 9.14842 5.55457 8.88807C5.81492 8.62772 5.81492 8.20561 5.55457 7.94526Z" fill="#F94C84"/>
</svg>
