<svg width="25" height="25" viewBox="0 0 25 25" fill="none" xmlns="http://www.w3.org/2000/svg">
<path d="M21.5 22.3882H3.5C3.09 22.3882 2.75 22.0482 2.75 21.6382C2.75 21.2282 3.09 20.8882 3.5 20.8882H21.5C21.91 20.8882 22.25 21.2282 22.25 21.6382C22.25 22.0482 21.91 22.3882 21.5 22.3882Z" fill="#C0C0C0"/>
<path d="M19.5201 3.86822C17.5801 1.92822 15.6801 1.87822 13.6901 3.86822L12.4801 5.07822C12.3801 5.17822 12.3401 5.33822 12.3801 5.47822C13.1401 8.12822 15.2601 10.2482 17.9101 11.0082C17.9501 11.0182 17.9901 11.0282 18.0301 11.0282C18.1401 11.0282 18.2401 10.9882 18.3201 10.9082L19.5201 9.69822C20.5101 8.71822 20.9901 7.76822 20.9901 6.80822C21.0001 5.81822 20.5201 4.85822 19.5201 3.86822Z" fill="#C0C0C0"/>
<path d="M16.1101 11.9182C15.8201 11.7782 15.5401 11.6382 15.2701 11.4782C15.0501 11.3482 14.8401 11.2082 14.6301 11.0582C14.4601 10.9482 14.2601 10.7882 14.0701 10.6282C14.0501 10.6182 13.9801 10.5582 13.9001 10.4782C13.5701 10.1982 13.2001 9.83823 12.8701 9.43823C12.8401 9.41823 12.7901 9.34823 12.7201 9.25823C12.6201 9.13823 12.4501 8.93823 12.3001 8.70823C12.1801 8.55823 12.0401 8.33823 11.9101 8.11823C11.7501 7.84823 11.6101 7.57823 11.4701 7.29823C11.4489 7.25284 11.4284 7.20767 11.4085 7.16277C11.2609 6.82945 10.8263 6.732 10.5685 6.98976L4.84007 12.7182C4.71007 12.8482 4.59007 13.0982 4.56007 13.2682L4.02007 17.0982C3.92007 17.7782 4.11007 18.4182 4.53007 18.8482C4.89007 19.1982 5.39007 19.3882 5.93007 19.3882C6.05007 19.3882 6.17007 19.3782 6.29007 19.3582L10.1301 18.8182C10.3101 18.7882 10.5601 18.6682 10.6801 18.5382L16.4014 12.8169C16.6609 12.5574 16.563 12.1119 16.2254 11.9678C16.1874 11.9516 16.149 11.9351 16.1101 11.9182Z" fill="#C0C0C0"/>
</svg>
