<svg width="43" height="42" viewBox="0 0 43 42" fill="none" xmlns="http://www.w3.org/2000/svg">
<path d="M30.25 6.125H12.75C7.5 6.125 4 8.75 4 14.875V27.125C4 33.25 7.5 35.875 12.75 35.875H30.25C35.5 35.875 39 33.25 39 27.125V14.875C39 8.75 35.5 6.125 30.25 6.125ZM31.0725 16.7825L25.595 21.1575C24.44 22.085 22.97 22.54 21.5 22.54C20.03 22.54 18.5425 22.085 17.405 21.1575L11.9275 16.7825C11.3675 16.3275 11.28 15.4875 11.7175 14.9275C12.1725 14.3675 12.995 14.2625 13.555 14.7175L19.0325 19.0925C20.3625 20.16 22.62 20.16 23.95 19.0925L29.4275 14.7175C29.9875 14.2625 30.8275 14.35 31.265 14.9275C31.72 15.4875 31.6325 16.3275 31.0725 16.7825Z" fill="white"/>
</svg>
