<svg width="37" height="35" viewBox="0 0 37 35" fill="none" xmlns="http://www.w3.org/2000/svg">
<path d="M29.2287 22.8879H29.9389C30.1164 22.8872 30.2865 22.8162 30.4118 22.6905C30.5371 22.5647 30.6074 22.3944 30.6074 22.2168V12.8373C30.6078 12.7493 30.5907 12.6621 30.5573 12.5807C30.5238 12.4993 30.4746 12.4253 30.4125 12.3629C30.3504 12.3006 30.2766 12.2511 30.1953 12.2174C30.114 12.1836 30.0269 12.1662 29.9389 12.1662H29.0205L29.2287 10.8438V10.8267H29.9389C30.2029 10.8267 30.4644 10.8787 30.7083 10.9797C30.9522 11.0808 31.1739 11.2289 31.3606 11.4156C31.5473 11.6023 31.6954 11.8239 31.7964 12.0678C31.8975 12.3118 31.9495 12.5732 31.9495 12.8373V22.2168C31.9488 22.7499 31.7368 23.2609 31.3599 23.6378C30.983 24.0148 30.4719 24.2268 29.9389 24.2275H29.2287V22.8879Z" fill="#F94C84"/>
<path d="M28.2637 23.7256H29.2678C29.2676 24.1949 29.2365 24.6636 29.1748 25.1288L28.178 24.9966C28.2349 24.5753 28.2636 24.1507 28.2637 23.7256ZM27.9258 26.248L28.8931 26.515C28.7687 26.9681 28.614 27.4123 28.4303 27.8448L27.5045 27.448C27.6722 27.0581 27.813 26.6572 27.9258 26.248ZM26.9241 28.5868L27.7837 29.1035C27.542 29.5074 27.2719 29.8937 26.9756 30.2595L26.1943 29.6374C26.4614 29.3043 26.7052 28.9533 26.9241 28.5868ZM25.3323 30.546L26.0205 31.2807C25.677 31.6025 25.3112 31.8995 24.9258 32.1697L24.3478 31.3517C24.6942 31.1097 25.0231 30.8437 25.3323 30.5558V30.546ZM23.2458 32.0154L23.6964 32.9141C23.2746 33.1252 22.8385 33.3061 22.3911 33.4554L22.0752 32.5003C22.4735 32.3674 22.8615 32.2053 23.236 32.0154H23.2458ZM20.8164 32.8211L20.9854 33.8129C20.5208 33.8923 20.0509 33.9373 19.5797 33.9476L19.5552 32.9435C19.978 32.9337 20.3996 32.8928 20.8164 32.8211ZM18.2744 32.946V33.9501H17.405C17.2384 33.9501 17.0744 33.9501 16.9152 33.9378L16.9666 32.9337C17.116 32.9337 17.2629 32.9337 17.4123 32.9337L18.2744 32.946ZM15.7005 32.777L15.5021 33.7566C15.0394 33.6654 14.5842 33.5393 14.1405 33.3794L14.4809 32.4317C14.8784 32.5748 15.2861 32.6878 15.7005 32.7696V32.777ZM13.3176 31.9199L12.845 32.8064C12.4287 32.5854 12.0293 32.3342 11.6499 32.0545L12.245 31.2439C12.586 31.4923 12.9445 31.7158 13.3176 31.9125V31.9199ZM11.2801 30.4235L10.5772 31.1411C10.2411 30.8124 9.92852 30.4605 9.64172 30.088L10.4376 29.4733C10.697 29.8061 10.9785 30.1211 11.2801 30.4162V30.4235ZM9.72499 28.4031L8.85071 28.8929C8.61779 28.4846 8.41323 28.0607 8.23846 27.6244L9.17152 27.2497C9.32918 27.6441 9.51412 28.0271 9.72499 28.3958V28.4031ZM8.77234 26.0227L7.79275 26.2676C7.68047 25.8115 7.59866 25.3485 7.54785 24.8815L8.54703 24.7713C8.59507 25.1904 8.67033 25.606 8.77234 26.0154V26.0227Z" fill="#F94C84"/>
<path d="M28.2637 24.2277V12.4187C28.5753 12.6588 28.8278 12.967 29.0019 13.3197C29.1759 13.6725 29.2669 14.0604 29.2678 14.4538V23.5762C29.2678 23.7942 29.2678 24.0122 29.2457 24.2277H28.2637Z" fill="#F94C84"/>
<path d="M13.3546 19.2023C13.4835 19.2054 13.6063 19.258 13.6975 19.3492C13.7887 19.4404 13.8413 19.5632 13.8444 19.6921V21.3672C13.8444 21.5003 13.7915 21.628 13.6974 21.7222C13.6032 21.8163 13.4755 21.8692 13.3424 21.8692C13.2092 21.8692 13.0815 21.8163 12.9874 21.7222C12.8932 21.628 12.8403 21.5003 12.8403 21.3672V19.6921C12.8419 19.6262 12.8565 19.5612 12.8832 19.5009C12.9099 19.4406 12.9482 19.3861 12.996 19.3406C13.0437 19.2952 13.1 19.2595 13.1615 19.2358C13.2231 19.2121 13.2887 19.2007 13.3546 19.2023Z" fill="#F94C84"/>
<path d="M24.0763 19.2024C24.2052 19.2055 24.328 19.2581 24.4192 19.3493C24.5104 19.4405 24.563 19.5632 24.5661 19.6922V21.3673C24.5572 21.4947 24.5003 21.614 24.4069 21.7011C24.3135 21.7882 24.1906 21.8366 24.0628 21.8366C23.9351 21.8366 23.8121 21.7882 23.7187 21.7011C23.6253 21.614 23.5685 21.4947 23.5596 21.3673V19.6922C23.5612 19.626 23.5758 19.5608 23.6027 19.5004C23.6295 19.4399 23.6681 19.3853 23.7161 19.3398C23.7641 19.2943 23.8207 19.2587 23.8825 19.2351C23.9443 19.2115 24.0102 19.2004 24.0763 19.2024Z" fill="#F94C84"/>
<path d="M24.8058 7.04061L24.6932 7.0602H13.1952C12.3069 7.06085 11.4551 7.41403 10.827 8.04217C10.1989 8.67031 9.84568 9.52207 9.84503 10.4104V12.1663H8.11606C6.70789 12.181 6.51932 12.2839 6.51932 13.0161V22.3222C6.51932 22.6308 6.78381 22.8977 7.48422 22.9492V16.6896C7.48337 16.1754 7.68072 15.6807 8.03524 15.3084C8.21401 15.1124 9.23034 14.3288 9.57319 13.9786L10.3667 13.1924L11.2826 13.8316C11.8432 14.2237 12.5111 14.4333 13.1952 14.4316H24.5879C25.4762 14.431 26.3279 14.0778 26.9561 13.4497C27.5842 12.8215 27.9374 11.9698 27.9381 11.0814V5.6496C27.0241 6.36348 25.9483 6.84123 24.8058 7.04061ZM8.49565 10.4104C8.49564 9.79371 8.61727 9.18306 8.85357 8.61343C9.08987 8.0438 9.43619 7.52637 9.87271 7.09075C10.3092 6.65514 10.8274 6.3099 11.3975 6.07479C11.9676 5.83968 12.5785 5.71933 13.1952 5.72061H24.5879C26.4099 5.40388 27.9732 4.20225 29.2776 2.11572V11.0814C29.2776 12.3252 28.7835 13.5181 27.904 14.3976C27.0245 15.2771 25.8317 15.7712 24.5879 15.7712H13.1952C12.2335 15.779 11.2928 15.4899 10.5014 14.9435C9.45564 15.9794 8.80911 16.1214 8.80911 16.7018V24.2177C6.19116 24.5998 5.16504 23.439 5.16504 22.3296V13.0235C5.16504 10.8341 6.90871 10.8341 8.49075 10.8341L8.49565 10.4104Z" fill="#F94C84"/>
<path d="M15.9187 28.9982C15.8086 28.9232 15.7328 28.8075 15.708 28.6766C15.6832 28.5457 15.7114 28.4104 15.7864 28.3003C15.8614 28.1902 15.9771 28.1144 16.108 28.0896C16.2389 28.0648 16.3743 28.093 16.4844 28.168C17.1453 28.6824 17.9588 28.9616 18.7962 28.9616C19.6337 28.9616 20.4472 28.6824 21.1081 28.168C21.1626 28.1309 21.2239 28.1048 21.2884 28.0914C21.353 28.0779 21.4196 28.0773 21.4844 28.0896C21.5492 28.1019 21.611 28.1268 21.6662 28.1629C21.7213 28.1991 21.7689 28.2458 21.806 28.3003C21.8432 28.3548 21.8692 28.4161 21.8827 28.4807C21.8961 28.5452 21.8967 28.6118 21.8844 28.6766C21.8722 28.7414 21.8472 28.8032 21.8111 28.8584C21.7749 28.9136 21.7283 28.9611 21.6738 28.9982C20.8464 29.6275 19.8356 29.9682 18.7962 29.9682C17.7568 29.9682 16.746 29.6275 15.9187 28.9982Z" fill="#F94C84"/>
<path d="M31.9492 1.44469L31.2782 0.776123H35.6325V5.1304L34.9639 4.45938V1.44469H31.9492ZM34.9639 34.2904V31.2634L35.6325 30.5924V34.9491H31.2782L31.9492 34.2781L34.9639 34.2904ZM34.9639 31.2757L35.6325 30.6046V34.9614H31.2782L31.9492 34.2904H34.9639V31.2757ZM2.13049 34.2904H5.14518L5.8162 34.9614H1.45947V30.5924L2.13049 31.2634V34.2904ZM2.13049 1.45694H5.14518L5.8162 0.788368H1.45947V5.1304L2.13049 4.45938V1.45694Z" fill="#F94C84"/>
<path d="M0.455566 24.6463V24.3108H36.3037V24.6463H0.455566Z" fill="#F94C84"/>
</svg>
