<svg width="57" height="57" viewBox="0 0 57 57" fill="none" xmlns="http://www.w3.org/2000/svg">
<g clip-path="url(#clip0_140_661)">
<path d="M36.6023 29.0418C38.1698 30.6472 39.0569 32.5922 39.6995 35.2818L39.9779 36.5589L40.4792 39.2088C40.7286 40.4543 40.9214 41.146 41.1912 41.7506C42.0331 43.6372 43.5154 45.5705 45.6585 47.5351C46.5134 48.3189 46.5711 49.6473 45.7874 50.5022C45.0036 51.3571 43.6752 51.4148 42.8203 50.6311C40.2797 48.302 38.4514 45.9174 37.3557 43.4621C36.9389 42.528 36.6852 41.6407 36.3856 40.1583L35.7966 37.0768L35.761 36.9082C35.2552 34.5308 34.6299 33.0336 33.5972 31.976C31.6016 29.9322 26.9985 30.4724 25.7666 32.4202C24.1935 34.9076 23.7922 39.1287 25.0413 43.3839C26.0064 46.6715 27.287 49.9067 28.884 53.0907C29.404 54.1274 28.9851 55.3893 27.9485 55.9093C26.9118 56.4293 25.6498 56.0104 25.1298 54.9738C23.4211 51.5672 22.0479 48.0979 21.0114 44.5669C19.4392 39.2113 19.9588 33.7458 22.2169 30.1753C24.8855 25.9558 32.6943 25.0394 36.6023 29.0418ZM29.9784 35.5247C31.1376 35.4862 32.1085 36.3946 32.1471 37.5538C32.2911 41.8859 33.7003 46.0739 36.1905 49.6053L36.7406 50.3517L37.5812 51.4438C38.2885 52.3629 38.1169 53.6814 37.1978 54.3888C36.3623 55.0319 35.1967 54.9486 34.4602 54.2376L34.2528 54.0055L33.4123 52.9134C30.0436 48.5367 28.1329 43.2134 27.9494 37.6934C27.9108 36.5342 28.8193 35.5633 29.9784 35.5247ZM19.5924 21.2934C25.5055 16.9153 33.2404 17.1529 38.4434 20.4973C41.0472 22.171 43.0191 24.1226 44.33 26.3587C44.9166 27.3592 44.581 28.6458 43.5805 29.2324C42.5799 29.819 41.2933 29.4834 40.7068 28.4829C39.7501 26.8511 38.2483 25.3647 36.1724 24.0304C32.3574 21.5782 26.5086 21.3985 22.0916 24.6689C17.5036 28.0659 15.572 33.8843 16.1472 40.0181C16.4694 43.4534 17.5046 46.9264 19.2642 50.4449C19.7829 51.4822 19.3625 52.7437 18.3252 53.2624C17.2879 53.7812 16.0264 53.3608 15.5077 52.3234C13.5223 48.3533 12.3378 44.3796 11.9655 40.4102C11.2647 32.9365 13.6756 25.6742 19.5924 21.2934ZM45.2957 33.3363C46.4539 33.2767 47.4412 34.1674 47.5008 35.3256C47.5877 37.0142 48.0049 38.395 48.7368 39.5057C49.3514 40.4384 49.8975 40.9771 50.3145 41.1849L50.4851 41.2539C51.5953 41.5895 52.2231 42.7616 51.8874 43.8718C51.5518 44.9819 50.3797 45.6098 49.2695 45.2741C47.7394 44.8115 46.423 43.6276 45.2297 41.8166C44.0659 40.0505 43.4301 37.9462 43.3064 35.5414C43.2468 34.3832 44.1374 33.3959 45.2957 33.3363ZM24.4297 12.0859C24.9057 13.1435 24.4342 14.3867 23.3766 14.8627C18.2241 17.1818 14.4329 20.4866 11.9423 24.799C8.82526 30.1963 7.98446 36.5057 8.68232 41.8232C8.83324 42.9731 8.02337 44.0277 6.87343 44.1786C5.7235 44.3295 4.66895 43.5196 4.51803 42.3697C3.70937 36.2079 4.67107 28.9913 8.30531 22.6985C11.2504 17.5991 15.7197 13.7032 21.6528 11.0328C22.7104 10.5568 23.9537 11.0283 24.4297 12.0859ZM30.992 9.882C36.1157 9.98701 41.216 12.3414 46.2764 16.8438C51.3805 21.3852 54.4564 27.5583 55.5005 35.2684C55.6561 36.4177 54.8506 37.4755 53.7013 37.6312C52.552 37.7868 51.4941 36.9813 51.3385 35.832C50.4241 29.0795 47.8072 23.8277 43.4846 19.9816C39.1181 16.0966 34.9307 14.1636 30.9059 14.0811C29.7464 14.0574 28.8257 13.0981 28.8494 11.9385C28.8732 10.779 29.8324 9.85824 30.992 9.882ZM11.7518 9.92233C12.5232 10.7884 12.4464 12.1158 11.5803 12.8872C10.8295 13.5559 10.0418 14.354 9.21917 15.2813C8.44542 16.1535 7.65277 17.2857 6.84948 18.6765C6.2694 19.6808 4.985 20.0247 3.98069 19.4446C2.97638 18.8645 2.63247 17.5801 3.21255 16.5758C4.14906 14.9544 5.10121 13.5943 6.07726 12.4941C7.00447 11.4489 7.90695 10.5345 8.78692 9.75081C9.65302 8.97944 10.9804 9.05623 11.7518 9.92233ZM30.1914 1.61773C36.3309 1.90532 41.4731 3.5839 45.6746 6.82831C46.5926 7.53716 46.7621 8.85596 46.0532 9.77392C45.3444 10.6919 44.0256 10.8614 43.1076 10.1525C39.6208 7.45999 35.3083 6.06202 29.9949 5.81313C24.666 5.56352 20.3023 6.60856 16.7939 8.55442C15.7188 9.1507 14.5124 8.85231 13.9054 7.86404C13.2984 6.87576 13.5712 5.57822 14.5958 4.97555C18.8958 2.44618 24.0673 1.33087 30.1914 1.61773Z" fill="white"/>
</g>
<defs>
<clipPath id="clip0_140_661">
<rect width="56" height="56" fill="white" transform="translate(0.600098 0.599976)"/>
</clipPath>
</defs>
</svg>
