<svg width="20" height="20" viewBox="0 0 20 20" fill="none" xmlns="http://www.w3.org/2000/svg">
<path d="M10.0003 12.5C5.82529 12.5 2.42529 15.3 2.42529 18.75C2.42529 18.9833 2.60863 19.1667 2.84196 19.1667H17.1586C17.392 19.1667 17.5753 18.9833 17.5753 18.75C17.5753 15.3 14.1753 12.5 10.0003 12.5Z" fill="#F94C84"/>
<path d="M13.0918 3.04984C12.3418 2.19984 11.2252 1.6665 10.0002 1.6665C8.8335 1.6665 7.76683 2.1415 7.0085 2.92484C6.2835 3.67484 5.8335 4.70817 5.8335 5.83317C5.8335 6.6165 6.05016 7.34984 6.44183 7.97484C6.65016 8.33317 6.91683 8.65817 7.2335 8.92484C7.9585 9.5915 8.92516 9.99984 10.0002 9.99984C11.5252 9.99984 12.8418 9.18317 13.5668 7.97484C13.7835 7.6165 13.9502 7.2165 14.0418 6.79984C14.1252 6.4915 14.1668 6.1665 14.1668 5.83317C14.1668 4.7665 13.7585 3.7915 13.0918 3.04984ZM11.5585 6.59984H10.7835V7.40817C10.7835 7.8415 10.4335 8.1915 10.0002 8.1915C9.56683 8.1915 9.21683 7.8415 9.21683 7.40817V6.59984H8.44183C8.0085 6.59984 7.6585 6.24984 7.6585 5.8165C7.6585 5.38317 8.0085 5.03317 8.44183 5.03317H9.21683V4.2915C9.21683 3.85817 9.56683 3.50817 10.0002 3.50817C10.4335 3.50817 10.7835 3.85817 10.7835 4.2915V5.03317H11.5585C11.9918 5.03317 12.3418 5.38317 12.3418 5.8165C12.3418 6.24984 11.9918 6.59984 11.5585 6.59984Z" fill="#F94C84"/>
</svg>
