<svg width="12" height="12" viewBox="0 0 12 12" fill="none" xmlns="http://www.w3.org/2000/svg">
<path fill-rule="evenodd" clip-rule="evenodd" d="M5.79374 0.54893C5.59606 0.457024 5.36552 0.496712 5.20589 0.650128L0.177834 5.48256C0.0658674 5.59017 0.00145054 5.742 2.38419e-05 5.90166C-0.00140285 6.06132 0.0602922 6.2144 0.170316 6.32421L5.19837 11.3425C5.35659 11.5004 5.58883 11.5439 5.78903 11.4532C5.98924 11.3625 6.11897 11.155 6.11897 10.9254V8.06803C7.47225 8.10723 8.35512 8.32078 9.02637 8.71863C9.77696 9.16352 10.3365 9.88216 10.9809 11.0709C11.1035 11.2972 11.3554 11.4082 11.5945 11.3414C11.8335 11.2745 12 11.0466 12 10.786C12 8.85533 11.7561 7.10285 10.7744 5.81454C9.84591 4.596 8.34908 3.90515 6.11897 3.73618V1.07464C6.11897 0.847007 5.99142 0.640835 5.79374 0.54893ZM5.02806 2.3767V4.28077C5.02806 4.59007 5.26045 4.84388 5.55386 4.85502C7.92413 4.94505 9.20617 5.59231 9.92368 6.53395C10.3642 7.11208 10.6305 7.84874 10.7733 8.75046C10.4175 8.33658 10.0239 7.99124 9.56129 7.71703C8.55844 7.12263 7.30501 6.90608 5.57166 6.91228C5.27114 6.91335 5.02806 7.1703 5.02806 7.4869V9.58941L1.34651 5.91501L5.02806 2.3767Z" fill="#8B8B8B"/>
</svg>
