<svg width="48" height="20" viewBox="0 0 48 20" fill="none" xmlns="http://www.w3.org/2000/svg">
<g clip-path="url(#clip0_2261_5251)">
<path d="M22.7018 2.79698V7.60856H25.6644C25.9896 7.61747 26.3131 7.55876 26.6145 7.43613C26.9158 7.3135 27.1884 7.12964 27.415 6.89618C27.64 6.67732 27.8188 6.41561 27.9409 6.12649C28.063 5.83736 28.1259 5.52671 28.1259 5.21287C28.1259 4.89902 28.063 4.58837 27.9409 4.29925C27.8188 4.01012 27.64 3.74841 27.415 3.52955C27.1914 3.291 26.9198 3.10251 26.618 2.97647C26.3163 2.85044 25.9913 2.78972 25.6644 2.79832H22.7018V2.79698ZM22.7018 9.30264V14.8832H20.9296V1.10289H25.6307C26.1917 1.09096 26.7494 1.19025 27.2718 1.39504C27.7941 1.59982 28.2708 1.90604 28.6742 2.29602C29.0817 2.66126 29.4062 3.10967 29.6257 3.61099C29.8453 4.1123 29.9547 4.65487 29.9467 5.20209C29.9585 5.75262 29.8509 6.29917 29.6312 6.8041C29.4115 7.30903 29.085 7.76036 28.6742 8.12702C27.8527 8.91077 26.8382 9.30219 25.6307 9.3013H22.7018V9.30264Z" fill="#5F6368"/>
<path d="M31.7378 11.996C31.7363 12.2217 31.7889 12.4444 31.8914 12.6454C31.9938 12.8465 32.1429 13.02 32.3263 13.1515C32.7182 13.4592 33.2043 13.6223 33.7026 13.6134C34.4508 13.612 35.1679 13.3142 35.697 12.7852C35.9725 12.5423 36.1932 12.2434 36.3444 11.9086C36.4955 11.5738 36.5737 11.2107 36.5736 10.8433C36.0215 10.4061 35.2508 10.1879 34.2614 10.1888C33.5432 10.1888 32.9431 10.3621 32.461 10.7086C31.9789 11.0552 31.7378 11.4843 31.7378 11.996ZM34.0271 5.14429C35.3379 5.14429 36.3703 5.49397 37.1244 6.19333C37.8785 6.89269 38.2569 7.85195 38.2596 9.07112V14.8833H36.575V13.5757H36.4942C35.7634 14.653 34.7875 15.1916 33.5666 15.1916C32.5269 15.1916 31.6543 14.8833 30.9554 14.2678C30.6194 13.9851 30.3507 13.6309 30.169 13.2311C29.9873 12.8314 29.8971 12.3961 29.905 11.957C29.905 10.982 30.274 10.2063 31.012 9.62998C31.7499 9.05361 32.7375 8.76453 33.9746 8.76274C35.0277 8.76274 35.8949 8.95531 36.5763 9.34045V8.93645C36.5786 8.63712 36.514 8.34106 36.3873 8.06987C36.2605 7.79868 36.0748 7.55922 35.8437 7.36895C35.3742 6.94534 34.7618 6.71492 34.1295 6.72391C33.1419 6.72391 32.3586 7.14137 31.7796 7.97629L30.2174 6.99324C31.0802 5.7615 32.3514 5.14518 34.0312 5.14429" fill="#5F6368"/>
<path d="M48 5.45264L42.0841 19.0403H40.254L42.4504 14.2867L38.5586 5.45264H40.4857L43.2988 12.2276H43.3365L46.0729 5.45264H48Z" fill="#5F6368"/>
<path d="M15.539 8.09865C15.5404 7.55713 15.4953 7.01649 15.4043 6.48267H7.92639V9.53822H12.2087C12.1211 10.0255 11.9356 10.4901 11.6634 10.9037C11.3912 11.3173 11.038 11.6714 10.6251 11.9447V13.9243H13.1837C14.6785 12.5466 15.539 10.5038 15.539 8.09865Z" fill="#4285F4"/>
<path d="M7.92639 15.8378C10.0662 15.8378 11.868 15.1362 13.1783 13.9242L10.6197 11.9446C9.90866 12.4227 8.99294 12.7028 7.92639 12.7028C5.85929 12.7028 4.1046 11.3103 3.48245 9.43311H0.84436V11.4733C1.50471 12.7854 2.51655 13.8882 3.76704 14.6589C5.01753 15.4295 6.45751 15.8377 7.92639 15.8378Z" fill="#34A853"/>
<path d="M3.47699 9.4333C3.1448 8.45016 3.1448 7.38512 3.47699 6.40199V4.36316H0.844291C0.289072 5.46602 -0.00012207 6.68358 -0.00012207 7.91832C-0.00012207 9.15305 0.289072 10.3706 0.844291 11.4735L3.47699 9.4333Z" fill="#FABB05"/>
<path d="M7.92639 3.13369C9.05698 3.11516 10.1496 3.54174 10.9685 4.32144L13.2308 2.06176C11.7951 0.715678 9.89437 -0.0230749 7.92639 3.81507e-05C6.45765 2.76918e-05 5.01777 0.407966 3.76729 1.17837C2.51682 1.94877 1.5049 3.05135 0.84436 4.36318L3.47706 6.40201C4.1046 4.52613 5.85929 3.13369 7.92101 3.13369" fill="#E94235"/>
</g>
<defs>
<clipPath id="clip0_2261_5251">
<rect width="48" height="19.0403" fill="white"/>
</clipPath>
</defs>
</svg>
