<?xml version="1.0" encoding="utf-8"?><!-- Uploaded to: SVG Repo, www.svgrepo.com, Generator: SVG Repo Mixer Tools -->
<svg fill="#000000" width="800px" height="800px" viewBox="0 0 24 24" id="gallery-collections" data-name="Flat Color" xmlns="http://www.w3.org/2000/svg" class="icon flat-color"><path id="primary" d="M20,21H5a1,1,0,0,1,0-2H20V8a1,1,0,0,1,2,0V19A2,2,0,0,1,20,21ZM16,3H4A2,2,0,0,0,2,5V15a2,2,0,0,0,2,2H16a2,2,0,0,0,2-2V5A2,2,0,0,0,16,3Z" style="fill: rgb(0, 0, 0);"></path><path id="secondary" d="M17.71,11.55,14.79,8.62a1,1,0,0,0-.71-.29h0a1,1,0,0,0-.71.29l-2.13,2.13L8.47,8a1,1,0,0,0-.71-.29h0A1,1,0,0,0,7.05,8L2.29,12.73a1,1,0,0,0-.29.71V15a2,2,0,0,0,2,2H16a2,2,0,0,0,2-2V12.26A1,1,0,0,0,17.71,11.55Z" style="fill: rgb(44, 169, 188);"></path></svg>