<svg width="43" height="41" viewBox="0 0 43 41" fill="none" xmlns="http://www.w3.org/2000/svg">
<path d="M20.8756 5.77935L21.5 6.65157L22.1244 5.77935C24.1637 2.93057 27.4221 1.08939 31.046 1.08939C37.1873 1.08939 42.2321 6.32721 42.2321 12.8824C42.2321 15.4766 41.8361 17.8718 41.1485 20.093L41.147 20.0978C40.6175 21.849 39.2699 23.9677 37.4375 26.1942C35.6181 28.405 33.3728 30.6605 31.1226 32.6819C28.8726 34.703 26.6326 36.4767 24.831 37.7262C23.9286 38.3521 23.1495 38.8372 22.5424 39.1553C22.238 39.3149 21.9921 39.4243 21.8054 39.4894C21.6371 39.548 21.5679 39.552 21.568 39.5535C21.568 39.5536 21.5681 39.5536 21.5684 39.5537L21.5 39.5465L21.4316 39.5537C21.4319 39.5536 21.432 39.5536 21.432 39.5535C21.4321 39.552 21.3629 39.548 21.1946 39.4894C21.0079 39.4243 20.762 39.3149 20.4576 39.1553C19.8505 38.8372 19.0714 38.3521 18.169 37.7262C16.3674 36.4767 14.1274 34.703 11.8775 32.6819C9.62723 30.6605 7.38189 28.405 5.5625 26.1942C3.73013 23.9677 2.38249 21.849 1.853 20.0978L1.85301 20.0978L1.85152 20.093C1.16393 17.8718 0.767857 15.4766 0.767857 12.8824C0.767857 6.32721 5.81266 1.08939 11.954 1.08939C15.5779 1.08939 18.8363 2.93057 20.8756 5.77935Z" stroke="white" stroke-width="1.53571"/>
</svg>
