<svg width="28" height="28" viewBox="0 0 28 28" fill="none" xmlns="http://www.w3.org/2000/svg">
<path d="M24.4361 7.09333L16.7561 1.72C14.6628 0.253332 11.4494 0.333332 9.43611 1.89333L2.75611 7.10666C1.42278 8.14666 0.369446 10.28 0.369446 11.96V21.16C0.369446 24.56 3.12945 27.3333 6.52945 27.3333H20.9028C24.3028 27.3333 27.0628 24.5733 27.0628 21.1733V12.1333C27.0628 10.3333 25.9028 8.12 24.4361 7.09333ZM14.7161 22C14.7161 22.5467 14.2628 23 13.7161 23C13.1694 23 12.7161 22.5467 12.7161 22V18C12.7161 17.4533 13.1694 17 13.7161 17C14.2628 17 14.7161 17.4533 14.7161 18V22Z" fill="#F94C84"/>
</svg>
