<svg width="24" height="24" viewBox="0 0 24 24" fill="none" xmlns="http://www.w3.org/2000/svg">
<rect width="24" height="24" rx="12" fill="#ACACAC"/>
<path d="M12.25 10.76C12.0048 10.76 11.765 10.8327 11.5611 10.969C11.3572 11.1052 11.1982 11.2989 11.1044 11.5255C11.0105 11.7521 10.986 12.0014 11.0338 12.2419C11.0817 12.4824 11.1998 12.7034 11.3732 12.8768C11.5466 13.0502 11.7676 13.1683 12.0081 13.2162C12.2486 13.264 12.4979 13.2395 12.7245 13.1456C12.9511 13.0518 13.1448 12.8928 13.281 12.6889C13.4173 12.485 13.49 12.2452 13.49 12C13.49 11.8372 13.4579 11.6759 13.3956 11.5255C13.3333 11.375 13.242 11.2383 13.1268 11.1232C13.0117 11.008 12.875 10.9167 12.7245 10.8544C12.5741 10.7921 12.4128 10.76 12.25 10.76ZM17.215 9.535C17.2124 9.14888 17.1413 8.76629 17.005 8.405C16.9046 8.14063 16.7494 7.90055 16.5494 7.70059C16.3495 7.50064 16.1094 7.34536 15.845 7.245C15.4837 7.10873 15.1011 7.03763 14.715 7.035C14.07 7 13.88 7 12.25 7C10.62 7 10.43 7 9.785 7.035C9.39888 7.03763 9.01629 7.10873 8.655 7.245C8.39063 7.34536 8.15055 7.50064 7.95059 7.70059C7.75064 7.90055 7.59536 8.14063 7.495 8.405C7.35873 8.76629 7.28763 9.14888 7.285 9.535C7.25 10.18 7.25 10.37 7.25 12C7.25 13.63 7.25 13.82 7.285 14.465C7.29038 14.8525 7.36139 15.2362 7.495 15.6C7.59491 15.8632 7.75006 16.1019 7.95 16.3C8.1491 16.5012 8.38969 16.6564 8.655 16.755C9.01629 16.8913 9.39888 16.9624 9.785 16.965C10.43 17 10.62 17 12.25 17C13.88 17 14.07 17 14.715 16.965C15.1011 16.9624 15.4837 16.8913 15.845 16.755C16.1103 16.6564 16.3509 16.5012 16.55 16.3C16.7499 16.1019 16.9051 15.8632 17.005 15.6C17.1411 15.2369 17.2122 14.8527 17.215 14.465C17.25 13.82 17.25 13.63 17.25 12C17.25 10.37 17.25 10.18 17.215 9.535ZM15.945 13.535C15.929 13.8436 15.8631 14.1475 15.75 14.435C15.6529 14.6748 15.5086 14.8927 15.3257 15.0757C15.1427 15.2586 14.9248 15.4029 14.685 15.5C14.3948 15.6068 14.0891 15.6659 13.78 15.675C13.385 15.675 13.28 15.675 12.25 15.675C11.22 15.675 11.115 15.675 10.72 15.675C10.4109 15.6659 10.1052 15.6068 9.815 15.5C9.56705 15.4079 9.34314 15.2609 9.16 15.07C8.97883 14.8906 8.83892 14.6739 8.75 14.435C8.64278 14.1451 8.5853 13.8391 8.58 13.53C8.58 13.135 8.58 13.03 8.58 12C8.58 10.97 8.58 10.865 8.58 10.47C8.5853 10.1609 8.64278 9.85494 8.75 9.565C8.84214 9.31705 8.98914 9.09314 9.18 8.91C9.36017 8.72981 9.57663 8.59005 9.815 8.5C10.1052 8.3932 10.4109 8.3341 10.72 8.325C11.115 8.325 11.22 8.325 12.25 8.325C13.28 8.325 13.385 8.325 13.78 8.325C14.0891 8.3341 14.3948 8.3932 14.685 8.5C14.9329 8.59214 15.1569 8.73914 15.34 8.93C15.5212 9.10937 15.6611 9.32607 15.75 9.565C15.8568 9.85524 15.9159 10.1609 15.925 10.47C15.925 10.865 15.925 10.97 15.925 12C15.925 13.03 15.96 13.135 15.945 13.53V13.535ZM15.145 9.815C15.0855 9.65349 14.9916 9.50682 14.8699 9.38511C14.7482 9.26339 14.6015 9.16953 14.44 9.11C14.2182 9.03313 13.9847 8.9959 13.75 9C13.36 9 13.25 9 12.25 9C11.25 9 11.14 9 10.75 9C10.5141 9.00231 10.2805 9.04632 10.06 9.13C9.90096 9.18683 9.75585 9.27686 9.63429 9.3941C9.51274 9.51134 9.41753 9.65312 9.355 9.81C9.28239 10.0327 9.24691 10.2658 9.25 10.5C9.25 10.89 9.25 11 9.25 12C9.25 13 9.25 13.11 9.25 13.5C9.25496 13.7356 9.29888 13.9688 9.38 14.19C9.43953 14.3515 9.53339 14.4982 9.65511 14.6199C9.77682 14.7416 9.92349 14.8355 10.085 14.895C10.2983 14.9735 10.5228 15.0173 10.75 15.025C11.14 15.025 11.25 15.025 12.25 15.025C13.25 15.025 13.36 15.025 13.75 15.025C13.9859 15.0227 14.2195 14.9787 14.44 14.895C14.6015 14.8355 14.7482 14.7416 14.8699 14.6199C14.9916 14.4982 15.0855 14.3515 15.145 14.19C15.2287 13.9695 15.2727 13.7359 15.275 13.5C15.275 13.11 15.275 13 15.275 12C15.275 11 15.275 10.89 15.275 10.5C15.2751 10.2639 15.2311 10.0299 15.145 9.81V9.815ZM12.25 13.91C11.9994 13.91 11.7513 13.8606 11.5198 13.7645C11.2884 13.6685 11.0782 13.5277 10.9012 13.3503C10.7242 13.1728 10.584 12.9623 10.4886 12.7305C10.3931 12.4988 10.3443 12.2506 10.345 12C10.345 11.622 10.4571 11.2525 10.6672 10.9383C10.8773 10.6241 11.1759 10.3793 11.5252 10.2349C11.8745 10.0905 12.2588 10.053 12.6295 10.1271C13.0001 10.2012 13.3404 10.3836 13.6073 10.6512C13.8743 10.9188 14.0558 11.2596 14.1289 11.6305C14.202 12.0013 14.1635 12.3855 14.0182 12.7344C13.8728 13.0833 13.6273 13.3813 13.3125 13.5905C12.9977 13.7998 12.628 13.911 12.25 13.91ZM14.25 10.465C14.1395 10.4533 14.0372 10.4011 13.9628 10.3185C13.8885 10.2359 13.8474 10.1286 13.8474 10.0175C13.8474 9.90635 13.8885 9.79914 13.9628 9.71651C14.0372 9.63389 14.1395 9.5817 14.25 9.57C14.3605 9.5817 14.4628 9.63389 14.5372 9.71651C14.6115 9.79914 14.6526 9.90635 14.6526 10.0175C14.6526 10.1286 14.6115 10.2359 14.5372 10.3185C14.4628 10.4011 14.3605 10.4533 14.25 10.465Z" fill="white"/>
</svg>
