<svg width="31" height="30" viewBox="0 0 31 30" fill="none" xmlns="http://www.w3.org/2000/svg">
<path d="M27.1448 3.3707C22.7202 -1.03893 15.5452 -1.03893 11.1505 3.3707C8.05631 6.43503 7.12954 10.8447 8.32537 14.7311L1.29985 21.7566C0.806567 22.2649 0.462765 23.2664 0.5674 23.9839L1.01584 27.2425C1.18026 28.3188 2.18177 29.3352 3.25802 29.4847L6.51667 29.9332C7.23417 30.0378 8.23568 29.7089 8.74391 29.1858L9.96964 27.96C10.2686 27.676 10.2686 27.1977 9.96964 26.8987L7.06974 23.9988C6.63625 23.5653 6.63625 22.8478 7.06974 22.4143C7.50323 21.9809 8.22073 21.9809 8.65422 22.4143L11.5691 25.3292C11.8531 25.6132 12.3314 25.6132 12.6154 25.3292L15.7844 22.1752C19.6559 23.386 24.0655 22.4442 27.1448 19.3799C31.5544 14.9703 31.5544 7.78034 27.1448 3.3707ZM19.2373 15.0002C17.1745 15.0002 15.5004 13.326 15.5004 11.2632C15.5004 9.20039 17.1745 7.52622 19.2373 7.52622C21.3002 7.52622 22.9743 9.20039 22.9743 11.2632C22.9743 13.326 21.3002 15.0002 19.2373 15.0002Z" fill="#F94C84"/>
</svg>
