<svg width="24" height="24" viewBox="0 0 24 24" fill="none" xmlns="http://www.w3.org/2000/svg">
<rect width="24" height="24" rx="12" fill="#ACACAC"/>
<path d="M7.36 5C6.60889 5 6 5.6425 6 6.43506C6 7.22763 6.60889 7.87013 7.36 7.87013C8.11111 7.87013 8.72 7.22763 8.72 6.43506C8.72 5.6425 8.11111 5 7.36 5Z" fill="white"/>
<path d="M6.08 9.05195C6.03582 9.05195 6 9.08974 6 9.13636V17.9156C6 17.9622 6.03582 18 6.08 18H8.64C8.68418 18 8.72 17.9622 8.72 17.9156V9.13636C8.72 9.08974 8.68418 9.05195 8.64 9.05195H6.08Z" fill="white"/>
<path d="M10.24 9.05195C10.1958 9.05195 10.16 9.08974 10.16 9.13636V17.9156C10.16 17.9622 10.1958 18 10.24 18H12.8C12.8442 18 12.88 17.9622 12.88 17.9156V13.1883C12.88 12.8525 13.0064 12.5304 13.2315 12.2929C13.4565 12.0555 13.7617 11.9221 14.08 11.9221C14.3983 11.9221 14.7035 12.0555 14.9285 12.2929C15.1536 12.5304 15.28 12.8525 15.28 13.1883V17.9156C15.28 17.9622 15.3158 18 15.36 18H17.92C17.9642 18 18 17.9622 18 17.9156V12.0945C18 10.4556 16.6492 9.1735 15.1039 9.32174C14.6273 9.36746 14.1561 9.49247 13.7161 9.69144L12.88 10.0696V9.13636C12.88 9.08974 12.8442 9.05195 12.8 9.05195H10.24Z" fill="white"/>
</svg>
