<svg width="11" height="12" viewBox="0 0 11 12" fill="none" xmlns="http://www.w3.org/2000/svg">
<path d="M8.547 4.518V3.768C8.547 2.148 8.20575 0 5.25 0C2.29425 0 1.953 2.148 1.953 3.768V4.518C0.483 4.728 0 5.58 0 7.674V8.79C0 11.25 0.65625 12 2.80875 12H7.69125C9.84375 12 10.5 11.25 10.5 8.79V7.674C10.5 5.58 10.017 4.728 8.547 4.518ZM2.80875 4.464C2.76675 4.464 2.73 4.464 2.688 4.464V3.768C2.688 2.01 3.12375 0.84 5.25 0.84C7.37625 0.84 7.812 2.01 7.812 3.768V4.47C7.77 4.47 7.73325 4.47 7.69125 4.47H2.80875V4.464Z" fill="#F94C84"/>
</svg>
