<?xml version="1.0" encoding="UTF-8"?>
<!DOCTYPE svg PUBLIC "-//W3C//DTD SVG 1.1//EN" "http://www.w3.org/Graphics/SVG/1.1/DTD/svg11.dtd">
<!-- Creator: CorelDRAW 2021 (64-Bit) -->
<svg xmlns="http://www.w3.org/2000/svg" xml:space="preserve" width="0.626815in" height="0.666665in" version="1.1" style="shape-rendering:geometricPrecision; text-rendering:geometricPrecision; image-rendering:optimizeQuality; fill-rule:evenodd; clip-rule:evenodd"
viewBox="0 0 41.11 43.73"
 xmlns:xlink="http://www.w3.org/1999/xlink"
 xmlns:xodm="http://www.corel.com/coreldraw/odm/2003">
 <defs>
  <style type="text/css">
   <![CDATA[
    .fil0 {fill:white}
   ]]>
  </style>
 </defs>
 <g id="Layer_x0020_1">
  <metadata id="CorelCorpID_0Corel-Layer"/>
  <path class="fil0" d="M28.82 5.51c-1.73,0.37 -1.88,0.47 -3.36,0.95 -2.54,0.82 -4.83,1.66 -7.3,2.78 -4.64,2.12 -10.2,5.49 -13.93,9.14 -0.25,0.27 -0.46,0.53 -0.07,0.93 0.27,0.28 0.54,0.39 1.06,0.4 1.12,0.03 3.95,-0.38 5.1,-0.69 0.78,-0.21 1.61,-0.51 2.38,-0.05 0.87,0.51 0.83,0.7 1.97,0.9 0.58,0.1 0.59,0.19 1.02,0.41 0.45,0.22 0.76,-0.03 1.08,-0.22 0.29,-0.17 0.6,-0.34 0.91,-0.51 3.6,-2.08 10.31,-5.08 14.48,-5.68 0.48,-0.07 0.78,-0.14 1.22,-0.24 0.35,-0.08 0.92,-0.14 0.82,-0.58 -0.05,-0.2 -0.4,-0.55 -0.62,-0.84 -0.58,-0.77 -3.56,-6.97 -4.77,-6.71zm4.71 22.11c-0.84,0.15 -2.24,0.68 -3.08,0.95 -0.91,0.29 -3.24,1.35 -4.19,1.84 -2.5,1.3 -5.02,3.02 -7.18,4.88 -0.52,0.45 -0.51,0.65 -0.28,1.42 0.42,1.38 0.19,1.51 0.97,3.05 0.22,0.44 0.47,0.89 0.72,1.29 1.15,1.81 0.47,2.49 1.39,2.63 0.39,0.06 1.56,0.04 1.98,0.01 1.25,-0.09 2.57,-0.72 3.46,-1.55 0.54,-0.5 0.93,-1.02 1.34,-1.69 0.35,-0.58 0.41,-0.74 0.72,-1.29 0.13,-0.24 0.25,-0.39 0.41,-0.58 0.57,-0.7 1.19,-0.92 1.25,-1.78 0.03,-0.51 -0.06,-1.54 0.08,-1.94 0.16,-0.45 0.67,-0.76 0.99,-1.02 0.38,-0.3 0.74,-0.54 1.21,-0.8 1.38,-0.77 1.39,-1.28 1.37,-2.65 -0.01,-0.52 -0.13,-1.29 -0.24,-1.76 -0.13,-0.54 -0.26,-1.14 -0.92,-1.02zm-19.06 -27.59c-1.59,0.18 -2.94,0.93 -4.61,0.97 -0.99,0.02 -1.54,0.03 -2.32,0.47 -0.47,0.27 -1.03,0.99 -1.34,1.47 -0.53,0.82 -0.37,0.84 -1.27,1.51 -0.52,0.39 -1.15,0.68 -1.78,1.03 -1.15,0.64 -2.22,1.9 -2.32,3.28 -0.06,0.8 0.22,1.87 0.02,2.55 -0.3,0.99 -1.58,1.99 -0.24,4.18 0.27,0.43 0.82,1.49 1.34,1.47 0.28,-0.01 0.67,-0.42 0.84,-0.55 2.9,-2.43 7.24,-5.72 10.7,-7.45 1.26,-0.63 2.44,-1.27 3.73,-1.86 2.66,-1.22 5.29,-2.2 8.08,-3.11 0.27,-0.09 0.9,-0.2 0.93,-0.47 0.04,-0.3 -0.63,-0.44 -0.87,-0.52 -0.67,-0.2 -1.53,-0.52 -2.31,-0.41 -1.26,0.17 -0.57,1.9 -2.67,0.82 -0.3,-0.16 -0.6,-0.3 -0.93,-0.47 -1.17,-0.58 -2.73,-0.48 -2.18,-1.77 0.44,-1.04 -0.63,-1.15 -1.39,-1.15 -0.43,-0 -0.99,-0.03 -1.39,0.02zm25.19 15.47c-1.03,0.11 -1.36,0.37 -2.19,0.58 -0.58,0.14 -0.68,-0.12 -0.96,-0.35 -0.35,-0.28 -0.7,-0.13 -1.11,-0.05 -0.79,0.16 -1.58,0.26 -2.35,0.43 -5.05,1.11 -10.64,3.11 -14.93,5.94 -0.29,0.19 -0.52,0.38 -0.82,0.57 -0.57,0.37 -1.54,0.75 -1.44,1.29 0.12,0.68 1.25,0.66 2.07,3.5 0.17,0.58 0.41,1.8 0.29,2.43 -0.08,0.41 -0.53,1.11 -0.77,2.01 -0.18,0.66 -0.32,2.02 0.82,1.04 1.3,-1.04 2.6,-2.07 4.04,-2.92 1.33,-0.79 3.13,-1.85 4.52,-2.44 0.69,-0.3 1.18,-0.55 1.93,-0.85 1.49,-0.59 3.7,-1.29 5.29,-1.67 0.75,-0.18 1.07,-0.74 1.5,-1.29 0.21,-0.27 0.42,-0.51 0.65,-0.75 1.46,-1.57 4.18,-4.24 4.83,-6.3 0.37,-1.16 -0.33,-1.3 -1.35,-1.19z"/>
 </g>
</svg>
