<?xml version="1.0" encoding="UTF-8"?>
<!DOCTYPE svg PUBLIC "-//W3C//DTD SVG 1.1//EN" "http://www.w3.org/Graphics/SVG/1.1/DTD/svg11.dtd">
<!-- Creator: CorelDRAW 2021 (64-Bit) -->
<svg xmlns="http://www.w3.org/2000/svg" xml:space="preserve" width="0.313409in" height="0.333335in" version="1.1" style="shape-rendering:geometricPrecision; text-rendering:geometricPrecision; image-rendering:optimizeQuality; fill-rule:evenodd; clip-rule:evenodd"
viewBox="0 0 8.85 9.41"
 xmlns:xlink="http://www.w3.org/1999/xlink"
 xmlns:xodm="http://www.corel.com/coreldraw/odm/2003">
 <defs>
  <style type="text/css">
   <![CDATA[
    .fil0 {fill:white}
   ]]>
  </style>
 </defs>
 <g id="Layer_x0020_1">
  <metadata id="CorelCorpID_0Corel-Layer"/>
  <path class="fil0" d="M6.2 1.18c-0.37,0.08 -0.4,0.1 -0.72,0.2 -0.55,0.18 -1.04,0.36 -1.57,0.6 -1,0.46 -2.19,1.18 -3,1.97 -0.05,0.06 -0.1,0.11 -0.02,0.2 0.06,0.06 0.12,0.08 0.23,0.09 0.24,0.01 0.85,-0.08 1.1,-0.15 0.17,-0.04 0.35,-0.11 0.51,-0.01 0.19,0.11 0.18,0.15 0.42,0.19 0.12,0.02 0.13,0.04 0.22,0.09 0.1,0.05 0.16,-0.01 0.23,-0.05 0.06,-0.04 0.13,-0.07 0.2,-0.11 0.78,-0.45 2.22,-1.09 3.12,-1.22 0.1,-0.01 0.17,-0.03 0.26,-0.05 0.07,-0.02 0.2,-0.03 0.18,-0.13 -0.01,-0.04 -0.09,-0.12 -0.13,-0.18 -0.13,-0.17 -0.77,-1.5 -1.03,-1.44zm1.01 4.76c-0.18,0.03 -0.48,0.15 -0.66,0.21 -0.2,0.06 -0.7,0.29 -0.9,0.4 -0.54,0.28 -1.08,0.65 -1.54,1.05 -0.11,0.1 -0.11,0.14 -0.06,0.31 0.09,0.3 0.04,0.32 0.21,0.66 0.05,0.1 0.1,0.19 0.15,0.28 0.25,0.39 0.1,0.54 0.3,0.57 0.08,0.01 0.34,0.01 0.43,0 0.27,-0.02 0.55,-0.15 0.74,-0.33 0.12,-0.11 0.2,-0.22 0.29,-0.36 0.08,-0.12 0.09,-0.16 0.15,-0.28 0.03,-0.05 0.05,-0.08 0.09,-0.13 0.12,-0.15 0.26,-0.2 0.27,-0.38 0.01,-0.11 -0.01,-0.33 0.02,-0.42 0.03,-0.1 0.14,-0.16 0.21,-0.22 0.08,-0.06 0.16,-0.12 0.26,-0.17 0.3,-0.17 0.3,-0.28 0.29,-0.57 -0,-0.11 -0.03,-0.28 -0.05,-0.38 -0.03,-0.12 -0.06,-0.25 -0.2,-0.22zm-4.1 -5.94c-0.34,0.04 -0.63,0.2 -0.99,0.21 -0.21,0 -0.33,0.01 -0.5,0.1 -0.1,0.06 -0.22,0.21 -0.29,0.32 -0.11,0.18 -0.08,0.18 -0.27,0.33 -0.11,0.08 -0.25,0.15 -0.38,0.22 -0.25,0.14 -0.48,0.41 -0.5,0.71 -0.01,0.17 0.05,0.4 0,0.55 -0.07,0.21 -0.34,0.43 -0.05,0.9 0.06,0.09 0.18,0.32 0.29,0.32 0.06,-0 0.14,-0.09 0.18,-0.12 0.62,-0.52 1.56,-1.23 2.3,-1.6 0.27,-0.14 0.52,-0.27 0.8,-0.4 0.57,-0.26 1.14,-0.47 1.74,-0.67 0.06,-0.02 0.19,-0.04 0.2,-0.1 0.01,-0.07 -0.13,-0.09 -0.19,-0.11 -0.14,-0.04 -0.33,-0.11 -0.5,-0.09 -0.27,0.04 -0.12,0.41 -0.57,0.18 -0.06,-0.03 -0.13,-0.07 -0.2,-0.1 -0.25,-0.13 -0.59,-0.1 -0.47,-0.38 0.09,-0.22 -0.14,-0.25 -0.3,-0.25 -0.09,-0 -0.21,-0.01 -0.3,0zm5.42 3.33c-0.22,0.02 -0.29,0.08 -0.47,0.12 -0.12,0.03 -0.15,-0.03 -0.21,-0.08 -0.08,-0.06 -0.15,-0.03 -0.24,-0.01 -0.17,0.03 -0.34,0.06 -0.51,0.09 -1.09,0.24 -2.29,0.67 -3.21,1.28 -0.06,0.04 -0.11,0.08 -0.18,0.12 -0.12,0.08 -0.33,0.16 -0.31,0.28 0.03,0.15 0.27,0.14 0.44,0.75 0.04,0.12 0.09,0.39 0.06,0.52 -0.02,0.09 -0.11,0.24 -0.17,0.43 -0.04,0.14 -0.07,0.44 0.18,0.22 0.28,-0.22 0.56,-0.45 0.87,-0.63 0.29,-0.17 0.67,-0.4 0.97,-0.53 0.15,-0.06 0.25,-0.12 0.42,-0.18 0.32,-0.13 0.8,-0.28 1.14,-0.36 0.16,-0.04 0.23,-0.16 0.32,-0.28 0.05,-0.06 0.09,-0.11 0.14,-0.16 0.31,-0.34 0.9,-0.91 1.04,-1.36 0.08,-0.25 -0.07,-0.28 -0.29,-0.26z"/>
 </g>
</svg>
