<?xml version="1.0" encoding="UTF-8"?>
<!DOCTYPE svg PUBLIC "-//W3C//DTD SVG 1.1//EN" "http://www.w3.org/Graphics/SVG/1.1/DTD/svg11.dtd">
<!-- Creator: CorelDRAW 2021 (64-Bit) -->
<svg xmlns="http://www.w3.org/2000/svg" xml:space="preserve" width="0.940224in" height="1in" version="1.1" style="shape-rendering:geometricPrecision; text-rendering:geometricPrecision; image-rendering:optimizeQuality; fill-rule:evenodd; clip-rule:evenodd"
viewBox="0 0 95.01 101.05"
 xmlns:xlink="http://www.w3.org/1999/xlink"
 xmlns:xodm="http://www.corel.com/coreldraw/odm/2003">
 <defs>
  <style type="text/css">
   <![CDATA[
    .fil0 {fill:white}
   ]]>
  </style>
 </defs>
 <g id="Layer_x0020_1">
  <metadata id="CorelCorpID_0Corel-Layer"/>
  <path class="fil0" d="M66.61 12.73c-4,0.86 -4.34,1.09 -7.76,2.2 -5.86,1.89 -11.17,3.83 -16.87,6.43 -10.73,4.9 -23.56,12.68 -32.19,21.13 -0.59,0.62 -1.06,1.23 -0.17,2.15 0.61,0.64 1.24,0.9 2.45,0.93 2.59,0.07 9.13,-0.89 11.78,-1.6 1.8,-0.48 3.71,-1.18 5.5,-0.12 2,1.19 1.91,1.62 4.56,2.08 1.34,0.24 1.36,0.44 2.35,0.94 1.03,0.52 1.76,-0.07 2.5,-0.5 0.68,-0.4 1.39,-0.78 2.1,-1.19 8.33,-4.81 23.83,-11.74 33.47,-13.12 1.11,-0.16 1.8,-0.32 2.82,-0.55 0.8,-0.18 2.13,-0.32 1.89,-1.35 -0.11,-0.47 -0.93,-1.27 -1.43,-1.93 -1.34,-1.78 -8.23,-16.11 -11.01,-15.51zm10.88 51.1c-1.95,0.34 -5.17,1.58 -7.12,2.21 -2.1,0.68 -7.5,3.12 -9.68,4.26 -5.77,3.01 -11.6,6.97 -16.59,11.28 -1.19,1.03 -1.19,1.5 -0.65,3.28 0.97,3.19 0.44,3.48 2.25,7.04 0.52,1.02 1.08,2.06 1.66,2.98 2.66,4.18 1.09,5.75 3.21,6.08 0.9,0.14 3.61,0.1 4.58,0.03 2.89,-0.21 5.93,-1.66 7.99,-3.59 1.24,-1.17 2.15,-2.37 3.09,-3.91 0.82,-1.34 0.96,-1.7 1.66,-2.98 0.31,-0.56 0.58,-0.9 0.94,-1.35 1.32,-1.61 2.75,-2.13 2.88,-4.1 0.08,-1.17 -0.14,-3.55 0.19,-4.48 0.37,-1.03 1.55,-1.75 2.29,-2.35 0.87,-0.7 1.72,-1.24 2.8,-1.84 3.2,-1.79 3.2,-2.97 3.17,-6.12 -0.01,-1.21 -0.3,-2.98 -0.56,-4.08 -0.29,-1.24 -0.59,-2.64 -2.13,-2.37zm-44.04 -63.76c-3.67,0.42 -6.8,2.16 -10.64,2.24 -2.28,0.05 -3.57,0.06 -5.35,1.08 -1.09,0.62 -2.39,2.28 -3.1,3.4 -1.22,1.9 -0.86,1.93 -2.94,3.49 -1.21,0.91 -2.67,1.57 -4.12,2.38 -2.66,1.47 -5.12,4.39 -5.37,7.58 -0.14,1.85 0.52,4.33 0.04,5.89 -0.7,2.28 -3.65,4.6 -0.54,9.66 0.61,1 1.9,3.43 3.09,3.39 0.65,-0.02 1.55,-0.97 1.93,-1.28 6.7,-5.61 16.73,-13.23 24.73,-17.23 2.91,-1.45 5.64,-2.93 8.63,-4.31 6.15,-2.82 12.23,-5.09 18.68,-7.19 0.63,-0.2 2.08,-0.47 2.15,-1.08 0.08,-0.7 -1.45,-1.02 -2.02,-1.19 -1.54,-0.46 -3.54,-1.19 -5.35,-0.95 -2.91,0.4 -1.32,4.4 -6.18,1.89 -0.7,-0.36 -1.39,-0.7 -2.14,-1.07 -2.71,-1.35 -6.3,-1.11 -5.04,-4.1 1.01,-2.39 -1.45,-2.65 -3.22,-2.65 -0.99,-0 -2.28,-0.06 -3.22,0.04zm58.22 35.75c-2.38,0.26 -3.14,0.86 -5.07,1.34 -1.33,0.33 -1.58,-0.29 -2.22,-0.81 -0.81,-0.66 -1.61,-0.31 -2.56,-0.11 -1.82,0.37 -3.66,0.61 -5.43,1 -11.68,2.56 -24.58,7.18 -34.51,13.72 -0.68,0.45 -1.2,0.88 -1.89,1.33 -1.32,0.85 -3.56,1.72 -3.34,2.99 0.28,1.57 2.88,1.53 4.78,8.08 0.39,1.33 0.95,4.15 0.66,5.61 -0.18,0.95 -1.22,2.56 -1.78,4.65 -0.42,1.53 -0.73,4.67 1.9,2.41 3,-2.4 6.02,-4.79 9.33,-6.75 3.07,-1.82 7.24,-4.28 10.44,-5.64 1.6,-0.68 2.73,-1.27 4.47,-1.96 3.45,-1.37 8.56,-2.99 12.22,-3.86 1.73,-0.41 2.47,-1.71 3.46,-2.98 0.49,-0.63 0.98,-1.18 1.49,-1.73 3.38,-3.62 9.66,-9.8 11.17,-14.56 0.85,-2.69 -0.77,-3 -3.12,-2.74z"/>
 </g>
</svg>
