<?xml version="1.0" encoding="UTF-8"?>
<!DOCTYPE svg PUBLIC "-//W3C//DTD SVG 1.1//EN" "http://www.w3.org/Graphics/SVG/1.1/DTD/svg11.dtd">
<!-- Creator: CorelDRAW 2021 (64-Bit) -->
<svg xmlns="http://www.w3.org/2000/svg" xml:space="preserve" width="0.64in" height="0.64in" version="1.1" shape-rendering="geometricPrecision" text-rendering="geometricPrecision" image-rendering="optimizeQuality" fill-rule="evenodd" clip-rule="evenodd"
viewBox="0 0 43.49 43.49"
 xmlns:xlink="http://www.w3.org/1999/xlink"
 xmlns:xodm="http://www.corel.com/coreldraw/odm/2003">
 <g id="Layer_x0020_1">
  <metadata id="CorelCorpID_0Corel-Layer"/>
  <g id="_2429306663136">
   <g id="_2007808816160">
    <path fill="black" d="M8.08 0l27.34 0c4.46,0 8.08,3.62 8.08,8.08l0 27.34c0,4.46 -3.62,8.08 -8.08,8.08l-27.34 0c-4.46,-0 -8.08,-3.62 -8.08,-8.08l-0 -27.34c0,-4.46 3.62,-8.08 8.08,-8.08z"/>
    <path fill="white" d="M26.1 12.84c-1.04,0.21 -1.04,0.21 -1.86,0.41 -1.45,0.41 -2.69,0.83 -3.94,1.45 -2.49,1.24 -5.59,2.9 -7.46,4.97 -0.21,0.21 -0.21,0.21 0,0.41 0.21,0.21 0.21,0.21 0.62,0.21 0.62,0 2.07,-0.21 2.69,-0.41 0.41,-0.21 0.83,-0.21 1.24,0 0.41,0.21 0.41,0.41 1.04,0.41 0.41,0 0.41,0.21 0.62,0.21 0.21,0.21 0.41,0 0.62,-0.21 0.21,0 0.41,-0.21 0.41,-0.21 1.86,-1.04 5.59,-2.69 7.87,-3.11 0.21,0 0.41,0 0.62,-0.21 0.21,0 0.41,0 0.41,-0.41 0,-0.21 -0.21,-0.21 -0.41,-0.41 -0.41,-0.41 -1.86,-3.73 -2.49,-3.73l0 0.62zm2.49 12.01c-0.41,0 -1.24,0.41 -1.66,0.41 -0.41,0.21 -1.66,0.83 -2.28,1.04 -1.45,0.62 -2.69,1.66 -3.94,2.69 -0.21,0.21 -0.21,0.41 -0.21,0.83 0.21,0.83 0.21,0.83 0.62,1.66 0.21,0.21 0.21,0.41 0.41,0.62 0.62,1.04 0.21,1.45 0.83,1.45 0.21,0 0.83,0 1.04,0 0.62,0 1.45,-0.41 1.86,-0.83 0.21,-0.21 0.41,-0.62 0.83,-0.83 0.21,-0.41 0.21,-0.41 0.41,-0.62 0,-0.21 0.21,-0.21 0.21,-0.41 0.21,-0.41 0.62,-0.41 0.62,-1.04 0,-0.21 0,-0.83 0,-1.04 0,-0.21 0.41,-0.41 0.62,-0.62 0.21,-0.21 0.41,-0.21 0.62,-0.41 0.83,-0.41 0.83,-0.62 0.83,-1.45 0,-0.21 0,-0.62 -0.21,-1.04 0,-0.21 -0.21,-0.62 -0.41,-0.62l-0.21 0.21zm-10.36 -14.91c-0.83,0 -1.66,0.41 -2.49,0.62 -0.62,0 -0.83,0 -1.24,0.21 -0.21,0.21 -0.62,0.62 -0.83,0.83 -0.21,0.41 -0.21,0.41 -0.62,0.83 -0.21,0.21 -0.62,0.41 -1.04,0.62 -0.62,0.41 -1.24,1.04 -1.24,1.86 0,0.41 0.21,1.04 0,1.45 -0.21,0.62 -0.83,1.04 -0.21,2.28 0.21,0.21 0.41,0.83 0.83,0.83 0.21,0 0.41,-0.21 0.41,-0.21 1.66,-1.24 3.94,-3.11 5.8,-4.14 0.62,-0.41 1.24,-0.62 2.07,-1.04 1.45,-0.62 2.9,-1.24 4.35,-1.66 0.21,0 0.41,-0.21 0.41,-0.21 0,-0.21 -0.41,-0.21 -0.41,-0.21 -0.41,-0.21 -0.83,-0.21 -1.24,-0.21 -0.62,0 -0.41,1.04 -1.45,0.41 -0.21,0 -0.41,-0.21 -0.41,-0.21 -0.62,-0.41 -1.45,-0.21 -1.24,-1.04 0.21,-0.62 -0.41,-0.62 -0.83,-0.62 -0.21,0 -0.62,0 -0.83,0l0.21 -0.41zm13.67 8.28c-0.62,0 -0.83,0.21 -1.24,0.41 -0.41,0 -0.41,0 -0.62,-0.21 -0.21,-0.21 -0.41,0 -0.62,0 -0.41,0 -0.83,0.21 -1.24,0.21 -2.69,0.62 -5.8,1.66 -8.08,3.31 -0.21,0.21 -0.21,0.21 -0.41,0.41 -0.21,0.21 -0.83,0.41 -0.83,0.62 0,0.41 0.62,0.41 1.04,1.86 0,0.41 0.21,1.04 0.21,1.24 0,0.21 -0.21,0.62 -0.41,1.04 0,0.41 -0.21,1.04 0.41,0.62 0.62,-0.62 1.45,-1.04 2.28,-1.66 0.62,-0.41 1.66,-1.04 2.49,-1.24 0.41,-0.21 0.62,-0.21 1.04,-0.41 0.83,-0.41 2.07,-0.62 2.9,-0.83 0.41,0 0.62,-0.41 0.83,-0.62 0.21,-0.21 0.21,-0.21 0.41,-0.41 0.83,-0.83 2.28,-2.28 2.69,-3.31 0.21,-0.62 -0.21,-0.62 -0.83,-0.62l0 -0.41z"/>
   </g>
  </g>
 </g>
</svg>
