<svg width="136" height="20" viewBox="0 0 136 20" fill="none" xmlns="http://www.w3.org/2000/svg">
<path fill-rule="evenodd" clip-rule="evenodd" d="M17.3804 7.6114C17.5201 7.55396 17.6699 7.52482 17.821 7.52565L17.8021 7.49427C18.1068 7.49427 18.399 7.61529 18.6144 7.83071C18.8298 8.04614 18.9508 8.33831 18.9508 8.64297C18.9508 8.94762 18.8298 9.2398 18.6144 9.45522C18.399 9.67064 18.1068 9.79167 17.8021 9.79167C17.7332 9.79843 17.6639 9.79843 17.595 9.79167L16.735 14.2421H2.33547L1.45668 9.74773C1.19811 9.82171 0.92172 9.80209 0.676185 9.69233C0.430651 9.58257 0.231715 9.3897 0.114404 9.14768C-0.00290745 8.90566 -0.0310707 8.63001 0.0348727 8.36927C0.100816 8.10853 0.256638 7.87941 0.474901 7.72226C0.693165 7.56511 0.959874 7.49001 1.22807 7.51017C1.49626 7.53033 1.74875 7.64447 1.94106 7.83249C2.13337 8.0205 2.25319 8.27034 2.27941 8.53801C2.30562 8.80568 2.23656 9.07402 2.08439 9.29578L4.30019 11.8066L4.48222 11.9698L4.41317 6.6908C4.14528 6.68015 3.88967 6.57561 3.69108 6.3955C3.4925 6.21538 3.36358 5.97116 3.3269 5.70557C3.29022 5.43999 3.34812 5.16997 3.49046 4.94277C3.63279 4.71557 3.8505 4.54567 4.10548 4.4628C4.36045 4.37993 4.63645 4.38938 4.88516 4.48949C5.13387 4.5896 5.33945 4.77399 5.46592 5.01039C5.59239 5.24679 5.63168 5.52014 5.57693 5.7826C5.52217 6.04505 5.37686 6.27988 5.16642 6.446L7.45127 10.2938L9.19629 4.73236C8.9394 4.646 8.72159 4.47112 8.58175 4.23896C8.44191 4.00681 8.38916 3.73251 8.43292 3.46505C8.47668 3.19759 8.6141 2.9544 8.82062 2.77891C9.02715 2.60343 9.28934 2.50708 9.56036 2.50708C9.83137 2.50708 10.0936 2.60343 10.3001 2.77891C10.5066 2.9544 10.644 3.19759 10.6878 3.46505C10.7315 3.73251 10.6788 4.00681 10.539 4.23896C10.3991 4.47112 10.1813 4.646 9.92442 4.73236L11.9268 10.2813L13.9417 6.51505C13.7105 6.3782 13.5349 6.16423 13.4458 5.91075C13.3567 5.65727 13.3598 5.38049 13.4545 5.12907C13.5493 4.87764 13.7296 4.66765 13.9638 4.536C14.1981 4.40435 14.4712 4.35948 14.7352 4.40925C14.9993 4.45903 15.2373 4.60028 15.4075 4.80817C15.5777 5.01606 15.6692 5.2773 15.6659 5.54596C15.6626 5.81463 15.5647 6.07353 15.3894 6.27717C15.2142 6.48081 14.9727 6.61616 14.7075 6.65942L14.8645 11.9573L16.9673 9.40877C16.7826 9.20816 16.6777 8.94695 16.6723 8.67435C16.6714 8.52327 16.7006 8.37352 16.758 8.23378C16.8154 8.09404 16.9 7.96708 17.0068 7.86024C17.1137 7.75341 17.2406 7.66883 17.3804 7.6114ZM4.22756 15.5347H14.7236C15.75 15.5347 16.5821 16.3668 16.5821 17.3933C16.5821 17.6751 16.3537 17.9036 16.0718 17.9036H2.87929C2.59747 17.9036 2.369 17.6751 2.369 17.3933C2.369 16.3668 3.20111 15.5347 4.22756 15.5347Z" fill="white"/>
<path d="M20.1387 19.0302L22.6814 2.18726H26.5154L29.5547 11.1895L32.7728 2.18726H36.6465L38.9111 19.0302H35.0176L33.925 9.33546H33.8853L30.2897 19.0302H28.7402L25.3036 9.33546H25.2639L24.0124 19.0302H20.1387Z" fill="white"/>
<path d="M51.6327 7.57075V19.0302H48.0172V17.7569H47.9775C47.6862 18.2931 47.2889 18.6951 46.7856 18.9632C46.2824 19.2164 45.7593 19.3578 45.2163 19.3876C45.1633 19.4025 45.1103 19.41 45.0574 19.41C45.0044 19.41 44.9514 19.41 44.8984 19.41C43.3887 19.41 42.1504 18.8068 41.1837 17.6006C40.2301 16.3794 39.7534 14.9498 39.7534 13.3117C39.7534 11.6735 40.2235 10.2513 41.1638 9.04506C42.1173 7.82391 43.349 7.21334 44.8587 7.21334C44.9249 7.21334 44.9911 7.21334 45.0574 7.21334C45.1236 7.21334 45.1898 7.22078 45.256 7.23568C45.7725 7.28035 46.2757 7.42927 46.7657 7.68244C47.269 7.92071 47.6862 8.26323 48.0172 8.70999V7.57075H51.6327ZM45.8122 10.7204C45.0838 10.7353 44.5144 11.0034 44.1038 11.5246C43.6933 12.0309 43.488 12.6341 43.488 13.334C43.488 14.0637 43.6933 14.6743 44.1038 15.1657C44.5144 15.6572 45.0838 15.9029 45.8122 15.9029C46.5539 15.9029 47.1233 15.6572 47.5206 15.1657C47.9312 14.6743 48.1364 14.0637 48.1364 13.334C48.1364 12.6341 47.9312 12.0309 47.5206 11.5246C47.1233 11.0034 46.5539 10.7428 45.8122 10.7428V10.7204Z" fill="white"/>
<path d="M61.3793 7.86114V11.3012C61.1144 11.0927 60.8231 10.914 60.5052 10.7651C60.1874 10.6013 59.8563 10.5194 59.512 10.5194C58.8233 10.5194 58.234 10.7874 57.744 11.3236C57.2672 11.8597 57.0288 12.5224 57.0288 13.3117C57.0288 14.1307 57.2672 14.8083 57.744 15.3444C58.2207 15.8656 58.8299 16.1263 59.5716 16.1263C59.6378 16.1263 59.704 16.1263 59.7702 16.1263C59.8497 16.1114 59.9225 16.0965 59.9887 16.0816C60.2403 16.0369 60.4853 15.955 60.7237 15.8359C60.9753 15.7018 61.1939 15.538 61.3793 15.3444V18.7622C60.982 18.9855 60.5648 19.1494 60.1278 19.2536C59.704 19.3578 59.2736 19.41 58.8365 19.41C57.3268 19.41 56.0223 18.8515 54.9231 17.7346C53.8372 16.6028 53.2942 15.1732 53.2942 13.4457C53.2942 11.5991 53.8438 10.1024 54.943 8.95571C56.0422 7.79413 57.393 7.21334 58.9955 7.21334C59.4193 7.21334 59.8298 7.2729 60.2271 7.39204C60.6376 7.49629 61.0217 7.6601 61.3793 7.88348V7.86114Z" fill="white"/>
<path d="M74.7762 7.57075V19.0302H71.1608V17.7569H71.1211C70.8297 18.2931 70.4324 18.6951 69.9292 18.9632C69.4259 19.2164 68.9028 19.3578 68.3598 19.3876C68.3069 19.4025 68.2539 19.41 68.2009 19.41C68.1479 19.41 68.095 19.41 68.042 19.41C66.5322 19.41 65.294 18.8068 64.3272 17.6006C63.3737 16.3794 62.8969 14.9498 62.8969 13.3117C62.8969 11.6735 63.3671 10.2513 64.3074 9.04506C65.2609 7.82391 66.4925 7.21334 68.0023 7.21334C68.0685 7.21334 68.1347 7.21334 68.2009 7.21334C68.2671 7.21334 68.3333 7.22078 68.3996 7.23568C68.916 7.28035 69.4193 7.42927 69.9093 7.68244C70.4125 7.92071 70.8297 8.26323 71.1608 8.70999V7.57075H74.7762ZM68.9558 10.7204C68.2274 10.7353 67.6579 11.0034 67.2474 11.5246C66.8368 12.0309 66.6316 12.6341 66.6316 13.334C66.6316 14.0637 66.8368 14.6743 67.2474 15.1657C67.6579 15.6572 68.2274 15.9029 68.9558 15.9029C69.6974 15.9029 70.2669 15.6572 70.6642 15.1657C71.0747 14.6743 71.28 14.0637 71.28 13.334C71.28 12.6341 71.0747 12.0309 70.6642 11.5246C70.2669 11.0034 69.6974 10.7428 68.9558 10.7428V10.7204Z" fill="white"/>
<path d="M77.0029 19.0243V2.30798H80.8785L87.977 12.5284H88.0165V2.30798H91.8921V19.0243H88.0165L80.918 8.78165H80.8785V19.0243H77.0029Z" fill="white"/>
<path d="M105.434 7.65098V19.0243H101.835V17.7606H101.796C101.506 18.2926 101.11 18.6917 100.609 18.9577C100.108 19.209 99.5876 19.3494 99.0471 19.379C98.9944 19.3938 98.9417 19.4011 98.889 19.4011C98.8362 19.4011 98.7835 19.4011 98.7308 19.4011C97.228 19.4011 95.9955 18.8026 95.0332 17.6054C94.0841 16.3934 93.6095 14.9745 93.6095 13.3487C93.6095 11.7229 94.0775 10.3114 95.0134 9.11421C95.9625 7.90224 97.1885 7.29626 98.6912 7.29626C98.7571 7.29626 98.823 7.29626 98.889 7.29626C98.9549 7.29626 99.0208 7.30365 99.0867 7.31843C99.6008 7.36277 100.102 7.51057 100.589 7.76183C101.09 7.99831 101.506 8.33825 101.835 8.78165V7.65098H105.434ZM99.6403 10.777C98.9153 10.7917 98.3485 11.0578 97.9398 11.5751C97.5312 12.0776 97.3269 12.6762 97.3269 13.3709C97.3269 14.0951 97.5312 14.7011 97.9398 15.1888C98.3485 15.6766 98.9153 15.9204 99.6403 15.9204C100.379 15.9204 100.945 15.6766 101.341 15.1888C101.749 14.7011 101.954 14.0951 101.954 13.3709C101.954 12.6762 101.749 12.0776 101.341 11.5751C100.945 11.0578 100.379 10.7991 99.6403 10.7991V10.777Z" fill="white"/>
<path d="M115.135 7.93919V11.3534C114.872 11.1465 114.582 10.9691 114.265 10.8213C113.949 10.6587 113.619 10.5774 113.277 10.5774C112.591 10.5774 112.005 10.8435 111.517 11.3756C111.042 11.9076 110.805 12.5654 110.805 13.3487C110.805 14.1616 111.042 14.8341 111.517 15.3662C111.991 15.8835 112.598 16.1421 113.336 16.1421C113.402 16.1421 113.468 16.1421 113.534 16.1421C113.613 16.1274 113.685 16.1126 113.751 16.0978C114.002 16.0535 114.246 15.9722 114.483 15.8539C114.733 15.7209 114.951 15.5583 115.135 15.3662V18.7582C114.74 18.9799 114.325 19.1425 113.89 19.246C113.468 19.3494 113.039 19.4011 112.604 19.4011C111.102 19.4011 109.803 18.8469 108.709 17.7384C107.628 16.6151 107.088 15.1962 107.088 13.4817C107.088 11.649 107.635 10.1636 108.729 9.02553C109.823 7.87268 111.168 7.29626 112.763 7.29626C113.184 7.29626 113.593 7.35538 113.988 7.47362C114.397 7.57708 114.779 7.73966 115.135 7.96136V7.93919Z" fill="white"/>
<path d="M120.976 0.623047V11.7525L124.713 7.65098H129.637L124.555 12.9053L129.953 19.0243H124.911L120.976 14.3907V19.0243H117.378V0.623047H120.976Z" fill="white"/>
<path d="M134.59 7.65098V19.0243H130.991V7.65098H134.59ZM132.79 1.02211C133.344 1.03689 133.818 1.26598 134.214 1.70938C134.609 2.15279 134.807 2.68487 134.807 3.30563C134.807 3.9264 134.609 4.45848 134.214 4.90188C133.818 5.34528 133.344 5.56699 132.79 5.56699C132.237 5.56699 131.762 5.34528 131.367 4.90188C130.971 4.45848 130.773 3.9264 130.773 3.30563C130.773 2.68487 130.971 2.15279 131.367 1.70938C131.762 1.26598 132.237 1.04428 132.79 1.04428V1.02211Z" fill="white"/>
</svg>
