<svg width="20" height="20" viewBox="0 0 20 20" fill="none" xmlns="http://www.w3.org/2000/svg">
<path d="M16.6502 7.32493V10.6583C16.6502 10.8749 16.6418 11.0833 16.6168 11.2833C16.4252 13.5333 15.1002 14.6499 12.6585 14.6499H12.3252C12.1168 14.6499 11.9168 14.7499 11.7918 14.9166L10.7918 16.2499C10.3502 16.8416 9.6335 16.8416 9.19183 16.2499L8.19182 14.9166C8.08349 14.7749 7.84183 14.6499 7.6585 14.6499H7.32517C4.66684 14.6499 3.3335 13.9916 3.3335 10.6583V7.32493C3.3335 4.88326 4.4585 3.55826 6.70017 3.36659C6.90017 3.34159 7.1085 3.33325 7.32517 3.33325H12.6585C15.3168 3.33325 16.6502 4.66659 16.6502 7.32493Z" stroke="#FFC1D6" stroke-width="1.5" stroke-miterlimit="10" stroke-linecap="round" stroke-linejoin="round"/>
<path d="M12.9129 9.58341H12.9204" stroke="#FFC1D6" stroke-width="2" stroke-linecap="round" stroke-linejoin="round"/>
<path d="M9.99592 9.58341H10.0034" stroke="#FFC1D6" stroke-width="2" stroke-linecap="round" stroke-linejoin="round"/>
<path d="M7.07942 9.58341H7.08692" stroke="#FFC1D6" stroke-width="2" stroke-linecap="round" stroke-linejoin="round"/>
</svg>
