<svg width="37" height="38" viewBox="0 0 37 38" fill="none" xmlns="http://www.w3.org/2000/svg">
<path d="M7.75002 15.75C6.06073 15.75 4.67859 17.1321 4.67859 18.8214C4.67859 20.5107 6.06073 21.8929 7.75002 21.8929C9.4393 21.8929 10.8214 20.5107 10.8214 18.8214C10.8214 17.1321 9.4393 15.75 7.75002 15.75Z" fill="white"/>
<path d="M29.25 15.75C27.5607 15.75 26.1786 17.1321 26.1786 18.8214C26.1786 20.5107 27.5607 21.8929 29.25 21.8929C30.9393 21.8929 32.3214 20.5107 32.3214 18.8214C32.3214 17.1321 30.9393 15.75 29.25 15.75Z" fill="white"/>
<path d="M18.5 15.75C16.8107 15.75 15.4286 17.1321 15.4286 18.8214C15.4286 20.5107 16.8107 21.8929 18.5 21.8929C20.1893 21.8929 21.5714 20.5107 21.5714 18.8214C21.5714 17.1321 20.1893 15.75 18.5 15.75Z" fill="white"/>
</svg>
