<svg width="24" height="24" viewBox="0 0 24 24" fill="none" xmlns="http://www.w3.org/2000/svg">
<path d="M16 2H8C4 2 2 4 2 8V21C2 21.55 2.45 22 3 22H16C20 22 22 20 22 16V8C22 4 20 2 16 2Z" stroke="#222222" stroke-width="1.5" stroke-linecap="round" stroke-linejoin="round"/>
<path d="M12.9098 7.83991L7.71979 13.0299C7.51979 13.2299 7.3298 13.6199 7.2898 13.8999L7.0098 15.8799C6.9098 16.5999 7.40979 17.0999 8.12979 16.9999L10.1098 16.7199C10.3898 16.6799 10.7798 16.4899 10.9798 16.2899L16.1698 11.0999C17.0598 10.2099 17.4898 9.16991 16.1698 7.84991C14.8498 6.51991 13.8098 6.93991 12.9098 7.83991Z" stroke="#222222" stroke-width="1.5" stroke-miterlimit="10" stroke-linecap="round" stroke-linejoin="round"/>
<path d="M12.1699 8.57983C12.6099 10.1498 13.8399 11.3898 15.4199 11.8298" stroke="#222222" stroke-width="1.5" stroke-miterlimit="10" stroke-linecap="round" stroke-linejoin="round"/>
</svg>
