<svg width="35" height="32" viewBox="0 0 35 32" fill="none" xmlns="http://www.w3.org/2000/svg">
<g filter="url(#filter0_d_2895_2361)">
<path d="M16.6997 3.60608L17.5 4.67441L18.3003 3.60608C19.4837 2.02638 21.3798 1 23.494 1C27.0828 1 30 3.91939 30 7.53652C30 9.03199 29.7613 10.4112 29.3467 11.6909L29.3467 11.6909L29.3446 11.6974C29.0468 12.6386 28.2606 13.8416 27.1218 15.1638C26.0018 16.4643 24.6124 17.7989 23.2129 19.0002C21.814 20.201 20.4246 21.2517 19.3139 21.9878C18.7565 22.3572 18.2864 22.636 17.9306 22.8142C17.7516 22.9038 17.6208 22.9582 17.5346 22.9869C17.5259 22.9898 17.5182 22.9923 17.5114 22.9944L17.5 22.9932L17.4886 22.9944C17.4818 22.9923 17.4741 22.9898 17.4654 22.9869C17.3792 22.9582 17.2484 22.9038 17.0694 22.8142C16.7136 22.636 16.2435 22.3572 15.6861 21.9878C14.5754 21.2517 13.186 20.201 11.7871 19.0002C10.3876 17.7989 8.99825 16.4643 7.87817 15.1638C6.7394 13.8416 5.95323 12.6386 5.65541 11.6974L5.65543 11.6974L5.65332 11.6909C5.23873 10.4112 5 9.03199 5 7.53652C5 3.91939 7.91721 1 11.506 1C13.6202 1 15.5163 2.02638 16.6997 3.60608ZM17.4757 23.0042C17.4718 23.005 17.47 23.0053 17.47 23.0053C17.47 23.0052 17.472 23.0048 17.4757 23.0042ZM17.5244 23.0042C17.528 23.0048 17.53 23.0052 17.53 23.0053C17.53 23.0053 17.5282 23.005 17.5244 23.0042Z" stroke="white" stroke-width="2" shape-rendering="crispEdges"/>
</g>
<defs>
<filter id="filter0_d_2895_2361" x="0" y="0" width="35" height="32" filterUnits="userSpaceOnUse" color-interpolation-filters="sRGB">
<feFlood flood-opacity="0" result="BackgroundImageFix"/>
<feColorMatrix in="SourceAlpha" type="matrix" values="0 0 0 0 0 0 0 0 0 0 0 0 0 0 0 0 0 0 127 0" result="hardAlpha"/>
<feOffset dy="4"/>
<feGaussianBlur stdDeviation="2"/>
<feComposite in2="hardAlpha" operator="out"/>
<feColorMatrix type="matrix" values="0 0 0 0 0 0 0 0 0 0 0 0 0 0 0 0 0 0 0.25 0"/>
<feBlend mode="normal" in2="BackgroundImageFix" result="effect1_dropShadow_2895_2361"/>
<feBlend mode="normal" in="SourceGraphic" in2="effect1_dropShadow_2895_2361" result="shape"/>
</filter>
</defs>
</svg>
