<svg width="27" height="27" viewBox="0 0 27 27" fill="none" xmlns="http://www.w3.org/2000/svg">
<path d="M21.7576 16.301L20.6326 14.4335C20.3963 14.0173 20.1826 13.2298 20.1826 12.7685V9.92226C20.1826 7.27851 18.6301 4.99476 16.3913 3.92601C15.8063 2.89101 14.7263 2.24976 13.4888 2.24976C12.2626 2.24976 11.1601 2.91351 10.5751 3.95976C8.38131 5.05101 6.86256 7.31226 6.86256 9.92226V12.7685C6.86256 13.2298 6.64881 14.0173 6.41256 14.4223L5.27631 16.301C4.82631 17.0548 4.72506 17.8873 5.00631 18.6523C5.27631 19.406 5.91756 19.991 6.75006 20.2723C8.93256 21.0148 11.2276 21.3748 13.5226 21.3748C15.8176 21.3748 18.1126 21.0148 20.2951 20.2835C21.0826 20.0248 21.6901 19.4285 21.9826 18.6523C22.2751 17.876 22.1963 17.021 21.7576 16.301Z" fill="#828282"/>
<path d="M16.6838 22.511C16.2113 23.816 14.9625 24.7498 13.5 24.7498C12.6113 24.7498 11.7338 24.3898 11.115 23.7485C10.755 23.411 10.485 22.961 10.3275 22.4998C10.4738 22.5223 10.62 22.5335 10.7775 22.556C11.0363 22.5898 11.3063 22.6235 11.5763 22.646C12.2175 22.7023 12.87 22.736 13.5225 22.736C14.1638 22.736 14.805 22.7023 15.435 22.646C15.6713 22.6235 15.9075 22.6123 16.1325 22.5785C16.3125 22.556 16.4925 22.5335 16.6838 22.511Z" fill="#828282"/>
</svg>
