<svg width="18" height="18" viewBox="0 0 18 18" fill="none" xmlns="http://www.w3.org/2000/svg">
<path d="M8.44443 6.83147C8.60888 6.94135 8.80222 7 9 7C9.26522 7 9.51957 6.89464 9.70711 6.70711C9.89464 6.51957 10 6.26522 10 6C10 5.80222 9.94135 5.60888 9.83147 5.44443C9.72159 5.27998 9.56541 5.15181 9.38268 5.07612C9.19996 5.00043 8.99889 4.98063 8.80491 5.01921C8.61093 5.0578 8.43275 5.15304 8.29289 5.29289C8.15304 5.43275 8.0578 5.61093 8.01922 5.80491C7.98063 5.99889 8.00043 6.19996 8.07612 6.38268C8.15181 6.56541 8.27998 6.72159 8.44443 6.83147Z" fill="#F94C84"/>
<path d="M8.29289 12.7071C8.48043 12.8946 8.73478 13 9 13C9.26522 13 9.51957 12.8946 9.70711 12.7071C9.89464 12.5196 10 12.2652 10 12V9C10 8.73478 9.89464 8.48043 9.70711 8.29289C9.51957 8.10536 9.26522 8 9 8C8.73478 8 8.48043 8.10536 8.29289 8.29289C8.10536 8.48043 8 8.73478 8 9V12C8 12.2652 8.10536 12.5196 8.29289 12.7071Z" fill="#F94C84"/>
<rect x="0.5" y="0.5" width="17" height="17" rx="8.5" stroke="#F94C84"/>
</svg>
