<svg width="53" height="57" viewBox="0 0 53 57" fill="none" xmlns="http://www.w3.org/2000/svg">
<path fill-rule="evenodd" clip-rule="evenodd" d="M0.0354042 18.2285V28.1506C0.0354042 30.2024 0.0254257 32.2707 0.0155052 34.3269C0.00964476 35.5416 0.00380456 36.7522 5.37286e-05 37.9526C-0.0100464 41.1851 1.40398 43.4829 4.14618 44.9973C10.3275 48.4161 16.5054 51.8436 22.68 55.2797C23.7456 55.9277 24.9569 56.2755 26.193 56.2883C27.4291 56.3012 28.6469 55.9786 29.7249 55.3529C31.2769 54.4917 32.8272 53.6296 34.3771 52.7678C38.9649 50.2166 43.5486 47.6678 48.1577 45.154C51.1877 43.5038 52.6169 41.0337 52.5765 37.4774C52.5395 33.2165 52.5518 28.9556 52.5642 24.6931C52.5703 22.5613 52.5765 20.4292 52.5765 18.2964C52.5765 15.1788 51.213 12.9071 48.5718 11.4345L43.0773 8.38472C42.6582 8.15128 42.2388 7.91762 41.8191 7.6838C37.7228 5.40167 33.6001 3.10485 29.4774 0.859586C28.4947 0.295816 27.3894 0 26.2656 0C25.1417 0 24.0364 0.295816 23.0537 0.859586C16.6569 4.38629 10.2601 7.94084 3.86337 11.5232C2.6693 12.1419 1.67309 13.1034 0.994141 14.2927C0.315192 15.482 -0.0176878 16.8485 0.0354042 18.2285Z" fill="#F94C84"/>
<path d="M24.66 28.68L23.9 8.48H27.82L27.04 28.68H24.66ZM25.82 36.48C25.34 36.48 24.8933 36.36 24.48 36.12C24.08 35.88 23.7533 35.56 23.5 35.16C23.26 34.7467 23.14 34.2933 23.14 33.8C23.14 33.04 23.4 32.4 23.92 31.88C24.4533 31.3467 25.0867 31.08 25.82 31.08C26.58 31.08 27.22 31.3467 27.74 31.88C28.2733 32.4 28.54 33.04 28.54 33.8C28.54 34.5333 28.2733 35.1667 27.74 35.7C27.22 36.22 26.58 36.48 25.82 36.48Z" fill="white"/>
</svg>
