<svg width="87" height="16" viewBox="0 0 87 16" fill="none" xmlns="http://www.w3.org/2000/svg">
<path d="M12.2893 1.45337H0.719514C0.330976 1.45337 0 1.78434 0 2.18727V3.49679C0 3.89971 0.330976 4.23069 0.719514 4.23069H12.2893C12.6922 4.23069 13.0088 3.89971 13.0232 3.49679V2.20166C13.0232 1.78434 12.6922 1.45337 12.2893 1.45337ZM12.2893 8.72046H0.719514C0.53244 8.72046 0.345367 8.79241 0.215854 8.93632C0.0719514 9.08022 0 9.2529 0 9.45436V10.7639C0 11.1668 0.330976 11.4978 0.719514 11.4978H12.2893C12.6922 11.4978 13.0088 11.1812 13.0232 10.7639V9.45436C13.0088 9.03704 12.6922 8.72046 12.2893 8.72046ZM7.23831 12.3468H0.719514C0.53244 12.3468 0.345367 12.4188 0.215854 12.5627C0.0863417 12.7066 0 12.8793 0 13.0807V14.3902C0 14.7932 0.330976 15.1241 0.719514 15.1241H7.22392C7.62685 15.1241 7.94344 14.7932 7.94344 14.4046V13.0951C7.95783 12.6634 7.64124 12.3468 7.23831 12.3468ZM13.0232 5.07972H0.719514C0.53244 5.07972 0.345367 5.15167 0.215854 5.29557C0.0863417 5.43947 0 5.61216 0 5.81362V7.12314C0 7.52607 0.330976 7.85704 0.719514 7.85704H13.0088C13.4117 7.85704 13.7283 7.52607 13.7283 7.12314V5.81362C13.7427 5.42509 13.4117 5.09411 13.0232 5.07972Z" fill="#2DBDEF"/>
<path d="M26.4781 4.38904C26.1184 4.01489 25.7011 3.72708 25.2262 3.52562C24.7513 3.32416 24.2476 3.22342 23.7296 3.22342C23.2259 3.20903 22.7367 3.32416 22.2762 3.54001C21.974 3.68391 21.7006 3.88537 21.4703 4.13001V3.89977C21.4703 3.78465 21.4271 3.66952 21.3552 3.58318C21.2832 3.49684 21.1681 3.43928 21.0386 3.43928H19.4413C19.3262 3.43928 19.211 3.48245 19.1391 3.58318C19.0527 3.66952 19.0096 3.78465 19.024 3.89977V14.6637C19.024 14.7788 19.0671 14.8939 19.1391 14.9803C19.2254 15.0666 19.3262 15.1098 19.4413 15.1098H21.0818C21.1969 15.1098 21.2976 15.0666 21.384 14.9803C21.4703 14.9083 21.5279 14.7932 21.5135 14.6637V10.9798C21.7437 11.2388 22.0459 11.4259 22.3769 11.541C22.8086 11.6993 23.2547 11.7856 23.7152 11.7856C24.2332 11.7856 24.7513 11.6849 25.2262 11.4834C25.7011 11.282 26.1328 10.9942 26.4925 10.62C26.8667 10.2315 27.1545 9.771 27.3559 9.26734C27.5862 8.70612 27.6869 8.10173 27.6725 7.49734C27.6869 6.89295 27.5718 6.28855 27.3559 5.71294C27.1401 5.23806 26.8523 4.77757 26.4781 4.38904ZM25.0103 8.2888C24.924 8.51905 24.7945 8.72051 24.6218 8.90758C24.2908 9.26734 23.8159 9.4688 23.3267 9.4688C23.082 9.4688 22.8374 9.42563 22.6071 9.31051C22.3913 9.20978 22.1898 9.08027 22.0171 8.90758C21.8445 8.7349 21.7149 8.51905 21.6286 8.2888C21.4415 7.79953 21.4415 7.26709 21.6286 6.77782C21.7149 6.54758 21.8589 6.34611 22.0171 6.17343C22.1898 6.00075 22.3913 5.85684 22.6071 5.75611C22.8374 5.65538 23.082 5.59782 23.3267 5.59782C23.5857 5.59782 23.8159 5.64099 24.0606 5.75611C24.2764 5.85684 24.4779 5.98636 24.6362 6.15904C24.8089 6.33172 24.924 6.53319 25.0247 6.76343C25.1974 7.26709 25.183 7.79953 25.0103 8.2888ZM36.465 3.45367H34.8389C34.7238 3.45367 34.6086 3.49684 34.5367 3.58318C34.4503 3.66952 34.4072 3.78464 34.4072 3.91415V4.11562C34.2057 3.87099 33.9467 3.68391 33.6733 3.5544C33.2272 3.33854 32.7379 3.23781 32.2486 3.23781C31.1981 3.23781 30.2052 3.65513 29.4569 4.38904C29.0684 4.77757 28.7662 5.23806 28.5647 5.74172C28.3345 6.30294 28.2194 6.90733 28.2337 7.52612C28.2194 8.13051 28.3345 8.7349 28.5647 9.31051C28.7806 9.81417 29.0684 10.2747 29.4569 10.6632C30.1908 11.4115 31.1981 11.8288 32.2342 11.8288C32.7235 11.8432 33.2128 11.7281 33.6589 11.5122C33.9323 11.3683 34.2057 11.1813 34.4072 10.951V11.1669C34.4072 11.282 34.4503 11.3971 34.5367 11.4834C34.623 11.5554 34.7238 11.613 34.8389 11.613H36.465C36.5801 11.613 36.6952 11.5698 36.7672 11.4834C36.8535 11.3971 36.8967 11.282 36.8967 11.1669V3.92855C36.8967 3.81342 36.8535 3.6983 36.7816 3.61196C36.6952 3.51123 36.5801 3.45367 36.465 3.45367ZM34.2633 8.2888C34.1769 8.51905 34.0474 8.72051 33.8747 8.90758C33.7021 9.08027 33.515 9.22417 33.2991 9.3249C32.8386 9.54076 32.3062 9.54076 31.8457 9.3249C31.6299 9.22417 31.4284 9.08027 31.2557 8.90758C31.083 8.7349 30.9535 8.51905 30.8672 8.2888C30.6945 7.79953 30.6945 7.26709 30.8672 6.77782C30.9535 6.54758 31.083 6.3605 31.2557 6.17343C31.4284 6.00075 31.6155 5.85684 31.8457 5.75611C32.3062 5.54026 32.8386 5.54026 33.2847 5.75611C33.5006 5.85684 33.7021 5.98636 33.8603 6.15904C34.0186 6.33172 34.1482 6.53319 34.2489 6.76343C34.4503 7.26709 34.4503 7.79953 34.2633 8.2888ZM52.6684 7.31026C52.4382 7.1088 52.1648 6.93612 51.877 6.82099C51.5748 6.69148 51.2438 6.60514 50.9272 6.53319L49.6897 6.28855C49.3731 6.23099 49.1428 6.14465 49.0277 6.04392C48.927 5.97197 48.855 5.85684 48.855 5.72733C48.855 5.59782 48.927 5.4827 49.0853 5.38196C49.3011 5.26684 49.5314 5.20928 49.776 5.22367C50.0926 5.22367 50.4092 5.29562 50.697 5.41075C50.9848 5.54026 51.2582 5.66977 51.5172 5.84246C51.877 6.0727 52.1936 6.02953 52.4094 5.7705L52.9994 5.09416C53.1145 4.97904 53.1721 4.83513 53.1865 4.67684C53.1721 4.50416 53.0858 4.36026 52.9563 4.24513C52.7116 4.02928 52.3087 3.79903 51.7763 3.56879C51.2438 3.33854 50.5675 3.22342 49.776 3.22342C49.2867 3.20903 48.8118 3.28098 48.3514 3.42489C47.9628 3.5544 47.5887 3.74147 47.2577 3.98611C46.9555 4.21635 46.7253 4.50416 46.5526 4.84952C46.3943 5.1805 46.3079 5.54026 46.3079 5.90002C46.3079 6.57636 46.5094 7.12319 46.9123 7.52612C47.3153 7.92904 47.8477 8.20246 48.5097 8.33197L49.8048 8.61978C50.0782 8.66295 50.366 8.74929 50.625 8.8788C50.7689 8.93636 50.8553 9.08027 50.8553 9.23856C50.8553 9.38246 50.7833 9.51198 50.625 9.6271C50.4667 9.74222 50.2077 9.81417 49.8623 9.81417C49.517 9.81417 49.1572 9.74222 48.8406 9.58393C48.5384 9.44003 48.265 9.25295 48.006 9.0371C47.8909 8.95075 47.7757 8.8788 47.6318 8.82124C47.4879 8.77807 47.3009 8.82124 47.1138 8.97954L46.4087 9.51198C46.2072 9.65588 46.1065 9.90051 46.164 10.1308C46.2072 10.3754 46.3943 10.6056 46.754 10.8791C47.6462 11.4834 48.7111 11.8 49.7904 11.7712C50.294 11.7712 50.7977 11.7137 51.2726 11.5698C51.6899 11.4403 52.0784 11.2532 52.4238 10.9942C52.7404 10.7639 52.9994 10.4617 53.1721 10.102C53.3448 9.75661 53.4311 9.38246 53.4311 8.99393C53.4455 8.64856 53.3736 8.30319 53.2297 7.98661C53.0858 7.75636 52.8987 7.51173 52.6684 7.31026ZM59.7772 9.28173C59.7053 9.15222 59.5758 9.06588 59.4175 9.0371C59.2736 9.0371 59.1153 9.08027 59.0002 9.16661C58.7987 9.29612 58.5685 9.36807 58.3382 9.38246C58.2663 9.38246 58.1799 9.36807 58.108 9.35368C58.0216 9.33929 57.9497 9.29612 57.8921 9.23856C57.8202 9.16661 57.7626 9.08027 57.7194 8.99393C57.6619 8.85002 57.6331 8.70612 57.6475 8.56222V5.61221H59.7485C59.878 5.61221 59.9931 5.55465 60.0794 5.46831C60.1658 5.38197 60.2233 5.28123 60.2233 5.15172V3.89977C60.2233 3.77025 60.1802 3.65513 60.0794 3.58318C59.9931 3.49684 59.878 3.45367 59.7629 3.45367H57.6475V1.43903C57.6475 1.32391 57.6043 1.19439 57.518 1.12244C57.4316 1.05049 57.3309 1.00732 57.2158 0.992929H55.5753C55.4602 0.992929 55.345 1.0361 55.2587 1.12244C55.1724 1.20878 55.1148 1.32391 55.1148 1.43903V3.45367H54.1794C54.0643 3.45367 53.9492 3.49684 53.8628 3.59757C53.7909 3.68391 53.7477 3.79903 53.7477 3.91415V5.16611C53.7477 5.28123 53.7909 5.39636 53.8628 5.4827C53.9348 5.58343 54.0499 5.6266 54.1794 5.6266H55.1148V9.13783C55.1004 9.55515 55.1867 9.97246 55.3594 10.3466C55.5177 10.6632 55.7192 10.9366 55.9926 11.1669C56.2516 11.3827 56.5538 11.541 56.8848 11.6273C57.2158 11.7281 57.5611 11.7856 57.9065 11.7856C58.3526 11.7856 58.8131 11.7137 59.2448 11.5698C59.6477 11.4403 60.0075 11.21 60.2953 10.9078C60.4824 10.7208 60.4968 10.4186 60.3529 10.2027L59.7772 9.28173ZM68.6704 3.45367H67.0443C66.9292 3.45367 66.8285 3.49684 66.7421 3.58318C66.6558 3.66952 66.6126 3.78464 66.6126 3.91415V4.11562C66.4112 3.87099 66.1665 3.68391 65.8787 3.5544C65.4326 3.33854 64.9434 3.23781 64.4541 3.23781C63.4036 3.23781 62.4107 3.65513 61.6624 4.38904C61.2738 4.77757 60.9716 5.23806 60.7702 5.74172C60.5399 6.30294 60.4248 6.90733 60.4392 7.51172C60.4248 8.11612 60.5399 8.72051 60.7702 9.29612C60.9716 9.79978 61.2882 10.2603 61.6624 10.6488C62.3963 11.3971 63.3892 11.8144 64.4397 11.8144C64.929 11.8288 65.4182 11.7137 65.8643 11.5122C66.1521 11.3683 66.4112 11.1813 66.6126 10.951V11.1669C66.6126 11.282 66.6558 11.3971 66.7421 11.4691C66.8285 11.5554 66.9292 11.5986 67.0443 11.5986H68.6704C68.9151 11.5986 69.1021 11.4115 69.1021 11.1669V3.92855C69.1021 3.81342 69.059 3.6983 68.987 3.61196C68.9151 3.51123 68.8 3.45367 68.6704 3.45367ZM66.4831 8.30319C66.3968 8.53343 66.2673 8.7349 66.0946 8.92198C65.9219 9.09466 65.7348 9.23856 65.519 9.33929C65.2887 9.44002 65.0441 9.49759 64.7851 9.49759C64.526 9.49759 64.2958 9.44002 64.0656 9.33929C63.8497 9.23856 63.6482 9.09466 63.4755 8.92198C63.3029 8.74929 63.1734 8.53343 63.1014 8.30319C62.9287 7.81392 62.9287 7.28148 63.1014 6.79221C63.1877 6.56197 63.3173 6.3605 63.4755 6.18782C63.6482 6.01514 63.8497 5.87124 64.0656 5.7705C64.2958 5.66977 64.5404 5.61221 64.7851 5.61221C65.0297 5.61221 65.2743 5.65538 65.519 5.7705C65.7348 5.87124 65.9219 6.00075 66.0946 6.17343C66.2673 6.34611 66.3968 6.54758 66.4831 6.77782C66.6702 7.2527 66.6702 7.81392 66.4831 8.30319ZM77.5924 9.181L76.657 8.46148C76.4844 8.31758 76.3117 8.27441 76.1678 8.33197C76.0383 8.38953 75.9231 8.47588 75.8224 8.57661C75.6209 8.82124 75.3763 9.0371 75.1173 9.22417C74.8295 9.38247 74.5273 9.46881 74.2107 9.44003C73.8365 9.44003 73.4912 9.33929 73.189 9.12344C72.8868 8.90758 72.6565 8.61978 72.5414 8.26002C72.4551 8.01539 72.4119 7.77075 72.4119 7.52612C72.4119 7.26709 72.4551 7.02246 72.5414 6.76343C72.6278 6.53319 72.7429 6.33172 72.9156 6.15904C73.0883 5.98636 73.2753 5.84245 73.4912 5.75611C73.7214 5.65538 73.9661 5.59782 74.2251 5.59782C74.5417 5.58343 74.8583 5.66977 75.1317 5.82806C75.4051 6.00075 75.6353 6.2166 75.8368 6.47563C75.9231 6.57636 76.0383 6.6627 76.1678 6.72026C76.3117 6.77782 76.4844 6.73465 76.657 6.59075L77.5924 5.88562C77.7075 5.81367 77.7939 5.69855 77.837 5.56904C77.8946 5.42513 77.8802 5.26684 77.7939 5.13733C77.4341 4.57611 76.9449 4.11562 76.3549 3.78464C75.7361 3.43928 75.0022 3.2522 74.1819 3.2522C73.6063 3.2522 73.0307 3.36733 72.4839 3.58318C71.9658 3.79903 71.5053 4.10123 71.1168 4.48977C70.7283 4.8783 70.4117 5.33879 70.1958 5.85684C69.7497 6.93611 69.7497 8.1449 70.1958 9.22417C70.4117 9.72783 70.7139 10.2027 71.1168 10.5769C71.937 11.3827 73.0307 11.8144 74.1819 11.8144C75.0022 11.8144 75.7361 11.6273 76.3549 11.282C76.9449 10.951 77.4485 10.4905 77.8083 9.9149C77.8802 9.78539 77.8946 9.6271 77.8514 9.49759C77.7939 9.38246 77.7075 9.26734 77.5924 9.181ZM86.2554 10.8647L83.6795 7.09441L85.8812 4.18757C85.9819 4.05806 86.0251 3.87098 85.9676 3.71269C85.9244 3.59757 85.8237 3.48245 85.5502 3.48245H83.809C83.7083 3.48245 83.6076 3.51123 83.5212 3.5544C83.4061 3.61196 83.3197 3.6983 83.2622 3.79903L81.5066 6.25977H81.0893V0.4461C81.0893 0.330977 81.0461 0.215853 80.9597 0.129512C80.8734 0.04317 80.7727 0 80.6576 0H79.0314C78.9163 0 78.8012 0.04317 78.7149 0.129512C78.6285 0.215853 78.5853 0.316587 78.5853 0.4461V11.1669C78.5853 11.2964 78.6285 11.3971 78.7149 11.4834C78.8012 11.5698 78.9163 11.613 79.0314 11.613H80.6576C80.7727 11.613 80.8878 11.5698 80.9597 11.4834C81.0461 11.3971 81.0893 11.282 81.0893 11.1669V8.33197H81.5497L83.4637 11.2676C83.5788 11.4834 83.7946 11.613 84.0249 11.613H85.8524C86.1259 11.613 86.241 11.4834 86.2985 11.3683C86.3705 11.1812 86.3561 10.9942 86.2554 10.8647ZM45.7036 3.46806H43.876C43.7321 3.46806 43.6026 3.51123 43.5018 3.61196C43.4155 3.6983 43.3579 3.79903 43.3292 3.91415L41.9765 8.92198H41.6455L40.2065 3.91415C40.1777 3.81342 40.1345 3.71269 40.0626 3.61196C39.9762 3.51123 39.8611 3.45367 39.7316 3.45367H37.8752C37.6306 3.45367 37.4867 3.52562 37.4147 3.6983C37.3716 3.8422 37.3716 4.0005 37.4147 4.1444L39.7172 11.1956C39.7604 11.2964 39.8035 11.4115 39.8899 11.4834C39.9762 11.5698 40.1057 11.613 40.2352 11.613H41.2138L41.1274 11.8432L40.9116 12.4908C40.8396 12.6922 40.7245 12.8649 40.5518 12.9944C40.3935 13.1095 40.2065 13.1815 40.005 13.1671C39.8323 13.1671 39.674 13.1239 39.5157 13.0664C39.3574 12.9944 39.2135 12.9081 39.084 12.8074C38.9689 12.721 38.825 12.6778 38.6667 12.6778H38.6523C38.4796 12.6922 38.3213 12.7786 38.235 12.9369L37.6594 13.7859C37.4291 14.16 37.5586 14.3903 37.7026 14.5198C38.0191 14.8076 38.3789 15.0235 38.7818 15.153C39.2279 15.3113 39.6884 15.3832 40.1489 15.3832C40.9835 15.3832 41.6743 15.153 42.2067 14.7069C42.7535 14.2176 43.1709 13.5844 43.3723 12.8649L46.0489 4.1444C46.1065 3.98611 46.1209 3.82782 46.0633 3.68391C46.0489 3.58318 45.9482 3.45367 45.7036 3.46806Z" fill="#131E32"/>
</svg>
