<svg width="14" height="15" viewBox="0 0 14 15" fill="none" xmlns="http://www.w3.org/2000/svg">
<path d="M12.2893 0.453369H0.719514C0.330976 0.453369 0 0.784342 0 1.18727V2.49679C0 2.89971 0.330976 3.23069 0.719514 3.23069H12.2893C12.6922 3.23069 13.0088 2.89971 13.0232 2.49679V1.20166C13.0232 0.784343 12.6922 0.453369 12.2893 0.453369ZM12.2893 7.72046H0.719514C0.53244 7.72046 0.345367 7.79241 0.215854 7.93632C0.0719514 8.08022 0 8.2529 0 8.45436V9.76388C0 10.1668 0.330976 10.4978 0.719514 10.4978H12.2893C12.6922 10.4978 13.0088 10.1812 13.0232 9.76388V8.45436C13.0088 8.03704 12.6922 7.72046 12.2893 7.72046ZM7.23831 11.3468H0.719514C0.53244 11.3468 0.345367 11.4188 0.215854 11.5627C0.0863417 11.7066 0 11.8793 0 12.0807V13.3902C0 13.7932 0.330976 14.1241 0.719514 14.1241H7.22392C7.62685 14.1241 7.94344 13.7932 7.94344 13.4046V12.0951C7.95783 11.6634 7.64124 11.3468 7.23831 11.3468ZM13.0232 4.07972H0.719514C0.53244 4.07972 0.345367 4.15167 0.215854 4.29557C0.0863417 4.43947 0 4.61216 0 4.81362V6.12314C0 6.52607 0.330976 6.85704 0.719514 6.85704H13.0088C13.4117 6.85704 13.7283 6.52607 13.7283 6.12314V4.81362C13.7427 4.42509 13.4117 4.09411 13.0232 4.07972Z" fill="#2DBDEF"/>
</svg>
