<svg width="33" height="32" viewBox="0 0 33 32" fill="none" xmlns="http://www.w3.org/2000/svg">
<path d="M16.1765 2.66663C12.6831 2.66663 9.84314 5.50663 9.84314 8.99996C9.84314 12.4266 12.5231 15.2 16.0165 15.32C16.1231 15.3066 16.2298 15.3066 16.3098 15.32C16.3365 15.32 16.3498 15.32 16.3765 15.32C16.3898 15.32 16.3898 15.32 16.4031 15.32C19.8165 15.2 22.4965 12.4266 22.5098 8.99996C22.5098 5.50663 19.6698 2.66663 16.1765 2.66663Z" fill="#C0C0C0"/>
<path d="M22.9498 18.8667C19.2298 16.3867 13.1631 16.3867 9.41646 18.8667C7.72313 20 6.78979 21.5334 6.78979 23.1734C6.78979 24.8134 7.72313 26.3334 9.40313 27.4534C11.2698 28.7067 13.7231 29.3334 16.1765 29.3334C18.6298 29.3334 21.0831 28.7067 22.9498 27.4534C24.6298 26.32 25.5631 24.8 25.5631 23.1467C25.5498 21.5067 24.6298 19.9867 22.9498 18.8667Z" fill="#C0C0C0"/>
</svg>
