<svg width="54" height="53" viewBox="0 0 54 53" fill="none" xmlns="http://www.w3.org/2000/svg">
<g filter="url(#filter0_d_2957_2422)">
<path d="M22.8992 23.4914L27 29.3697L31.1008 23.4914C31.3746 23.0989 31.6915 23 31.884 23C32.0658 23 32.3007 23.0698 32.5431 23.3311C32.7912 23.5985 33 24.0321 33 24.5945C33 25.4923 32.8677 26.3038 32.6411 27.0551L32.6364 27.0706L32.633 27.0823C32.6334 27.0808 32.6336 27.0801 32.6335 27.0801C32.6329 27.0799 32.5815 27.2256 32.3997 27.5287C32.2074 27.8494 31.9288 28.2473 31.5569 28.7111C30.809 29.6436 29.8316 30.6589 28.7969 31.6127C28.1675 32.1928 27.552 32.718 27 33.1587C26.448 32.718 25.8325 32.1928 25.2031 31.6127C24.1684 30.6589 23.191 29.6436 22.4431 28.7111C22.0712 28.2473 21.7926 27.8494 21.6003 27.5287C21.4185 27.2256 21.3671 27.0799 21.3665 27.0801C21.3664 27.0801 21.3666 27.0808 21.367 27.0821L21.3636 27.0706L21.3589 27.0551C21.1323 26.3038 21 25.4923 21 24.5945C21 24.0321 21.2088 23.5985 21.4569 23.3311C21.6993 23.0698 21.9342 23 22.116 23C22.3085 23 22.6254 23.0989 22.8992 23.4914ZM25.3372 34.3465C25.3372 34.3465 25.3406 34.3447 25.3472 34.3414C25.3405 34.345 25.3372 34.3466 25.3372 34.3465Z" stroke="white" stroke-width="10" shape-rendering="crispEdges"/>
</g>
<path opacity="0.9" d="M54 26.5C54 41.1355 41.9117 53 27 53C12.0883 53 0 41.1355 0 26.5C0 11.8645 12.0883 0 27 0C41.9117 0 54 11.8645 54 26.5ZM1.62 26.5C1.62 40.2574 12.983 51.41 27 51.41C41.017 51.41 52.38 40.2574 52.38 26.5C52.38 12.7426 41.017 1.59 27 1.59C12.983 1.59 1.62 12.7426 1.62 26.5Z" fill="#D9D9D9"/>
<defs>
<filter id="filter0_d_2957_2422" x="12" y="18" width="30" height="29" filterUnits="userSpaceOnUse" color-interpolation-filters="sRGB">
<feFlood flood-opacity="0" result="BackgroundImageFix"/>
<feColorMatrix in="SourceAlpha" type="matrix" values="0 0 0 0 0 0 0 0 0 0 0 0 0 0 0 0 0 0 127 0" result="hardAlpha"/>
<feOffset dy="4"/>
<feGaussianBlur stdDeviation="2"/>
<feComposite in2="hardAlpha" operator="out"/>
<feColorMatrix type="matrix" values="0 0 0 0 0 0 0 0 0 0 0 0 0 0 0 0 0 0 0.25 0"/>
<feBlend mode="normal" in2="BackgroundImageFix" result="effect1_dropShadow_2957_2422"/>
<feBlend mode="normal" in="SourceGraphic" in2="effect1_dropShadow_2957_2422" result="shape"/>
</filter>
</defs>
</svg>
