<svg width="54" height="53" viewBox="0 0 54 53" fill="none" xmlns="http://www.w3.org/2000/svg">
<path d="M29.7522 27.2259C29.7353 27.2472 29.7187 27.2686 29.7022 27.2901C29.0932 28.0855 28.1197 28.6071 27 28.6071C26.5943 28.6071 26.1919 28.6519 25.7998 28.7396C25.5342 28.4255 25.2311 28.1387 24.8938 27.8864C24.0519 27.2569 23.5 26.2439 23.5 25.0623C23.5 23.8172 24.1077 22.758 25.0132 22.1348L25.0551 22.1056C25.602 21.7216 26.2527 21.5 27 21.5C28.9006 21.5 30.5 23.0561 30.5 25.0623C30.5 25.884 30.2218 26.631 29.7522 27.2259Z" stroke="white" stroke-width="11" stroke-linecap="round" stroke-linejoin="round"/>
<path opacity="0.9" d="M54 26.5C54 41.1355 41.9117 53 27 53C12.0883 53 0 41.1355 0 26.5C0 11.8645 12.0883 0 27 0C41.9117 0 54 11.8645 54 26.5ZM1.62 26.5C1.62 40.2574 12.983 51.41 27 51.41C41.017 51.41 52.38 40.2574 52.38 26.5C52.38 12.7426 41.017 1.59 27 1.59C12.983 1.59 1.62 12.7426 1.62 26.5Z" fill="#D9D9D9"/>
</svg>
