<svg width="21" height="20" viewBox="0 0 21 20" fill="none" xmlns="http://www.w3.org/2000/svg">
<path fill-rule="evenodd" clip-rule="evenodd" d="M1.77881 8.74992C1.77881 4.37768 5.31401 0.833252 9.67486 0.833252C14.0357 0.833252 17.5709 4.37768 17.5709 8.74992C17.5709 10.6359 16.9132 12.3678 15.8151 13.7277L18.8681 16.7886C19.1927 17.1141 19.1927 17.6417 18.8681 17.9671C18.5435 18.2926 18.0172 18.2926 17.6926 17.9671L14.6397 14.9062C13.2833 16.0071 11.5559 16.6666 9.67486 16.6666C5.31401 16.6666 1.77881 13.1222 1.77881 8.74992ZM9.67486 2.49992C6.23209 2.49992 3.44113 5.29816 3.44113 8.74992C3.44113 12.2017 6.23209 14.9999 9.67486 14.9999C13.1176 14.9999 15.9086 12.2017 15.9086 8.74992C15.9086 5.29816 13.1176 2.49992 9.67486 2.49992ZM6.73625 5.38693C7.48743 4.63385 8.52751 4.16659 9.67486 4.16659C10.8222 4.16659 11.8623 4.63385 12.6134 5.38695C12.938 5.71239 12.938 6.24003 12.6134 6.56547C12.2889 6.8909 11.7626 6.8909 11.438 6.56547C10.9859 6.11215 10.3636 5.83325 9.67486 5.83325C8.98608 5.83325 8.36384 6.11215 7.91166 6.56549C7.58706 6.89091 7.06079 6.89089 6.73621 6.56545C6.41164 6.24 6.41165 5.71236 6.73625 5.38693Z" fill="black" fill-opacity="0.4"/>
</svg>
