<svg width="33" height="32" viewBox="0 0 33 32" fill="none" xmlns="http://www.w3.org/2000/svg">
<path d="M15.3961 26.6933C22.0309 26.6933 27.4095 21.3147 27.4095 14.68C27.4095 8.04518 22.0309 2.66663 15.3961 2.66663C8.76136 2.66663 3.38281 8.04518 3.38281 14.68C3.38281 21.3147 8.76136 26.6933 15.3961 26.6933Z" fill="#C0C0C0"/>
<path d="M30.0361 25.2667C29.5961 24.4533 28.6628 24 27.4094 24C26.4628 24 25.6494 24.3867 25.1694 25.0533C24.6894 25.72 24.5828 26.6133 24.8761 27.5067C25.4494 29.24 26.4494 29.6267 26.9961 29.6933C27.0761 29.7067 27.1561 29.7067 27.2494 29.7067C27.8361 29.7067 28.7428 29.4533 29.6228 28.1333C30.3294 27.1067 30.4628 26.08 30.0361 25.2667Z" fill="#C0C0C0"/>
</svg>
