<svg width="32" height="32" viewBox="0 0 32 32" fill="none" xmlns="http://www.w3.org/2000/svg">
<path d="M27.338 16.2024C27.3478 15.4495 26.9399 14.7576 26.2776 14.3944L10.844 5.91466C10.1527 5.52397 9.33778 5.57197 8.68639 6.01677C8.02306 6.46906 7.68353 7.54576 7.86897 8.3234L9.30977 14.3598C9.45768 14.9788 10.0117 15.4146 10.649 15.4119L19.2378 15.3853C19.6776 15.3764 20.0343 15.7331 20.0255 16.173C20.0242 16.6053 19.6727 16.9567 19.2329 16.9656L10.6359 16.9855C9.99858 16.9868 9.44189 17.4246 9.29014 18.0445L7.79839 24.1049C7.61726 24.821 7.82376 25.536 8.32908 26.0413C8.38853 26.1008 8.45541 26.1676 8.52234 26.2196C9.17674 26.7245 10.0338 26.7889 10.7655 26.399L26.2515 18.0023C26.916 17.6499 27.3282 16.9554 27.338 16.2024Z" fill="#8B8B8B"/>
</svg>
