<svg width="24" height="25" viewBox="0 0 24 25" fill="none" xmlns="http://www.w3.org/2000/svg">
<path d="M20.1 9.60824C18.29 9.60824 17.55 8.32824 18.45 6.75824C18.97 5.84824 18.66 4.68824 17.75 4.16824L16.02 3.17824C15.23 2.70824 14.21 2.98824 13.74 3.77824L13.63 3.96824C12.73 5.53824 11.25 5.53824 10.34 3.96824L10.23 3.77824C9.78 2.98824 8.76 2.70824 7.97 3.17824L6.24 4.16824C5.33 4.68824 5.02 5.85824 5.54 6.76824C6.45 8.32824 5.71 9.60824 3.9 9.60824C2.86 9.60824 2 10.4582 2 11.5082V13.2682C2 14.3082 2.85 15.1682 3.9 15.1682C5.71 15.1682 6.45 16.4482 5.54 18.0182C5.02 18.9282 5.33 20.0882 6.24 20.6082L7.97 21.5982C8.76 22.0682 9.78 21.7882 10.25 20.9982L10.36 20.8082C11.26 19.2382 12.74 19.2382 13.65 20.8082L13.76 20.9982C14.23 21.7882 15.25 22.0682 16.04 21.5982L17.77 20.6082C18.68 20.0882 18.99 18.9182 18.47 18.0182C17.56 16.4482 18.3 15.1682 20.11 15.1682C21.15 15.1682 22.01 14.3182 22.01 13.2682V11.5082C22 10.4682 21.15 9.60824 20.1 9.60824ZM12 15.6382C10.21 15.6382 8.75 14.1782 8.75 12.3882C8.75 10.5982 10.21 9.13824 12 9.13824C13.79 9.13824 15.25 10.5982 15.25 12.3882C15.25 14.1782 13.79 15.6382 12 15.6382Z" fill="#C0C0C0"/>
</svg>
