<svg width="219" height="118" viewBox="0 0 219 118" fill="none" xmlns="http://www.w3.org/2000/svg">
<path d="M27.3783 67.9106L38.6104 64.6898L39.5802 68.0717L32.1737 70.1955L33.6086 75.1994L40.4794 73.2292L41.4448 76.5958L34.5739 78.566L36.9961 87.013L33.1704 88.11L27.3783 67.9106ZM47.0551 73.1819C47.4237 74.4673 48.0224 75.5543 48.8513 76.4428C49.6904 77.3283 50.667 77.9425 51.7811 78.2855C52.8922 78.6183 54.065 78.6077 55.2994 78.2537C56.5338 77.8998 57.534 77.2873 58.3 76.4163C59.0732 75.5321 59.5759 74.4937 59.808 73.301C60.0401 72.1083 59.9719 70.8692 59.6033 69.5838C59.2347 68.2984 58.6374 67.2165 57.8115 66.3383C56.9826 65.4498 56.006 64.8356 54.8818 64.4955C53.7677 64.1525 52.5934 64.158 51.359 64.512C50.1246 64.8659 49.1259 65.4835 48.3628 66.3648C47.5998 67.246 47.0971 68.2844 46.8548 69.4801C46.6198 70.6625 46.6865 71.8965 47.0551 73.1819ZM43.0764 74.3228C42.6552 72.8537 42.5183 71.4136 42.6656 70.0023C42.8202 68.5779 43.2257 67.2582 43.882 66.0432C44.5383 64.8283 45.4127 63.7771 46.5052 62.8897C47.6079 61.9994 48.8836 61.3466 50.3322 60.9312C51.8013 60.5099 53.2342 60.3861 54.6309 60.5597C56.0276 60.7333 57.3211 61.1629 58.5113 61.8483C59.7117 62.5309 60.7498 63.4367 61.6256 64.5656C62.4984 65.6844 63.1454 66.9783 63.5667 68.4473C63.9908 69.9266 64.1358 71.3755 64.0016 72.794C63.8644 74.2024 63.4743 75.5177 62.8311 76.7399C62.185 77.952 61.3157 79.0017 60.2232 79.8891C59.1307 80.7764 57.8346 81.4351 56.335 81.8652C54.8149 82.301 53.3514 82.4336 51.9445 82.263C50.5477 82.0893 49.2543 81.6598 48.0641 80.9743C46.8811 80.2757 45.8583 79.3656 44.9957 78.2439C44.1404 77.1091 43.5006 75.802 43.0764 74.3228ZM62.7749 57.7607L66.6006 56.6638L71.4229 73.4813L78.9977 71.3093L79.9675 74.6912L68.567 77.9602L62.7749 57.7607ZM76.6476 53.7828L80.4732 52.6858L85.2956 69.5034L92.8704 67.3314L93.8401 70.7133L82.4397 73.9823L76.6476 53.7828ZM96.0554 59.1313C96.424 60.4167 97.0227 61.5037 97.8516 62.3922C98.6907 63.2777 99.6672 63.8919 100.781 64.2349C101.892 64.5677 103.065 64.5571 104.3 64.2031C105.534 63.8492 106.534 63.2367 107.3 62.3657C108.073 61.4815 108.576 60.4431 108.808 59.2504C109.04 58.0577 108.972 56.8186 108.604 55.5332C108.235 54.2478 107.638 53.1659 106.812 52.2877C105.983 51.3992 105.006 50.785 103.882 50.4449C102.768 50.1019 101.594 50.1074 100.359 50.4614C99.1249 50.8153 98.1261 51.4329 97.3631 52.3142C96.6001 53.1954 96.0974 54.2338 95.8551 55.4295C95.62 56.6119 95.6868 57.8459 96.0554 59.1313ZM92.0767 60.2722C91.6555 58.8031 91.5185 57.363 91.6659 55.9517C91.8205 54.5273 92.226 53.2076 92.8823 51.9926C93.5386 50.7777 94.413 49.7265 95.5055 48.8391C96.6082 47.9488 97.8838 47.296 99.3325 46.8806C100.802 46.4593 102.234 46.3355 103.631 46.5091C105.028 46.6827 106.321 47.1123 107.512 47.7977C108.712 48.4803 109.75 49.3861 110.626 50.515C111.499 51.6338 112.146 52.9277 112.567 54.3967C112.991 55.876 113.136 57.3249 113.002 58.7434C112.865 60.1518 112.475 61.4671 111.831 62.6893C111.185 63.9014 110.316 64.9511 109.223 65.8385C108.131 66.7258 106.835 67.3845 105.335 67.8146C103.815 68.2504 102.352 68.383 100.945 68.2124C99.548 68.0388 98.2545 67.6092 97.0643 66.9237C95.8814 66.2251 94.8586 65.315 93.996 64.1933C93.1406 63.0585 92.5009 61.7514 92.0767 60.2722ZM136.779 58.4009L132.127 59.7348L123.998 45.5378L124.702 45.336L125.317 61.6875L120.65 63.0258L110.389 44.1076L114.766 42.8526L121.796 57.265L121.751 57.2781L121.407 40.9483L124.452 40.0751L132.83 54.1012L132.768 54.1188L131.109 38.1663L135.485 36.9113L136.779 58.4009ZM137.815 36.2433L141.641 35.1463L147.433 55.3458L143.607 56.4428L137.815 36.2433ZM149.313 36.7718L149.587 36.7431L154.352 53.3618L150.542 54.4544L144.749 34.2549L150.014 32.7455L163.829 46.7359L163.587 46.8717L158.813 30.2224L162.623 29.1298L168.415 49.3293L163.12 50.8475L149.313 36.7718ZM177.433 34.654L187.686 31.7141L188.032 32.923C188.445 34.3614 188.586 35.7783 188.456 37.1735C188.334 38.5556 187.96 39.8497 187.334 41.0559C186.705 42.2519 185.85 43.2921 184.767 44.1766C183.695 45.0581 182.42 45.711 180.94 46.1351C179.42 46.571 177.955 46.6985 176.546 46.5176C175.136 46.3367 173.839 45.897 172.656 45.1984C171.473 44.4998 170.451 43.5896 169.588 42.4679C168.733 41.3331 168.097 40.0414 167.682 38.5928C167.269 37.1543 167.127 35.7324 167.254 34.3269C167.388 32.9084 167.773 31.5945 168.409 30.3854C169.042 29.1661 169.908 28.1062 171.008 27.2057C172.108 26.3052 173.418 25.637 174.938 25.2011C176.111 24.8647 177.193 24.6924 178.184 24.6842C179.176 24.6759 180.076 24.7932 180.885 25.0358C181.702 25.2654 182.436 25.5737 183.088 25.9609C183.747 26.3349 184.321 26.7389 184.81 27.1729L181.73 29.9441C181.035 29.3704 180.207 28.9455 179.244 28.6695C178.292 28.3905 177.199 28.428 175.964 28.7819C175.046 29.0452 174.252 29.4717 173.582 30.0612C172.919 30.6377 172.398 31.3226 172.018 32.116C171.649 32.9065 171.431 33.7639 171.365 34.6882C171.296 35.6023 171.394 36.5235 171.661 37.4519C171.93 38.3905 172.336 39.229 172.879 39.9676C173.422 40.7062 174.061 41.3179 174.796 41.8026C175.539 42.2742 176.344 42.5789 177.211 42.7165C178.089 42.8513 178.987 42.787 179.905 42.5237C180.741 42.2838 181.466 41.9435 182.08 41.5026C182.693 41.0618 183.185 40.5453 183.556 39.9531C183.938 39.3579 184.19 38.717 184.313 38.0302C184.434 37.3333 184.413 36.627 184.252 35.9114L178.284 37.6227L177.433 34.654Z" fill="#F94C84"/>
<rect x="1.83065" y="58.3136" width="206.796" height="60.057" rx="6.75713" transform="rotate(-16 1.83065 58.3136)" stroke="#F94C84" stroke-width="2"/>
</svg>
