<svg width="79" height="76" viewBox="0 0 79 76" fill="none" xmlns="http://www.w3.org/2000/svg">
<path d="M63.2816 48.6315H64.8435C65.234 48.6301 65.608 48.474 65.8836 48.1974C66.1592 47.9207 66.314 47.5462 66.314 47.1557V26.5268C66.3147 26.3332 66.2772 26.1414 66.2036 25.9624C66.13 25.7834 66.0218 25.6206 65.8852 25.4835C65.7486 25.3464 65.5862 25.2376 65.4075 25.1634C65.2287 25.0892 65.0371 25.051 64.8435 25.051H62.8237L63.2816 22.1424V22.1047H64.8435C65.4242 22.1047 65.9993 22.2191 66.5358 22.4413C67.0723 22.6636 67.5598 22.9893 67.9704 23.3999C68.381 23.8105 68.7067 24.298 68.929 24.8345C69.1512 25.371 69.2656 25.9461 69.2656 26.5268V47.1557C69.2641 48.3281 68.7978 49.452 67.9688 50.281C67.1398 51.11 66.0159 51.5763 64.8435 51.5777H63.2816V48.6315Z" fill="white"/>
<path d="M61.1602 50.4739H63.3685C63.3681 51.506 63.2997 52.537 63.1638 53.5601L60.9717 53.2693C61.0968 52.3427 61.1598 51.4088 61.1602 50.4739ZM60.4169 56.0216L62.5444 56.6087C62.2707 57.6052 61.9306 58.5823 61.5264 59.5334L59.4905 58.6608C59.8592 57.8033 60.1688 56.9215 60.4169 56.0216ZM58.214 61.1654L60.1045 62.3019C59.5728 63.1902 58.9788 64.0397 58.3271 64.8441L56.6089 63.476C57.1961 62.7434 57.7324 61.9714 58.214 61.1654ZM54.713 65.4743L56.2265 67.0901C55.4711 67.7978 54.6665 68.4512 53.8189 69.0453L52.5477 67.2463C53.3095 66.7141 54.033 66.1292 54.713 65.4958V65.4743ZM50.124 68.706L51.115 70.6827C50.1875 71.1469 49.2281 71.5447 48.2442 71.873L47.5494 69.7724C48.4254 69.4802 49.2788 69.1237 50.1024 68.706H50.124ZM44.7809 70.478L45.1525 72.6594C44.1307 72.834 43.0973 72.9331 42.0609 72.9557L42.007 70.7473C42.937 70.7257 43.8641 70.6357 44.7809 70.478ZM39.1901 70.7527V72.961H37.278C36.9117 72.961 36.5509 72.961 36.2008 72.9341L36.3139 70.7258C36.6424 70.7258 36.9656 70.7258 37.2942 70.7258L39.1901 70.7527ZM33.5292 70.3811L33.093 72.5355C32.0752 72.335 31.0741 72.0577 30.0983 71.7061L30.8469 69.6216C31.7211 69.9364 32.6178 70.1848 33.5292 70.3649V70.3811ZM28.2885 68.4959L27.249 70.4457C26.3334 69.9598 25.4549 69.4071 24.6206 68.7922L25.9294 67.0094C26.6793 67.5557 27.4678 68.0471 28.2885 68.4798V68.4959ZM23.8072 65.205L22.2614 66.7831C21.5222 66.0602 20.8347 65.2863 20.2039 64.4671L21.9544 63.1152C22.5249 63.8471 23.1439 64.5399 23.8072 65.1888V65.205ZM20.387 60.7614L18.4642 61.8387C17.9519 60.9406 17.502 60.0084 17.1176 59.0486L19.1698 58.2245C19.5165 59.092 19.9233 59.9343 20.387 60.7453V60.7614ZM18.2918 55.5261L16.1374 56.0647C15.8904 55.0616 15.7105 54.0431 15.5988 53.0161L17.7963 52.7738C17.902 53.6956 18.0675 54.6096 18.2918 55.5099V55.5261Z" fill="white"/>
<path d="M61.1594 51.5782V25.6062C61.8448 26.1342 62.4002 26.8121 62.7829 27.5879C63.1657 28.3638 63.3658 29.217 63.3677 30.0821V50.1455C63.3677 50.6249 63.3677 51.1042 63.3193 51.5782H61.1594Z" fill="white"/>
<path d="M28.3688 40.5257C28.6523 40.5326 28.9224 40.6483 29.1229 40.8488C29.3235 41.0494 29.4392 41.3194 29.446 41.603V45.2871C29.446 45.5799 29.3297 45.8608 29.1226 46.0678C28.9155 46.2749 28.6347 46.3912 28.3418 46.3912C28.049 46.3912 27.7681 46.2749 27.5611 46.0678C27.354 45.8608 27.2377 45.5799 27.2377 45.2871V41.603C27.2412 41.4579 27.2732 41.315 27.3319 41.1824C27.3907 41.0498 27.475 40.93 27.58 40.83C27.6851 40.7299 27.8088 40.6516 27.9441 40.5994C28.0795 40.5472 28.2237 40.5221 28.3688 40.5257Z" fill="white"/>
<path d="M51.9497 40.5259C52.2333 40.5327 52.5033 40.6484 52.7039 40.849C52.9044 41.0495 53.0201 41.3196 53.0269 41.6031V45.2872C53.0074 45.5674 52.8823 45.8298 52.6768 46.0214C52.4714 46.213 52.201 46.3195 51.9201 46.3195C51.6392 46.3195 51.3687 46.213 51.1633 46.0214C50.9579 45.8298 50.8328 45.5674 50.8132 45.2872V41.6031C50.8167 41.4576 50.8489 41.3143 50.908 41.1813C50.9671 41.0483 51.0519 40.9283 51.1575 40.8282C51.2631 40.7281 51.3875 40.6498 51.5234 40.5979C51.6594 40.5461 51.8042 40.5216 51.9497 40.5259Z" fill="white"/>
<path d="M53.5545 13.7778L53.3067 13.8209H28.0187C26.065 13.8224 24.1917 14.5991 22.8102 15.9806C21.4287 17.3621 20.6519 19.2354 20.6505 21.1892V25.051H16.8479C13.7508 25.0834 13.3361 25.3096 13.3361 26.92V47.3874C13.3361 48.0661 13.9178 48.6532 15.4582 48.7663V34.9993C15.4564 33.8685 15.8904 32.7805 16.6701 31.9615C17.0633 31.5306 19.2986 29.807 20.0526 29.0368L21.7977 27.3078L23.8121 28.7136C25.0451 29.576 26.5141 30.0368 28.0187 30.0332H53.0751C55.0288 30.0318 56.9021 29.2551 58.2837 27.8736C59.6652 26.492 60.4419 24.6187 60.4433 22.665V10.7185C58.4332 12.2886 56.0672 13.3393 53.5545 13.7778ZM17.6827 21.1892C17.6827 19.8328 17.9502 18.4898 18.4699 17.237C18.9896 15.9842 19.7513 14.8462 20.7114 13.8881C21.6714 12.93 22.811 12.1707 24.0649 11.6537C25.3188 11.1366 26.6624 10.8719 28.0187 10.8747H53.0751C57.0824 10.1781 60.5205 7.53529 63.3896 2.94629V22.665C63.3896 25.4006 62.3029 28.0241 60.3685 29.9584C58.4342 31.8928 55.8107 32.9795 53.0751 32.9795H28.0187C25.9036 32.9965 23.8346 32.3608 22.094 31.1589C19.7941 33.4373 18.3721 33.7497 18.3721 35.0262V51.5563C12.6143 52.3965 10.3575 49.8435 10.3575 47.4036V26.9362C10.3575 22.121 14.1925 22.121 17.6719 22.121L17.6827 21.1892Z" fill="white"/>
<path d="M34.0083 62.0702C33.7662 61.9052 33.5995 61.6508 33.545 61.3629C33.4904 61.075 33.5525 60.7773 33.7174 60.5351C33.8824 60.293 34.1369 60.1264 34.4247 60.0718C34.7126 60.0173 35.0104 60.0793 35.2525 60.2443C36.706 61.3755 38.4952 61.9897 40.337 61.9897C42.1788 61.9897 43.9681 61.3755 45.4215 60.2443C45.5414 60.1626 45.6762 60.1053 45.8183 60.0757C45.9603 60.0461 46.1068 60.0448 46.2493 60.0718C46.3918 60.0988 46.5277 60.1536 46.649 60.2331C46.7704 60.3126 46.8749 60.4153 46.9566 60.5351C47.0383 60.655 47.0956 60.7898 47.1252 60.9319C47.1548 61.0739 47.1561 61.2204 47.1291 61.3629C47.1021 61.5055 47.0473 61.6413 46.9678 61.7626C46.8883 61.884 46.7856 61.9885 46.6657 62.0702C44.8461 63.4541 42.6231 64.2034 40.337 64.2034C38.0509 64.2034 35.8279 63.4541 34.0083 62.0702Z" fill="white"/>
<path d="M69.2655 1.47042L67.7897 0H77.3663V9.57657L75.8959 8.10077V1.47042H69.2655ZM75.8959 73.7094V67.0522L77.3663 65.5763V75.1583H67.7897L69.2655 73.6825L75.8959 73.7094ZM75.8959 67.0791L77.3663 65.6033V75.1852H67.7897L69.2655 73.7094H75.8959V67.0791ZM3.68381 73.7094H10.3142L11.79 75.1852H2.20801V65.5763L3.68381 67.0522V73.7094ZM3.68381 1.49735H10.3142L11.79 0.0269303H2.20801V9.57657L3.68381 8.10077V1.49735Z" fill="white"/>
<path d="M0 52.4989V51.761H78.8424V52.4989H0Z" fill="white"/>
</svg>
