<?xml version="1.0" encoding="UTF-8"?>
<!-- Generator: visioncortex VTracer 0.6.3 -->
<svg version="1.1" xmlns="http://www.w3.org/2000/svg" width="1208" height="1280">
<path d="M0 0 C4.47 3.63 8.15 7.94 11.82 12.36 C12.4 13.06 12.98 13.75 13.58 14.46 C38.91 45.37 58.09 80.77 77.81 115.35 C80.41 119.91 83.03 124.46 85.69 128.99 C88.85 134.38 91.84 139.86 94.82 145.36 C100.5 155.87 106.49 166.2 113.44 175.93 C121.99 188.06 127.08 199.25 125.82 214.36 C123.53 223.46 118.53 229.9 110.62 234.86 C94.96 243.27 77.1 245.94 59.79 248.95 C56.49 249.52 53.18 250.1 49.88 250.68 C49.04 250.82 48.21 250.97 47.35 251.12 C25.61 254.93 4.23 260.16 -16.87 266.66 C-19.67 267.51 -22.47 268.32 -25.29 269.13 C-41.11 273.71 -56.68 278.79 -72.18 284.36 C-73.01 284.66 -73.85 284.96 -74.7 285.27 C-81.49 287.71 -88.28 290.16 -95.06 292.61 C-96.02 292.96 -96.97 293.31 -97.96 293.66 C-108.14 297.35 -118.23 301.1 -128.18 305.36 C-131.83 306.85 -135.49 308.29 -139.15 309.74 C-149.58 313.91 -159.9 318.35 -170.22 322.76 C-171.73 323.41 -173.24 324.06 -174.76 324.7 C-184.37 328.79 -193.89 333.02 -203.33 337.49 C-205.87 338.69 -208.41 339.88 -210.96 341.06 C-242.75 355.84 -242.75 355.84 -274.18 371.36 C-275.45 372.01 -275.45 372.01 -276.74 372.67 C-288.63 378.76 -300.36 385.08 -311.96 391.71 C-318.35 395.35 -324.8 398.85 -331.31 402.26 C-335.77 404.59 -340.15 407.03 -344.5 409.55 C-363.77 420.62 -382.01 427.59 -404.32 421.82 C-407.85 420.79 -411.34 419.66 -414.83 418.49 C-418.08 417.4 -421.35 416.35 -424.62 415.31 C-427.79 414.31 -430.95 413.29 -434.12 412.26 C-435.67 411.75 -437.23 411.25 -438.79 410.75 C-451.97 406.52 -463.98 400.88 -476.04 394.1 C-498.09 381.83 -517.54 385.16 -541.04 390.63 C-676.1 422.07 -676.1 422.07 -713 400.18 C-722.29 393.82 -728.93 385.54 -731.18 374.36 C-732.33 362.73 -729.83 352.77 -722.68 343.43 C-721.53 342.06 -720.36 340.71 -719.18 339.36 C-718.25 338.18 -717.31 336.99 -716.37 335.8 C-715.29 334.59 -715.29 334.59 -714.18 333.36 C-713.52 333.36 -712.86 333.36 -712.18 333.36 C-711.85 332.37 -711.52 331.38 -711.18 330.36 C-710.52 330.36 -709.86 330.36 -709.18 330.36 C-709.18 329.7 -709.18 329.04 -709.18 328.36 C-707.89 327.06 -707.89 327.06 -706 325.49 C-702.18 322.26 -698.52 318.9 -694.87 315.49 C-690 310.95 -684.98 306.67 -679.79 302.5 C-677.21 300.39 -674.76 298.18 -672.31 295.93 C-668.07 292.07 -663.63 288.55 -659.07 285.09 C-655.55 282.42 -652.09 279.68 -648.68 276.86 C-643.16 272.31 -637.51 267.95 -631.82 263.62 C-630.24 262.41 -628.67 261.19 -627.1 259.96 C-617.96 252.86 -608.6 246.09 -599.18 239.36 C-598.45 238.84 -597.72 238.31 -596.96 237.77 C-587.76 231.2 -578.46 224.8 -569.02 218.58 C-567.18 217.36 -565.34 216.13 -563.51 214.91 C-533.19 194.58 -502.13 175.41 -470.62 156.99 C-469.65 156.42 -468.67 155.85 -467.67 155.26 C-461.24 151.51 -454.74 147.9 -448.18 144.36 C-446.43 143.41 -444.68 142.46 -442.93 141.5 C-442.06 141.03 -441.2 140.56 -440.31 140.08 C-439.42 139.59 -438.54 139.11 -437.62 138.61 C-436.67 138.1 -435.72 137.58 -434.75 137.05 C-429.49 134.18 -424.26 131.29 -419.04 128.36 C-411 123.86 -402.87 119.62 -394.6 115.56 C-391.78 114.16 -388.98 112.75 -386.18 111.33 C-373.09 104.72 -359.93 98.41 -346.55 92.43 C-343.2 90.92 -339.88 89.36 -336.56 87.8 C-310.77 75.73 -284.54 64.78 -258.13 54.15 C-256.81 53.62 -255.49 53.08 -254.17 52.55 C-247.24 49.75 -240.32 46.97 -233.25 44.55 C-226.53 42.23 -219.89 39.76 -213.25 37.24 C-185.9 26.93 -158.24 17.68 -130.43 8.71 C-124.57 6.82 -118.74 4.88 -112.92 2.9 C-96.52 -2.68 -79.85 -7.26 -63.06 -11.51 C-62.26 -11.71 -61.46 -11.92 -60.64 -12.13 C-37.58 -17.84 -18.83 -14.12 0 0 Z " fill="#000100" transform="translate(865.18359375,189.63671875)"/>
<path d="M0 0 C0 0.66 0 1.32 0 2 C0.66 2 1.32 2 2 2 C2 2.66 2 3.32 2 4 C2.66 4 3.32 4 4 4 C5.44 5.94 5.44 5.94 7 8.56 C7.52 9.41 8.03 10.26 8.56 11.13 C13.68 21.34 13.66 35.59 11 46.62 C8.32 54.65 4.63 62.37 1 70 C0.71 70.62 0.41 71.25 0.11 71.89 C-8.3 89.38 -19.98 105.81 -32 121 C-32.66 121.84 -33.32 122.68 -34 123.54 C-38.19 128.82 -42.47 134.03 -46.75 139.24 C-49.69 142.84 -52.54 146.52 -55.37 150.2 C-55.91 150.79 -56.45 151.39 -57 152 C-57.66 152 -58.32 152 -59 152 C-59.37 152.84 -59.37 152.84 -59.74 153.7 C-61.24 156.44 -63.07 158.46 -65.19 160.75 C-67.94 163.74 -70.67 166.76 -73.33 169.83 C-77.56 174.67 -81.97 179.33 -86.39 184 C-90.24 188.08 -93.95 192.23 -97.54 196.53 C-98.02 197.02 -98.5 197.5 -99 198 C-99.66 198 -100.32 198 -101 198 C-101.26 198.59 -101.53 199.19 -101.8 199.8 C-103.04 202.08 -104.3 203.47 -106.19 205.25 C-108.76 207.74 -111.17 210.28 -113.5 213 C-115.75 215.61 -118.05 218.09 -120.5 220.5 C-124.21 224.16 -127.62 228.03 -131 232 C-131.85 232.99 -132.7 233.99 -133.57 235.01 C-143.58 246.73 -143.58 246.73 -153.13 258.81 C-154.06 259.9 -154.06 259.9 -155 261 C-155.66 261 -156.32 261 -157 261 C-157.22 261.56 -157.44 262.12 -157.67 262.7 C-164.2 273.99 -180.51 281.66 -192.3 285.75 C-193.01 286 -193.73 286.25 -194.47 286.51 C-204.52 289.95 -214.75 292.8 -224.96 295.72 C-231.1 297.48 -237.23 299.26 -243.37 301.04 C-244.57 301.38 -245.76 301.73 -247 302.09 C-283.47 312.68 -319.1 325.01 -354 340 C-355.06 340.46 -356.12 340.91 -357.21 341.38 C-362.99 343.86 -368.75 346.38 -374.5 348.91 C-376.85 349.93 -379.2 350.95 -381.55 351.96 C-388.29 354.87 -394.92 357.89 -401.45 361.23 C-404.31 362.66 -407.19 364.04 -410.08 365.4 C-423.68 371.79 -436.9 378.65 -450 386 C-450.92 386.51 -451.83 387.03 -452.78 387.55 C-488.93 407.52 -488.93 407.52 -523.82 429.55 C-527.18 431.84 -530.59 433.92 -534.15 435.91 C-537.8 438.06 -541.26 440.48 -544.75 442.88 C-545.98 443.72 -545.98 443.72 -547.24 444.58 C-555.6 450.36 -563.79 456.37 -571.93 462.46 C-573.74 463.81 -575.55 465.15 -577.37 466.5 C-586.27 473.12 -594.96 480 -603.65 486.9 C-631.32 508.85 -631.32 508.85 -651 507 C-655.7 505.6 -660.43 503.42 -664 500 C-664 499.34 -664 498.68 -664 498 C-664.99 497.67 -665.98 497.34 -667 497 C-668.1 495.43 -668.1 495.43 -669.06 493.44 C-669.38 492.8 -669.7 492.16 -670.04 491.5 C-678.48 469.66 -669.79 447.38 -662.04 426.78 C-655.35 409.81 -655.35 409.81 -652 392 C-651.86 390.26 -651.86 390.26 -651.72 388.48 C-650.07 346.5 -668.34 302.26 -695.64 270.95 C-704.59 260.61 -711.64 249.64 -710.88 235.56 C-709.28 222.17 -701.83 212.74 -692 204 C-686.05 199.36 -679.64 195.3 -673.21 191.36 C-662.31 184.63 -651.45 177.69 -641.06 170.19 C-638 168 -638 168 -635.82 166.7 C-633.57 165.34 -631.37 163.95 -629.18 162.51 C-628.48 162.05 -627.78 161.59 -627.05 161.12 C-625.62 160.18 -624.19 159.24 -622.77 158.29 C-617.9 155.11 -612.91 152.26 -607.79 149.51 C-604.22 147.58 -600.7 145.57 -597.18 143.56 C-579.38 133.41 -561.51 123.31 -542.87 114.79 C-538.86 112.96 -534.93 110.99 -531 109 C-491.35 89.06 -449.7 72.36 -407.75 57.95 C-404.38 56.78 -401.01 55.6 -397.65 54.41 C-376.85 47.07 -355.91 40.27 -334.76 34.01 C-328.25 32.08 -321.78 30.06 -315.32 27.97 C-312.81 27.24 -310.37 26.63 -307.81 26.08 C-303.39 25.11 -299.05 23.94 -294.7 22.69 C-284.79 19.89 -274.82 17.42 -264.81 15 C-263.91 14.78 -263.01 14.56 -262.08 14.34 C-234.22 7.59 -206.21 2.05 -178 -3 C-177.17 -3.15 -176.35 -3.3 -175.5 -3.45 C-158.27 -6.55 -158.27 -6.55 -149.44 -6.44 C-148.57 -6.43 -147.7 -6.43 -146.8 -6.42 C-137.02 -6.2 -128.12 -3.77 -118.77 -1.07 C-105.96 2.47 -94.88 1.18 -82.23 -2.38 C-55.79 -9.72 -24.02 -17.68 0 0 Z " fill="#000100" transform="translate(1172,458)"/>
<path d="M0 0 C2.64 -0 5.27 -0.02 7.91 -0.04 C26.27 -0.1 46.53 0.88 60.77 14.03 C68.45 22.35 71.52 30.76 73.34 41.81 C74.99 51.75 76.66 59.48 84.77 66.19 C91.63 70.08 98.88 72.84 106.27 75.5 C118.6 80.03 130.65 85 142.34 91 C151.41 95.56 159.49 97.55 169.77 96.19 C177.47 93.56 183.78 87.99 190.22 83.16 C205.62 71.79 223.54 69.29 242.27 72 C244.44 72.38 246.61 72.78 248.77 73.19 C249.9 73.37 251.02 73.55 252.18 73.74 C271.74 77.18 295.72 83.31 307.77 100.19 C311.39 106.78 311.68 112.61 310.22 119.95 C307.61 128.81 302.01 134.33 293.98 138.71 C285.87 142.45 277.67 145.4 269.18 148.14 C265.21 149.42 261.25 150.72 257.29 152.03 C256.49 152.29 255.69 152.56 254.86 152.83 C243.26 156.66 231.76 160.8 220.26 164.93 C217.03 166.09 213.79 167.24 210.56 168.38 C196.5 173.35 182.59 178.69 168.71 184.14 C167.25 184.71 165.79 185.28 164.33 185.85 C163.62 186.13 162.9 186.41 162.16 186.7 C157.31 188.6 152.44 190.44 147.56 192.25 C140.23 194.98 132.99 197.92 125.77 200.94 C124.52 201.46 123.27 201.98 122.02 202.5 C119.49 203.55 116.96 204.61 114.43 205.66 C110.99 207.1 107.54 208.52 104.09 209.94 C94.38 213.94 84.75 218.02 75.27 222.54 C71.49 224.32 67.67 225.98 63.84 227.62 C57.73 230.26 51.77 233.12 45.84 236.14 C41.09 238.55 36.29 240.83 31.46 243.06 C24.88 246.12 18.46 249.42 12.06 252.84 C3.67 257.3 -4.84 261.51 -13.35 265.75 C-22.93 270.51 -32.49 275.29 -41.91 280.35 C-47.18 283.18 -52.51 285.85 -57.88 288.48 C-65.36 292.29 -72.6 296.53 -79.85 300.75 C-81.47 301.69 -83.09 302.63 -84.7 303.56 C-85.48 304.01 -86.25 304.47 -87.05 304.93 C-88.92 306.01 -90.79 307.06 -92.67 308.12 C-97.38 310.8 -101.92 313.76 -106.48 316.69 C-108.44 317.94 -110.4 319.19 -112.36 320.44 C-113.34 321.07 -114.32 321.7 -115.33 322.34 C-118.86 324.59 -122.4 326.82 -125.94 329.05 C-133.78 333.98 -141.57 338.98 -149.23 344.19 C-149.91 344.65 -150.6 345.12 -151.3 345.59 C-162.7 353.33 -174 361.2 -185.23 369.19 C-185.86 369.64 -186.49 370.09 -187.14 370.55 C-193.83 375.31 -200.5 380.09 -207.12 384.93 C-209.56 386.7 -212 388.46 -214.45 390.22 C-222.47 395.98 -230.41 401.79 -238.21 407.85 C-241.25 410.2 -244.33 412.51 -247.41 414.81 C-251.88 418.15 -256.26 421.58 -260.6 425.09 C-263.61 427.49 -266.66 429.84 -269.73 432.19 C-277.09 437.82 -284.31 443.61 -291.48 449.5 C-295.87 453.09 -300.28 456.66 -304.73 460.19 C-305.33 460.67 -305.93 461.15 -306.54 461.64 C-309.1 463.66 -311.11 465.15 -314.23 466.19 C-314.23 466.85 -314.23 467.51 -314.23 468.19 C-315.92 469.74 -315.92 469.74 -318.35 471.62 C-319.26 472.33 -320.18 473.04 -321.12 473.77 C-322.14 474.57 -323.17 475.36 -324.23 476.19 C-325.35 477.09 -326.47 478 -327.59 478.91 C-340.07 489.03 -353.31 498.8 -370.23 497.19 C-379.58 495.38 -388.2 491.76 -395.23 485.19 C-395.23 484.53 -395.23 483.87 -395.23 483.19 C-395.89 483.19 -396.55 483.19 -397.23 483.19 C-398.97 481.27 -400.57 479.35 -402.16 477.31 C-402.65 476.69 -403.13 476.06 -403.63 475.42 C-425.07 447.29 -438.78 415.31 -435.94 379.6 C-434.15 368.24 -429.33 357.65 -425.02 347.05 C-424.55 345.91 -424.09 344.76 -423.61 343.58 C-422.71 341.37 -421.79 339.16 -420.87 336.95 C-413.74 319.49 -413.89 303.2 -414.16 284.62 C-414.51 258.11 -412.8 236.49 -400.12 212.87 C-399.38 211.47 -398.66 210.06 -397.95 208.64 C-391.87 196.81 -382.37 186.71 -373.23 177.19 C-372.44 176.35 -372.44 176.35 -371.63 175.5 C-367.37 171.1 -362.84 167.42 -357.85 163.87 C-357.07 163.31 -356.29 162.75 -355.48 162.18 C-347.68 156.67 -339.55 151.85 -331.23 147.19 C-329.77 146.36 -328.31 145.53 -326.85 144.71 C-323.58 142.86 -320.31 141.02 -317.02 139.2 C-315.77 138.49 -314.52 137.77 -313.28 137.04 C-308.43 134.19 -308.43 134.19 -306.23 134.19 C-306.23 133.53 -306.23 132.87 -306.23 132.19 C-305.67 131.91 -305.11 131.63 -304.54 131.34 C-299.34 128.61 -295.12 125.58 -290.85 121.54 C-289.23 120.19 -289.23 120.19 -287.23 120.19 C-287.23 119.53 -287.23 118.87 -287.23 118.19 C-284.85 115.56 -284.85 115.56 -282.23 113.19 C-281.57 113.19 -280.91 113.19 -280.23 113.19 C-279.97 112.63 -279.72 112.07 -279.46 111.5 C-278.03 108.82 -276.33 106.59 -274.48 104.19 C-270.22 98.62 -266.21 92.89 -262.23 87.12 C-257.18 79.86 -252 72.89 -246.23 66.19 C-245.7 65.54 -245.17 64.89 -244.63 64.22 C-226.62 42.27 -199.82 31.19 -172.23 28.19 C-167.15 27.73 -162.07 27.33 -156.98 26.93 C-128.31 24.7 -101.52 18.72 -73.82 11.27 C-62.94 8.34 -52.08 5.62 -41.04 3.37 C-40.03 3.17 -39.03 2.96 -38 2.74 C-25.36 0.25 -12.83 -0 0 0 Z " fill="#000100" transform="translate(457.22607421875,20.814697265625)"/>
<path d="M0 0 C12.17 11.25 16.78 26.68 20.19 42.38 C20.34 43.08 20.5 43.79 20.66 44.51 C23.42 58.07 24.37 71.71 24.37 85.53 C24.37 87.93 24.41 90.34 24.45 92.74 C24.61 115.38 18.61 136.05 2.53 152.52 C-7.29 162.05 -19.12 169.14 -30.6 176.46 C-40.08 182.52 -49.47 188.63 -58 196 C-58.63 196.54 -59.27 197.08 -59.92 197.63 C-71.02 207.8 -74.63 220.92 -75.29 235.51 C-75.4 238.48 -75.5 241.46 -75.6 244.44 C-76.25 262.39 -80.57 278.16 -91 293 C-91.56 293.81 -92.13 294.62 -92.71 295.46 C-95.63 299.52 -95.63 299.52 -97 301 C-97.66 301 -98.32 301 -99 301 C-99.34 301.83 -99.34 301.83 -99.69 302.67 C-101.38 305.67 -103.54 307.79 -105.94 310.25 C-117.38 322.37 -125.89 337.09 -134.15 351.48 C-144.16 368.9 -154.62 386.88 -168 402 C-168.66 402 -169.32 402 -170 402 C-170.26 402.58 -170.52 403.16 -170.78 403.77 C-173.01 407.85 -176.53 410.87 -179.81 414.12 C-180.58 414.89 -181.34 415.65 -182.13 416.43 C-188.4 422.57 -194.8 428 -202 433 C-203.05 433.73 -204.1 434.46 -205.18 435.21 C-221.31 446 -238.42 454.4 -257 460 C-257.81 460.24 -258.61 460.49 -259.45 460.74 C-261.85 461.46 -264.27 462.14 -266.69 462.81 C-267.37 463.01 -268.06 463.2 -268.77 463.4 C-282.56 467 -296.87 467.35 -311.03 467.32 C-313.7 467.31 -316.36 467.34 -319.03 467.36 C-329.11 467.4 -338.23 466.7 -348 464 C-348.78 463.79 -349.55 463.58 -350.35 463.36 C-360.21 460.43 -368.74 452.62 -374 444 C-378.47 435.76 -381.7 427.2 -384.81 418.38 C-390.48 402.38 -397.93 387.55 -406.45 372.9 C-413.96 359.99 -421.19 346.77 -427 333 C-427.28 332.35 -427.56 331.7 -427.84 331.03 C-433.33 318.12 -437.41 305.22 -440.81 291.62 C-441.28 289.81 -441.75 288 -442.22 286.18 C-454.48 238.49 -454.48 238.49 -444 218 C-433.58 201.19 -417.2 189.21 -402 177 C-401.41 176.53 -400.82 176.05 -400.21 175.56 C-390.03 167.4 -379.54 159.68 -369 152 C-368.23 151.43 -367.45 150.87 -366.65 150.29 C-348.82 137.28 -330.68 124.75 -312 113 C-310.89 112.3 -309.78 111.59 -308.63 110.87 C-283.35 94.91 -257.6 79.66 -231 66 C-230.37 65.68 -229.75 65.35 -229.11 65.02 C-218.08 59.33 -206.81 54.14 -195.56 48.92 C-188.09 45.48 -188.09 45.48 -180.72 41.83 C-177.16 40.02 -173.5 38.57 -169.78 37.11 C-166.68 35.87 -163.63 34.56 -160.57 33.23 C-158.85 32.49 -158.85 32.49 -157.1 31.72 C-154.77 30.71 -152.45 29.7 -150.13 28.69 C-133.87 21.65 -117.1 15.91 -100.38 10.06 C-99.51 9.76 -98.65 9.46 -97.76 9.15 C-87.12 5.43 -76.48 1.76 -65.75 -1.69 C-64.81 -1.99 -63.88 -2.29 -62.91 -2.6 C-42.17 -9.16 -18.73 -14.36 0 0 Z " fill="#000100" transform="translate(986,793)"/>
<path d="M0 0 C4.47 3.63 8.15 7.94 11.82 12.36 C12.4 13.06 12.98 13.75 13.58 14.46 C38.91 45.37 58.09 80.77 77.81 115.35 C80.41 119.91 83.03 124.46 85.69 128.99 C88.85 134.38 91.84 139.86 94.82 145.36 C100.5 155.87 106.49 166.2 113.44 175.93 C121.99 188.06 127.08 199.25 125.82 214.36 C123.53 223.46 118.53 229.9 110.62 234.86 C94.96 243.27 77.1 245.94 59.79 248.95 C56.49 249.52 53.18 250.1 49.88 250.68 C49.04 250.82 48.21 250.97 47.35 251.12 C25.61 254.93 4.23 260.16 -16.87 266.66 C-19.67 267.51 -22.47 268.32 -25.29 269.13 C-41.11 273.71 -56.68 278.79 -72.18 284.36 C-73.01 284.66 -73.85 284.96 -74.7 285.27 C-81.49 287.71 -88.28 290.16 -95.06 292.61 C-96.02 292.96 -96.97 293.31 -97.96 293.66 C-108.14 297.35 -118.23 301.1 -128.18 305.36 C-131.83 306.85 -135.49 308.29 -139.15 309.74 C-149.58 313.91 -159.9 318.35 -170.22 322.76 C-171.73 323.41 -173.24 324.06 -174.76 324.7 C-184.37 328.79 -193.89 333.02 -203.33 337.49 C-205.87 338.69 -208.41 339.88 -210.96 341.06 C-242.75 355.84 -242.75 355.84 -274.18 371.36 C-275.45 372.01 -275.45 372.01 -276.74 372.67 C-288.63 378.76 -300.36 385.08 -311.96 391.71 C-318.35 395.35 -324.8 398.85 -331.31 402.26 C-335.77 404.59 -340.15 407.03 -344.5 409.55 C-363.77 420.62 -382.01 427.59 -404.32 421.82 C-407.85 420.79 -411.34 419.66 -414.83 418.49 C-418.08 417.4 -421.35 416.35 -424.62 415.31 C-427.79 414.31 -430.95 413.29 -434.12 412.26 C-435.67 411.75 -437.23 411.25 -438.79 410.75 C-451.97 406.52 -463.98 400.88 -476.04 394.1 C-498.09 381.83 -517.54 385.16 -541.04 390.63 C-676.1 422.07 -676.1 422.07 -713 400.18 C-722.29 393.82 -728.93 385.54 -731.18 374.36 C-732.33 362.73 -729.83 352.77 -722.68 343.43 C-721.53 342.06 -720.36 340.71 -719.18 339.36 C-718.25 338.18 -717.31 336.99 -716.37 335.8 C-715.29 334.59 -715.29 334.59 -714.18 333.36 C-713.52 333.36 -712.86 333.36 -712.18 333.36 C-711.85 332.37 -711.52 331.38 -711.18 330.36 C-710.52 330.36 -709.86 330.36 -709.18 330.36 C-709.18 329.7 -709.18 329.04 -709.18 328.36 C-707.89 327.06 -707.89 327.06 -706 325.49 C-702.18 322.26 -698.52 318.9 -694.87 315.49 C-690 310.95 -684.98 306.67 -679.79 302.5 C-677.21 300.39 -674.76 298.18 -672.31 295.93 C-668.07 292.07 -663.63 288.55 -659.07 285.09 C-655.55 282.42 -652.09 279.68 -648.68 276.86 C-643.16 272.31 -637.51 267.95 -631.82 263.62 C-630.24 262.41 -628.67 261.19 -627.1 259.96 C-617.96 252.86 -608.6 246.09 -599.18 239.36 C-598.45 238.84 -597.72 238.31 -596.96 237.77 C-587.76 231.2 -578.46 224.8 -569.02 218.58 C-567.18 217.36 -565.34 216.13 -563.51 214.91 C-533.19 194.58 -502.13 175.41 -470.62 156.99 C-469.65 156.42 -468.67 155.85 -467.67 155.26 C-461.24 151.51 -454.74 147.9 -448.18 144.36 C-446.43 143.41 -444.68 142.46 -442.93 141.5 C-442.06 141.03 -441.2 140.56 -440.31 140.08 C-439.42 139.59 -438.54 139.11 -437.62 138.61 C-436.67 138.1 -435.72 137.58 -434.75 137.05 C-429.49 134.18 -424.26 131.29 -419.04 128.36 C-411 123.86 -402.87 119.62 -394.6 115.56 C-391.78 114.16 -388.98 112.75 -386.18 111.33 C-373.09 104.72 -359.93 98.41 -346.55 92.43 C-343.2 90.92 -339.88 89.36 -336.56 87.8 C-310.77 75.73 -284.54 64.78 -258.13 54.15 C-256.81 53.62 -255.49 53.08 -254.17 52.55 C-247.24 49.75 -240.32 46.97 -233.25 44.55 C-226.53 42.23 -219.89 39.76 -213.25 37.24 C-185.9 26.93 -158.24 17.68 -130.43 8.71 C-124.57 6.82 -118.74 4.88 -112.92 2.9 C-96.52 -2.68 -79.85 -7.26 -63.06 -11.51 C-62.26 -11.71 -61.46 -11.92 -60.64 -12.13 C-37.58 -17.84 -18.83 -14.12 0 0 Z M-53.87 2.93 C-54.69 3.12 -55.51 3.32 -56.36 3.52 C-77.5 8.61 -98.1 15.37 -118.73 22.22 C-123.01 23.64 -127.29 25.04 -131.57 26.44 C-166.03 37.72 -200.28 49.48 -234.18 62.36 C-235.28 62.78 -235.28 62.78 -236.4 63.2 C-253.64 69.76 -270.65 76.84 -287.64 84.03 C-292.79 86.2 -297.95 88.34 -303.12 90.47 C-312.94 94.53 -322.62 98.74 -332.18 103.36 C-334.22 104.34 -336.25 105.32 -338.29 106.3 C-342.96 108.54 -347.63 110.79 -352.29 113.05 C-356.5 115.08 -360.72 117.09 -364.95 119.09 C-387.29 129.62 -409.22 140.93 -430.64 153.22 C-436.45 156.54 -442.35 159.7 -448.25 162.86 C-459.75 169.05 -471 175.62 -482.18 182.36 C-483.28 183.02 -484.38 183.68 -485.51 184.36 C-507.01 197.29 -528.18 210.64 -549.06 224.55 C-549.74 225.01 -550.43 225.46 -551.13 225.93 C-564.22 234.65 -577.28 243.42 -590 252.68 C-591.1 253.48 -591.1 253.48 -592.23 254.3 C-594.55 255.98 -596.87 257.67 -599.18 259.36 C-600.35 260.21 -600.35 260.21 -601.54 261.08 C-621.79 275.84 -641.54 291.22 -660.61 307.49 C-663.88 310.28 -667.2 312.99 -670.56 315.68 C-676.55 320.54 -682.12 325.83 -687.73 331.13 C-690.31 333.56 -692.93 335.93 -695.62 338.24 C-699.03 341.17 -702.16 344.32 -705.31 347.53 C-706.92 349.1 -708.54 350.49 -710.31 351.86 C-715.14 356.07 -719.2 360.37 -720.31 366.86 C-720.56 372.81 -718.38 376.94 -714.45 381.28 C-702.74 392.28 -689.4 391.58 -674.18 391.36 C-627.53 389.62 -580.47 381.94 -535.38 370.04 C-527.09 367.88 -518.9 365.96 -510.38 364.96 C-509.31 364.83 -509.31 364.83 -508.22 364.69 C-502.12 364.08 -496.98 365.02 -491.1 366.64 C-488.33 367.33 -486.03 367.5 -483.18 367.36 C-483.18 368.02 -483.18 368.68 -483.18 369.36 C-480.96 370.83 -478.74 372.17 -476.43 373.49 C-470.29 377.06 -464.4 380.85 -458.57 384.93 C-456.22 386.62 -456.22 386.62 -453.18 386.36 C-453.18 387.02 -453.18 387.68 -453.18 388.36 C-443.01 392 -433.11 395.04 -422.44 396.82 C-419.18 397.36 -419.18 397.36 -416.86 398 C-415.08 398.57 -415.08 398.57 -413.18 397.36 C-412.85 398.02 -412.52 398.68 -412.18 399.36 C-409.15 400.02 -409.15 400.02 -406.18 400.36 C-405.85 401.35 -405.52 402.34 -405.18 403.36 C-398.52 408.51 -391.92 409.54 -383.75 409.24 C-375.42 407.19 -367.86 402.13 -360.5 397.86 C-358.64 396.8 -356.79 395.74 -354.94 394.67 C-353.99 394.13 -353.04 393.58 -352.07 393.02 C-309.81 368.76 -266.59 345.31 -221.81 325.98 C-219.34 324.88 -216.94 323.75 -214.53 322.52 C-210.08 320.29 -205.56 318.22 -201.01 316.18 C-200.14 315.79 -199.28 315.4 -198.38 315 C-188.64 310.65 -178.83 306.45 -169 302.3 C-168.03 301.89 -167.07 301.49 -166.08 301.07 C-95.96 271.51 -23.71 244.69 51.5 231.65 C85.52 228.4 85.52 228.4 113.75 214.05 C115.16 210.5 114.61 208.04 113.82 204.36 C113.16 204.36 112.5 204.36 111.82 204.36 C111.73 203.63 111.64 202.9 111.55 202.14 C110.67 198.82 109.36 197.35 107 194.86 C106.28 194.09 105.56 193.31 104.82 192.51 C104.16 191.8 103.5 191.09 102.82 190.36 C101.46 188.71 100.12 187.05 98.82 185.36 C98.35 184.78 97.89 184.19 97.41 183.59 C95.58 181.03 94.11 178.38 92.63 175.61 C91.83 174.14 91.83 174.14 91.02 172.63 C90.63 171.88 90.23 171.13 89.82 170.36 C89.16 170.36 88.5 170.36 87.82 170.36 C87.46 168.9 87.46 168.9 87.11 167.4 C85.79 162.82 83.56 158.91 81.19 154.8 C80.53 153.63 80.53 153.63 79.86 152.44 C78.52 150.08 77.17 147.72 75.82 145.36 C75 143.94 74.19 142.51 73.38 141.08 C71.53 137.83 69.68 134.6 67.82 131.36 C67.16 131.36 66.5 131.36 65.82 131.36 C65.55 130.31 65.28 129.26 65 128.18 C63.91 124.66 62.72 122.47 60.82 119.36 C59.22 116.44 57.68 113.5 56.13 110.55 C55.71 109.76 55.3 108.97 54.87 108.16 C53.85 106.23 52.83 104.3 51.82 102.36 C51.16 102.36 50.5 102.36 49.82 102.36 C49.49 100.71 49.16 99.06 48.82 97.36 C48.16 97.36 47.5 97.36 46.82 97.36 C46.71 96.64 46.61 95.91 46.5 95.16 C45.75 92.1 44.64 90.15 42.88 87.55 C42.09 86.37 42.09 86.37 41.29 85.16 C40.56 84.27 40.56 84.27 39.82 83.36 C39.16 83.36 38.5 83.36 37.82 83.36 C37.67 82.41 37.53 81.47 37.38 80.49 C36.99 77.47 36.99 77.47 35.82 75.36 C35.16 75.36 34.5 75.36 33.82 75.36 C33.55 74.48 33.28 73.59 33 72.68 C31.54 68.6 29.88 65.43 26.82 62.36 C25.82 60.36 24.82 58.36 23.82 56.36 C21.97 54.31 21.97 54.31 19.82 53.36 C19.68 52.8 19.55 52.23 19.41 51.65 C16.89 41.98 6.89 30.38 -0.18 23.36 C-1.42 21.79 -2.65 20.2 -3.87 18.61 C-7.59 13.94 -11.51 10.07 -16.18 6.36 C-16.9 5.79 -17.62 5.22 -18.36 4.64 C-29.5 -3.96 -41.12 -0.15 -53.87 2.93 Z " fill="#FAFCFC" transform="translate(865.18359375,189.63671875)"/>
<path d="M0 0 C2.64 -0 5.27 -0.02 7.91 -0.04 C26.27 -0.1 46.53 0.88 60.77 14.03 C68.45 22.35 71.52 30.76 73.34 41.81 C74.99 51.75 76.66 59.48 84.77 66.19 C91.63 70.08 98.88 72.84 106.27 75.5 C118.6 80.03 130.65 85 142.34 91 C151.41 95.56 159.49 97.55 169.77 96.19 C177.47 93.56 183.78 87.99 190.22 83.16 C205.62 71.79 223.54 69.29 242.27 72 C244.44 72.38 246.61 72.78 248.77 73.19 C249.9 73.37 251.02 73.55 252.18 73.74 C271.74 77.18 295.72 83.31 307.77 100.19 C311.39 106.78 311.68 112.61 310.22 119.95 C307.61 128.81 302.01 134.33 293.98 138.71 C285.87 142.45 277.67 145.4 269.18 148.14 C265.21 149.42 261.25 150.72 257.29 152.03 C256.49 152.29 255.69 152.56 254.86 152.83 C243.26 156.66 231.76 160.8 220.26 164.93 C217.03 166.09 213.79 167.24 210.56 168.38 C196.5 173.35 182.59 178.69 168.71 184.14 C167.25 184.71 165.79 185.28 164.33 185.85 C163.62 186.13 162.9 186.41 162.16 186.7 C157.31 188.6 152.44 190.44 147.56 192.25 C140.23 194.98 132.99 197.92 125.77 200.94 C124.52 201.46 123.27 201.98 122.02 202.5 C119.49 203.55 116.96 204.61 114.43 205.66 C110.99 207.1 107.54 208.52 104.09 209.94 C94.38 213.94 84.75 218.02 75.27 222.54 C71.49 224.32 67.67 225.98 63.84 227.62 C57.73 230.26 51.77 233.12 45.84 236.14 C41.09 238.55 36.29 240.83 31.46 243.06 C24.88 246.12 18.46 249.42 12.06 252.84 C3.67 257.3 -4.84 261.51 -13.35 265.75 C-22.93 270.51 -32.49 275.29 -41.91 280.35 C-47.18 283.18 -52.51 285.85 -57.88 288.48 C-65.36 292.29 -72.6 296.53 -79.85 300.75 C-81.47 301.69 -83.09 302.63 -84.7 303.56 C-85.48 304.01 -86.25 304.47 -87.05 304.93 C-88.92 306.01 -90.79 307.06 -92.67 308.12 C-97.38 310.8 -101.92 313.76 -106.48 316.69 C-108.44 317.94 -110.4 319.19 -112.36 320.44 C-113.34 321.07 -114.32 321.7 -115.33 322.34 C-118.86 324.59 -122.4 326.82 -125.94 329.05 C-133.78 333.98 -141.57 338.98 -149.23 344.19 C-149.91 344.65 -150.6 345.12 -151.3 345.59 C-162.7 353.33 -174 361.2 -185.23 369.19 C-185.86 369.64 -186.49 370.09 -187.14 370.55 C-193.83 375.31 -200.5 380.09 -207.12 384.93 C-209.56 386.7 -212 388.46 -214.45 390.22 C-222.47 395.98 -230.41 401.79 -238.21 407.85 C-241.25 410.2 -244.33 412.51 -247.41 414.81 C-251.88 418.15 -256.26 421.58 -260.6 425.09 C-263.61 427.49 -266.66 429.84 -269.73 432.19 C-277.09 437.82 -284.31 443.61 -291.48 449.5 C-295.87 453.09 -300.28 456.66 -304.73 460.19 C-305.33 460.67 -305.93 461.15 -306.54 461.64 C-309.1 463.66 -311.11 465.15 -314.23 466.19 C-314.23 466.85 -314.23 467.51 -314.23 468.19 C-315.92 469.74 -315.92 469.74 -318.35 471.62 C-319.26 472.33 -320.18 473.04 -321.12 473.77 C-322.14 474.57 -323.17 475.36 -324.23 476.19 C-325.35 477.09 -326.47 478 -327.59 478.91 C-340.07 489.03 -353.31 498.8 -370.23 497.19 C-379.58 495.38 -388.2 491.76 -395.23 485.19 C-395.23 484.53 -395.23 483.87 -395.23 483.19 C-395.89 483.19 -396.55 483.19 -397.23 483.19 C-398.97 481.27 -400.57 479.35 -402.16 477.31 C-402.65 476.69 -403.13 476.06 -403.63 475.42 C-425.07 447.29 -438.78 415.31 -435.94 379.6 C-434.15 368.24 -429.33 357.65 -425.02 347.05 C-424.55 345.91 -424.09 344.76 -423.61 343.58 C-422.71 341.37 -421.79 339.16 -420.87 336.95 C-413.74 319.49 -413.89 303.2 -414.16 284.62 C-414.51 258.11 -412.8 236.49 -400.12 212.87 C-399.38 211.47 -398.66 210.06 -397.95 208.64 C-391.87 196.81 -382.37 186.71 -373.23 177.19 C-372.44 176.35 -372.44 176.35 -371.63 175.5 C-367.37 171.1 -362.84 167.42 -357.85 163.87 C-357.07 163.31 -356.29 162.75 -355.48 162.18 C-347.68 156.67 -339.55 151.85 -331.23 147.19 C-329.77 146.36 -328.31 145.53 -326.85 144.71 C-323.58 142.86 -320.31 141.02 -317.02 139.2 C-315.77 138.49 -314.52 137.77 -313.28 137.04 C-308.43 134.19 -308.43 134.19 -306.23 134.19 C-306.23 133.53 -306.23 132.87 -306.23 132.19 C-305.67 131.91 -305.11 131.63 -304.54 131.34 C-299.34 128.61 -295.12 125.58 -290.85 121.54 C-289.23 120.19 -289.23 120.19 -287.23 120.19 C-287.23 119.53 -287.23 118.87 -287.23 118.19 C-284.85 115.56 -284.85 115.56 -282.23 113.19 C-281.57 113.19 -280.91 113.19 -280.23 113.19 C-279.97 112.63 -279.72 112.07 -279.46 111.5 C-278.03 108.82 -276.33 106.59 -274.48 104.19 C-270.22 98.62 -266.21 92.89 -262.23 87.12 C-257.18 79.86 -252 72.89 -246.23 66.19 C-245.7 65.54 -245.17 64.89 -244.63 64.22 C-226.62 42.27 -199.82 31.19 -172.23 28.19 C-167.15 27.73 -162.07 27.33 -156.98 26.93 C-128.31 24.7 -101.52 18.72 -73.82 11.27 C-62.94 8.34 -52.08 5.62 -41.04 3.37 C-40.03 3.17 -39.03 2.96 -38 2.74 C-25.36 0.25 -12.83 -0 0 0 Z M-53.54 22.81 C-54.9 23.16 -56.27 23.5 -57.63 23.85 C-67.23 26.3 -76.73 29.05 -86.23 31.87 C-110.4 39.04 -133.63 42.94 -158.79 43.62 C-185.26 44.39 -207.63 49.18 -227.23 68.19 C-227.84 68.77 -228.45 69.35 -229.08 69.95 C-233.84 74.59 -237.99 79.44 -241.91 84.81 C-242.51 85.62 -243.1 86.42 -243.72 87.26 C-248.24 93.53 -252.19 100.04 -256.04 106.75 C-260.45 114.43 -264.7 121.11 -271.23 127.19 C-271.92 127.86 -272.61 128.53 -273.32 129.23 C-287.05 142.09 -304.25 150.98 -320.8 159.64 C-355.65 177.9 -382.68 202.29 -395.22 240.39 C-397.48 248.89 -398.56 257.02 -398.48 265.81 C-398.47 267.28 -398.47 267.28 -398.46 268.77 C-398.37 277.35 -397.69 285.84 -396.95 294.38 C-395.12 315.67 -397.73 330.41 -408.03 349.01 C-419.04 369.09 -424.19 390.45 -418.66 413.19 C-417.91 415.54 -417.1 417.87 -416.23 420.19 C-415.77 421.4 -415.32 422.62 -414.86 423.88 C-407.37 442.83 -392.81 472.86 -374.29 483.28 C-370.12 484.7 -366.37 484.43 -362.23 483.19 C-355.1 478.9 -349.04 473.33 -342.98 467.69 C-338.55 463.66 -333.89 459.94 -329.23 456.19 C-327.5 454.77 -325.77 453.35 -324.04 451.94 C-322.1 450.35 -320.16 448.77 -318.23 447.19 C-317.63 446.7 -317.03 446.2 -316.41 445.7 C-307.09 438.09 -297.71 430.58 -288.23 423.19 C-287.16 422.36 -287.16 422.36 -286.08 421.51 C-277.12 414.52 -268.15 407.55 -259.13 400.64 C-257.72 399.57 -256.32 398.49 -254.92 397.41 C-245.01 389.8 -235.06 382.26 -224.89 374.98 C-220.29 371.68 -215.72 368.34 -211.18 364.96 C-202.6 358.59 -193.88 352.46 -185.04 346.47 C-180.92 343.67 -176.85 340.82 -172.79 337.95 C-162.12 330.41 -151.25 323.22 -140.23 316.19 C-139.42 315.67 -138.62 315.16 -137.79 314.63 C-132.29 311.12 -126.76 307.64 -121.23 304.19 C-120.51 303.74 -119.8 303.29 -119.07 302.84 C-88.93 284.07 -57.75 267.32 -25.97 251.54 C-18.23 247.7 -10.53 243.83 -2.91 239.75 C5.71 235.13 14.52 230.95 23.36 226.77 C27.8 224.66 32.2 222.48 36.59 220.25 C71.69 202.52 108.35 187.93 144.77 173.19 C145.47 172.9 146.17 172.62 146.89 172.33 C163.64 165.54 180.61 159.4 197.65 153.37 C198.67 153.01 199.69 152.65 200.75 152.28 C217.31 146.42 233.9 140.67 250.52 135 C251.55 134.65 252.58 134.3 253.64 133.93 C256.61 132.92 259.59 131.9 262.57 130.89 C263.51 130.57 264.46 130.25 265.43 129.92 C270.06 128.37 274.69 126.9 279.39 125.58 C280.29 125.32 281.19 125.07 282.11 124.8 C283.79 124.34 285.46 123.88 287.14 123.45 C292.78 121.88 297.68 119.47 301.77 115.19 C302.84 112.38 302.91 111.55 301.84 108.69 C297.23 103.1 289.5 101.26 282.77 99.28 C281.93 99.02 281.09 98.77 280.22 98.51 C278.45 97.97 276.68 97.45 274.9 96.92 C272.24 96.13 269.58 95.33 266.92 94.52 C235.24 84.89 235.24 84.89 203.34 89.81 C196.73 93.66 192.78 100.1 188.71 106.37 C185.37 111.51 182.34 115.4 176.77 118.19 C161.11 119.73 149.61 113.74 136.25 106.62 C122.46 99.3 108.38 92.94 93.53 88.07 C92.73 87.81 91.93 87.55 91.11 87.28 C87.14 85.99 83.17 84.73 79.18 83.51 C68.99 80.33 59.16 77.12 53.77 67.19 C51.04 61.72 52.76 55.82 54.57 50.34 C54.92 49.3 54.92 49.3 55.27 48.25 C57.76 40.8 59.53 34.42 56.4 26.87 C46.53 16.77 30.9 16.16 17.6 16 C16.77 15.99 15.95 15.99 15.09 15.98 C14.2 15.98 13.31 15.97 12.39 15.96 C10.51 15.96 8.63 15.95 6.75 15.95 C3.94 15.94 1.13 15.9 -1.67 15.87 C-19.5 15.77 -36.3 18.34 -53.54 22.81 Z " fill="#FAFCFC" transform="translate(457.22607421875,20.814697265625)"/>
<path d="M0 0 C0 0.66 0 1.32 0 2 C0.66 2 1.32 2 2 2 C2 2.66 2 3.32 2 4 C2.66 4 3.32 4 4 4 C5.44 5.94 5.44 5.94 7 8.56 C7.52 9.41 8.03 10.26 8.56 11.13 C13.68 21.34 13.66 35.59 11 46.62 C8.32 54.65 4.63 62.37 1 70 C0.71 70.62 0.41 71.25 0.11 71.89 C-8.3 89.38 -19.98 105.81 -32 121 C-32.66 121.84 -33.32 122.68 -34 123.54 C-38.19 128.82 -42.47 134.03 -46.75 139.24 C-49.69 142.84 -52.54 146.52 -55.37 150.2 C-55.91 150.79 -56.45 151.39 -57 152 C-57.66 152 -58.32 152 -59 152 C-59.37 152.84 -59.37 152.84 -59.74 153.7 C-61.24 156.44 -63.07 158.46 -65.19 160.75 C-67.94 163.74 -70.67 166.76 -73.33 169.83 C-77.56 174.67 -81.97 179.33 -86.39 184 C-90.24 188.08 -93.95 192.23 -97.54 196.53 C-98.02 197.02 -98.5 197.5 -99 198 C-99.66 198 -100.32 198 -101 198 C-101.26 198.59 -101.53 199.19 -101.8 199.8 C-103.04 202.08 -104.3 203.47 -106.19 205.25 C-108.76 207.74 -111.17 210.28 -113.5 213 C-115.75 215.61 -118.05 218.09 -120.5 220.5 C-124.21 224.16 -127.62 228.03 -131 232 C-131.85 232.99 -132.7 233.99 -133.57 235.01 C-143.58 246.73 -143.58 246.73 -153.13 258.81 C-154.06 259.9 -154.06 259.9 -155 261 C-155.66 261 -156.32 261 -157 261 C-157.22 261.56 -157.44 262.12 -157.67 262.7 C-164.2 273.99 -180.51 281.66 -192.3 285.75 C-193.01 286 -193.73 286.25 -194.47 286.51 C-204.52 289.95 -214.75 292.8 -224.96 295.72 C-231.1 297.48 -237.23 299.26 -243.37 301.04 C-244.57 301.38 -245.76 301.73 -247 302.09 C-283.47 312.68 -319.1 325.01 -354 340 C-355.06 340.46 -356.12 340.91 -357.21 341.38 C-362.99 343.86 -368.75 346.38 -374.5 348.91 C-376.85 349.93 -379.2 350.95 -381.55 351.96 C-388.29 354.87 -394.92 357.89 -401.45 361.23 C-404.31 362.66 -407.19 364.04 -410.08 365.4 C-423.68 371.79 -436.9 378.65 -450 386 C-450.92 386.51 -451.83 387.03 -452.78 387.55 C-488.93 407.52 -488.93 407.52 -523.82 429.55 C-527.18 431.84 -530.59 433.92 -534.15 435.91 C-537.8 438.06 -541.26 440.48 -544.75 442.88 C-545.98 443.72 -545.98 443.72 -547.24 444.58 C-555.6 450.36 -563.79 456.37 -571.93 462.46 C-573.74 463.81 -575.55 465.15 -577.37 466.5 C-586.27 473.12 -594.96 480 -603.65 486.9 C-631.32 508.85 -631.32 508.85 -651 507 C-655.7 505.6 -660.43 503.42 -664 500 C-664 499.34 -664 498.68 -664 498 C-664.99 497.67 -665.98 497.34 -667 497 C-668.1 495.43 -668.1 495.43 -669.06 493.44 C-669.38 492.8 -669.7 492.16 -670.04 491.5 C-678.48 469.66 -669.79 447.38 -662.04 426.78 C-655.35 409.81 -655.35 409.81 -652 392 C-651.86 390.26 -651.86 390.26 -651.72 388.48 C-650.07 346.5 -668.34 302.26 -695.64 270.95 C-704.59 260.61 -711.64 249.64 -710.88 235.56 C-709.28 222.17 -701.83 212.74 -692 204 C-686.05 199.36 -679.64 195.3 -673.21 191.36 C-662.31 184.63 -651.45 177.69 -641.06 170.19 C-638 168 -638 168 -635.82 166.7 C-633.57 165.34 -631.37 163.95 -629.18 162.51 C-628.48 162.05 -627.78 161.59 -627.05 161.12 C-625.62 160.18 -624.19 159.24 -622.77 158.29 C-617.9 155.11 -612.91 152.26 -607.79 149.51 C-604.22 147.58 -600.7 145.57 -597.18 143.56 C-579.38 133.41 -561.51 123.31 -542.87 114.79 C-538.86 112.96 -534.93 110.99 -531 109 C-491.35 89.06 -449.7 72.36 -407.75 57.95 C-404.38 56.78 -401.01 55.6 -397.65 54.41 C-376.85 47.07 -355.91 40.27 -334.76 34.01 C-328.25 32.08 -321.78 30.06 -315.32 27.97 C-312.81 27.24 -310.37 26.63 -307.81 26.08 C-303.39 25.11 -299.05 23.94 -294.7 22.69 C-284.79 19.89 -274.82 17.42 -264.81 15 C-263.91 14.78 -263.01 14.56 -262.08 14.34 C-234.22 7.59 -206.21 2.05 -178 -3 C-177.17 -3.15 -176.35 -3.3 -175.5 -3.45 C-158.27 -6.55 -158.27 -6.55 -149.44 -6.44 C-148.57 -6.43 -147.7 -6.43 -146.8 -6.42 C-137.02 -6.2 -128.12 -3.77 -118.77 -1.07 C-105.96 2.47 -94.88 1.18 -82.23 -2.38 C-55.79 -9.72 -24.02 -17.68 0 0 Z M-97.21 20.12 C-104.29 22.35 -112.22 23.82 -119.12 20.5 C-120.07 19.68 -121.02 18.85 -122 18 C-123.66 16.62 -125.33 15.24 -127 13.88 C-127.8 13.19 -128.61 12.51 -129.44 11.8 C-136.01 7.18 -142.81 7.33 -150.47 8.55 C-154.7 9.34 -158.91 10.19 -163.12 11.06 C-166.38 11.72 -169.65 12.37 -172.91 13.02 C-173.74 13.19 -174.58 13.36 -175.44 13.53 C-181.04 14.64 -186.65 15.66 -192.28 16.6 C-219.17 21.14 -245.56 27.35 -272 34 C-273.74 34.44 -275.49 34.87 -277.23 35.31 C-302.74 41.71 -327.91 49.15 -353 57 C-353.86 57.27 -354.72 57.54 -355.61 57.82 C-381.03 65.78 -406.11 74.51 -431 84 C-431.66 84.25 -432.33 84.51 -433.01 84.77 C-450.51 91.45 -467.8 98.6 -485 106 C-486.4 106.6 -487.8 107.19 -489.2 107.79 C-501.52 113.08 -513.64 118.82 -525.79 124.5 C-528.49 125.76 -531.2 127.02 -533.91 128.27 C-543.58 132.73 -553.01 137.57 -562.4 142.61 C-565.11 144.06 -567.83 145.49 -570.55 146.93 C-585.37 154.79 -599.71 163.32 -613.97 172.13 C-616.51 173.7 -619.07 175.26 -621.62 176.81 C-629.89 181.86 -637.81 187.31 -645.72 192.89 C-654.17 198.85 -662.7 204.61 -671.73 209.68 C-688.18 218.41 -688.18 218.41 -699 233 C-699.99 238.3 -698.92 242.48 -696 247 C-692.77 251.16 -689.3 254.83 -685.25 258.19 C-676.22 265.89 -668.86 275.73 -663 286 C-662.45 286.95 -662.45 286.95 -661.88 287.93 C-644.73 317.7 -633.84 354.96 -633.81 389.5 C-633.8 390.29 -633.79 391.08 -633.78 391.89 C-633.75 402.27 -636.8 410.34 -641.12 419.69 C-649.71 438.75 -658.11 457.78 -658.38 478.94 C-658.39 479.84 -658.4 480.74 -658.42 481.67 C-658.38 486.84 -657.94 490.55 -655 495 C-651.74 496.63 -649.14 495.94 -645.75 495 C-640.31 492.99 -636.4 489.69 -632 486 C-629.61 484.07 -627.21 482.16 -624.81 480.25 C-623.51 479.21 -622.21 478.16 -620.9 477.12 C-614.97 472.37 -608.99 467.67 -603 463 C-601.98 462.2 -600.96 461.4 -599.9 460.58 C-591.19 453.83 -582.33 447.29 -573.43 440.78 C-571.84 439.62 -570.25 438.45 -568.66 437.28 C-551.71 424.82 -534.12 413.69 -516 403 C-514.88 402.34 -513.77 401.68 -512.62 401 C-473.56 377.97 -434.46 355.09 -392.75 337.12 C-386.41 334.38 -380.1 331.61 -373.88 328.62 C-320.16 303.34 -262.18 285.85 -204.8 271.14 C-191.61 267.86 -191.61 267.86 -180 261 C-179.3 260.49 -178.6 259.97 -177.88 259.44 C-170.46 253.49 -165.15 245.58 -159.52 238.02 C-153.46 229.96 -146.79 222.45 -140 215 C-138.48 213.29 -136.96 211.58 -135.44 209.88 C-132.04 206.09 -128.51 202.49 -124.89 198.92 C-123.05 197.05 -121.33 195.12 -119.62 193.12 C-116.16 189.1 -112.43 185.39 -108.62 181.69 C-105.93 178.93 -103.41 176.05 -100.88 173.14 C-97.03 168.76 -92.98 164.58 -88.96 160.36 C-84.52 155.67 -80.21 150.89 -76 146 C-75.26 145.14 -75.26 145.14 -74.51 144.27 C-71.5 140.79 -68.52 137.29 -65.53 133.79 C-64.1 132.11 -62.65 130.44 -61.2 128.77 C-54.05 120.48 -47.47 111.83 -41 103 C-40.57 102.42 -40.14 101.83 -39.69 101.23 C-11.24 63.59 -11.24 63.59 -2 19 C-3.39 14.29 -5.2 11.61 -9.12 8.62 C-35.41 -3.99 -71.79 11.79 -97.21 20.12 Z " fill="#FAFCFC" transform="translate(1172,458)"/>
<path d="M0 0 C12.17 11.25 16.78 26.68 20.19 42.38 C20.34 43.08 20.5 43.79 20.66 44.51 C23.42 58.07 24.37 71.71 24.37 85.53 C24.37 87.93 24.41 90.34 24.45 92.74 C24.61 115.38 18.61 136.05 2.53 152.52 C-7.29 162.05 -19.12 169.14 -30.6 176.46 C-40.08 182.52 -49.47 188.63 -58 196 C-58.63 196.54 -59.27 197.08 -59.92 197.63 C-71.02 207.8 -74.63 220.92 -75.29 235.51 C-75.4 238.48 -75.5 241.46 -75.6 244.44 C-76.25 262.39 -80.57 278.16 -91 293 C-91.56 293.81 -92.13 294.62 -92.71 295.46 C-95.63 299.52 -95.63 299.52 -97 301 C-97.66 301 -98.32 301 -99 301 C-99.34 301.83 -99.34 301.83 -99.69 302.67 C-101.38 305.67 -103.54 307.79 -105.94 310.25 C-117.38 322.37 -125.89 337.09 -134.15 351.48 C-144.16 368.9 -154.62 386.88 -168 402 C-168.66 402 -169.32 402 -170 402 C-170.26 402.58 -170.52 403.16 -170.78 403.77 C-173.01 407.85 -176.53 410.87 -179.81 414.12 C-180.58 414.89 -181.34 415.65 -182.13 416.43 C-188.4 422.57 -194.8 428 -202 433 C-203.05 433.73 -204.1 434.46 -205.18 435.21 C-221.31 446 -238.42 454.4 -257 460 C-257.81 460.24 -258.61 460.49 -259.45 460.74 C-261.85 461.46 -264.27 462.14 -266.69 462.81 C-267.37 463.01 -268.06 463.2 -268.77 463.4 C-282.56 467 -296.87 467.35 -311.03 467.32 C-313.7 467.31 -316.36 467.34 -319.03 467.36 C-329.11 467.4 -338.23 466.7 -348 464 C-348.78 463.79 -349.55 463.58 -350.35 463.36 C-360.21 460.43 -368.74 452.62 -374 444 C-378.47 435.76 -381.7 427.2 -384.81 418.38 C-390.48 402.38 -397.93 387.55 -406.45 372.9 C-413.96 359.99 -421.19 346.77 -427 333 C-427.28 332.35 -427.56 331.7 -427.84 331.03 C-433.33 318.12 -437.41 305.22 -440.81 291.62 C-441.28 289.81 -441.75 288 -442.22 286.18 C-454.48 238.49 -454.48 238.49 -444 218 C-433.58 201.19 -417.2 189.21 -402 177 C-401.41 176.53 -400.82 176.05 -400.21 175.56 C-390.03 167.4 -379.54 159.68 -369 152 C-368.23 151.43 -367.45 150.87 -366.65 150.29 C-348.82 137.28 -330.68 124.75 -312 113 C-310.89 112.3 -309.78 111.59 -308.63 110.87 C-283.35 94.91 -257.6 79.66 -231 66 C-230.37 65.68 -229.75 65.35 -229.11 65.02 C-218.08 59.33 -206.81 54.14 -195.56 48.92 C-188.09 45.48 -188.09 45.48 -180.72 41.83 C-177.16 40.02 -173.5 38.57 -169.78 37.11 C-166.68 35.87 -163.63 34.56 -160.57 33.23 C-158.85 32.49 -158.85 32.49 -157.1 31.72 C-154.77 30.71 -152.45 29.7 -150.13 28.69 C-133.87 21.65 -117.1 15.91 -100.38 10.06 C-99.51 9.76 -98.65 9.46 -97.76 9.15 C-87.12 5.43 -76.48 1.76 -65.75 -1.69 C-64.81 -1.99 -63.88 -2.29 -62.91 -2.6 C-42.17 -9.16 -18.73 -14.36 0 0 Z M-37.52 7.29 C-38.53 7.55 -39.54 7.81 -40.59 8.08 C-55.07 11.94 -69.24 16.81 -83.41 21.64 C-85.78 22.45 -88.14 23.25 -90.51 24.05 C-112.24 31.42 -133.72 39.12 -154.68 48.52 C-158.82 50.36 -162.99 52.11 -167.17 53.86 C-174.64 57 -181.92 60.38 -189.13 64.08 C-193.08 66.08 -197.12 67.88 -201.15 69.7 C-223.08 79.57 -244.29 90.78 -265 103 C-266.47 103.87 -266.47 103.87 -267.98 104.75 C-290.51 118.07 -312.48 132.1 -334 147 C-334.86 147.59 -335.72 148.19 -336.6 148.8 C-353.21 160.28 -369.54 172.1 -385.33 184.68 C-387.04 186.03 -388.76 187.37 -390.48 188.7 C-397.12 193.85 -403.6 199.14 -409.95 204.65 C-413.52 207.76 -417.16 210.75 -420.88 213.69 C-430.86 221.72 -430.86 221.72 -436 233 C-436.45 240.07 -434.89 246.03 -433 252.81 C-430.84 260.77 -428.79 268.72 -427.04 276.78 C-426.87 277.52 -426.71 278.26 -426.55 279.03 C-426.38 279.77 -426.22 280.52 -426.05 281.28 C-418.24 317.1 -403.18 348.92 -383.69 379.94 C-375.23 393.51 -369.26 407.54 -365.5 423.1 C-365.24 424.18 -364.98 425.25 -364.72 426.36 C-364.21 428.5 -363.71 430.64 -363.23 432.79 C-361.63 440.22 -361.63 440.22 -357 446 C-349.83 449.44 -342.62 449.44 -334.81 449.4 C-333.56 449.4 -332.3 449.4 -331 449.41 C-328.35 449.41 -325.7 449.41 -323.05 449.39 C-320.36 449.38 -317.68 449.38 -315 449.39 C-300.39 449.46 -286.25 449.5 -272 446 C-271.04 445.77 -270.08 445.54 -269.1 445.3 C-266.69 444.68 -264.31 443.99 -261.94 443.25 C-261.1 442.99 -260.27 442.74 -259.41 442.47 C-204.97 425.18 -171.02 382.64 -145.13 333.86 C-135.86 316.45 -124.93 301.4 -109.8 288.59 C-101.58 281.33 -94.75 271.26 -93.84 260.03 C-93.8 257.88 -93.83 255.75 -93.88 253.6 C-93.88 252.81 -93.89 252.02 -93.9 251.2 C-93.93 247.84 -93.99 244.49 -94.04 241.13 C-94.6 204.03 -94.6 204.03 -81 190 C-78.44 187.75 -75.75 185.71 -73 183.69 C-71.89 182.86 -71.89 182.86 -70.75 182.01 C-69.23 180.88 -67.71 179.75 -66.18 178.62 C-64.18 177.13 -62.2 175.63 -60.23 174.11 C-51.3 167.3 -41.87 161.72 -32.1 156.2 C-17.29 147.73 -0.73 137.2 4.32 119.88 C7.16 107.78 7.28 95.4 6.89 83.04 C6.81 80.57 6.76 78.09 6.72 75.62 C6.4 62.5 5.25 49.48 1 37 C0.9 35.87 0.79 34.73 0.69 33.56 C0 26.81 -2.76 20.36 -5 14 C-5.66 14 -6.32 14 -7 14 C-7.09 13.13 -7.09 13.13 -7.19 12.25 C-8.34 9.07 -10.26 7.89 -13 6 C-20.99 3.34 -29.59 5.19 -37.52 7.29 Z " fill="#FAFCFC" transform="translate(986,793)"/>
<path d="M0 0 C4.47 3.63 8.15 7.94 11.82 12.36 C12.4 13.06 12.98 13.75 13.58 14.46 C38.91 45.37 58.09 80.77 77.81 115.35 C80.41 119.91 83.03 124.46 85.69 128.99 C88.85 134.38 91.84 139.86 94.82 145.36 C100.5 155.87 106.49 166.2 113.44 175.93 C121.99 188.06 127.08 199.25 125.82 214.36 C123.53 223.46 118.53 229.9 110.62 234.86 C94.96 243.27 77.1 245.94 59.79 248.95 C56.49 249.52 53.18 250.1 49.88 250.68 C49.04 250.82 48.21 250.97 47.35 251.12 C25.61 254.93 4.23 260.16 -16.87 266.66 C-19.67 267.51 -22.47 268.32 -25.29 269.13 C-41.11 273.71 -56.68 278.79 -72.18 284.36 C-73.01 284.66 -73.85 284.96 -74.7 285.27 C-81.49 287.71 -88.28 290.16 -95.06 292.61 C-96.02 292.96 -96.97 293.31 -97.96 293.66 C-108.14 297.35 -118.23 301.1 -128.18 305.36 C-131.83 306.85 -135.49 308.29 -139.15 309.74 C-149.58 313.91 -159.9 318.35 -170.22 322.76 C-171.73 323.41 -173.24 324.06 -174.76 324.7 C-184.37 328.79 -193.89 333.02 -203.33 337.49 C-205.87 338.69 -208.41 339.88 -210.96 341.06 C-242.75 355.84 -242.75 355.84 -274.18 371.36 C-275.45 372.01 -275.45 372.01 -276.74 372.67 C-288.63 378.76 -300.36 385.08 -311.96 391.71 C-318.35 395.35 -324.8 398.85 -331.31 402.26 C-335.77 404.59 -340.15 407.03 -344.5 409.55 C-363.77 420.62 -382.01 427.59 -404.32 421.82 C-407.85 420.79 -411.34 419.66 -414.83 418.49 C-418.08 417.4 -421.35 416.35 -424.62 415.31 C-427.79 414.31 -430.95 413.29 -434.12 412.26 C-435.67 411.75 -437.23 411.25 -438.79 410.75 C-451.97 406.52 -463.98 400.88 -476.04 394.1 C-498.09 381.83 -517.54 385.16 -541.04 390.63 C-676.1 422.07 -676.1 422.07 -713 400.18 C-722.29 393.82 -728.93 385.54 -731.18 374.36 C-732.33 362.73 -729.83 352.77 -722.68 343.43 C-721.53 342.06 -720.36 340.71 -719.18 339.36 C-718.25 338.18 -717.31 336.99 -716.37 335.8 C-715.29 334.59 -715.29 334.59 -714.18 333.36 C-713.52 333.36 -712.86 333.36 -712.18 333.36 C-711.85 332.37 -711.52 331.38 -711.18 330.36 C-710.52 330.36 -709.86 330.36 -709.18 330.36 C-709.18 329.7 -709.18 329.04 -709.18 328.36 C-707.89 327.06 -707.89 327.06 -706 325.49 C-702.18 322.26 -698.52 318.9 -694.87 315.49 C-690 310.95 -684.98 306.67 -679.79 302.5 C-677.21 300.39 -674.76 298.18 -672.31 295.93 C-668.07 292.07 -663.63 288.55 -659.07 285.09 C-655.55 282.42 -652.09 279.68 -648.68 276.86 C-643.16 272.31 -637.51 267.95 -631.82 263.62 C-630.24 262.41 -628.67 261.19 -627.1 259.96 C-617.96 252.86 -608.6 246.09 -599.18 239.36 C-598.45 238.84 -597.72 238.31 -596.96 237.77 C-587.76 231.2 -578.46 224.8 -569.02 218.58 C-567.18 217.36 -565.34 216.13 -563.51 214.91 C-533.19 194.58 -502.13 175.41 -470.62 156.99 C-469.65 156.42 -468.67 155.85 -467.67 155.26 C-461.24 151.51 -454.74 147.9 -448.18 144.36 C-446.43 143.41 -444.68 142.46 -442.93 141.5 C-442.06 141.03 -441.2 140.56 -440.31 140.08 C-439.42 139.59 -438.54 139.11 -437.62 138.61 C-436.67 138.1 -435.72 137.58 -434.75 137.05 C-429.49 134.18 -424.26 131.29 -419.04 128.36 C-411 123.86 -402.87 119.62 -394.6 115.56 C-391.78 114.16 -388.98 112.75 -386.18 111.33 C-373.09 104.72 -359.93 98.41 -346.55 92.43 C-343.2 90.92 -339.88 89.36 -336.56 87.8 C-310.77 75.73 -284.54 64.78 -258.13 54.15 C-256.81 53.62 -255.49 53.08 -254.17 52.55 C-247.24 49.75 -240.32 46.97 -233.25 44.55 C-226.53 42.23 -219.89 39.76 -213.25 37.24 C-185.9 26.93 -158.24 17.68 -130.43 8.71 C-124.57 6.82 -118.74 4.88 -112.92 2.9 C-96.52 -2.68 -79.85 -7.26 -63.06 -11.51 C-62.26 -11.71 -61.46 -11.92 -60.64 -12.13 C-37.58 -17.84 -18.83 -14.12 0 0 Z M-151.96 19.29 C-154.93 20.28 -157.89 21.26 -160.85 22.24 C-202.46 36.06 -243.55 51.36 -283.93 68.41 C-286.18 69.36 -288.43 70.31 -290.68 71.25 C-328.18 87.03 -365.6 103.61 -401.47 122.85 C-404.99 124.74 -408.53 126.58 -412.08 128.41 C-426.32 135.73 -440.31 143.39 -454.18 151.36 C-456.3 152.57 -458.41 153.78 -460.52 154.99 C-481.2 166.83 -501.68 178.98 -521.76 191.82 C-524.37 193.48 -526.99 195.14 -529.61 196.8 C-553.6 211.97 -577.07 227.89 -600.18 244.36 C-600.91 244.88 -601.63 245.39 -602.38 245.92 C-616.51 255.97 -630.22 266.51 -643.71 277.39 C-645.6 278.9 -647.5 280.39 -649.4 281.87 C-656.13 287.09 -662.71 292.44 -669.14 298.02 C-672.6 301.02 -676.11 303.94 -679.68 306.8 C-685.35 311.39 -690.64 316.36 -695.95 321.35 C-698.46 323.7 -701.01 325.99 -703.62 328.24 C-714.88 338.04 -726.46 350.1 -728.62 365.47 C-729.04 375.8 -725.07 383.83 -718.18 391.36 C-702.39 406.08 -681.26 406.15 -661 405.53 C-619.75 403.75 -578.29 395.84 -538.15 386.52 C-515.26 381.23 -497.51 379.84 -476.06 390.55 C-473.2 391.95 -470.34 393.35 -467.48 394.75 C-465.77 395.59 -464.06 396.43 -462.36 397.28 C-451.22 402.87 -439.9 407.08 -428.02 410.84 C-425.16 411.75 -422.29 412.67 -419.43 413.6 C-417.58 414.2 -415.72 414.79 -413.87 415.39 C-413.03 415.66 -412.19 415.93 -411.32 416.21 C-391.39 422.5 -375.11 421.73 -356.23 412.12 C-346.58 407.07 -337.09 401.73 -327.57 396.45 C-308.28 385.75 -288.82 375.41 -269.18 365.36 C-268.17 364.84 -267.15 364.32 -266.11 363.79 C-252.34 356.77 -238.43 350.14 -224.39 343.69 C-219.68 341.53 -215 339.33 -210.32 337.1 C-134.66 301.07 -54.07 269.83 68.82 243.8 C88.42 240.36 107.96 236.39 121.32 220.36 C124.6 213.81 123.78 205.17 122.04 198.29 C118.61 189.34 113.01 181.36 107.82 173.36 C100.94 162.75 94.44 152.06 88.46 140.91 C84.73 133.97 80.82 127.15 76.82 120.36 C72.31 112.71 67.95 105 63.75 97.18 C58.36 87.16 52.5 77.5 46.41 67.9 C44.85 65.41 43.3 62.92 41.75 60.42 C31.87 44.52 21.27 29.39 9.23 15.05 C8.02 13.6 6.83 12.14 5.64 10.68 C-2.13 1.4 -11.85 -5.43 -23.18 -9.64 C-24.16 -10 -24.16 -10 -25.16 -10.38 C-61.14 -21.53 -118.29 8.09 -151.96 19.29 Z " fill="#F7F7F7" transform="translate(865.18359375,189.63671875)"/>
<path d="M0 0 C2.64 -0 5.27 -0.02 7.91 -0.04 C26.27 -0.1 46.53 0.88 60.77 14.03 C68.45 22.35 71.52 30.76 73.34 41.81 C74.99 51.75 76.66 59.48 84.77 66.19 C91.63 70.08 98.88 72.84 106.27 75.5 C118.6 80.03 130.65 85 142.34 91 C151.41 95.56 159.49 97.55 169.77 96.19 C177.47 93.56 183.78 87.99 190.22 83.16 C205.62 71.79 223.54 69.29 242.27 72 C244.44 72.38 246.61 72.78 248.77 73.19 C249.9 73.37 251.02 73.55 252.18 73.74 C271.74 77.18 295.72 83.31 307.77 100.19 C311.39 106.78 311.68 112.61 310.22 119.95 C307.61 128.81 302.01 134.33 293.98 138.71 C285.87 142.45 277.67 145.4 269.18 148.14 C265.21 149.42 261.25 150.72 257.29 152.03 C256.49 152.29 255.69 152.56 254.86 152.83 C243.26 156.66 231.76 160.8 220.26 164.93 C217.03 166.09 213.79 167.24 210.56 168.38 C196.5 173.35 182.59 178.69 168.71 184.14 C167.25 184.71 165.79 185.28 164.33 185.85 C163.62 186.13 162.9 186.41 162.16 186.7 C157.31 188.6 152.44 190.44 147.56 192.25 C140.23 194.98 132.99 197.92 125.77 200.94 C124.52 201.46 123.27 201.98 122.02 202.5 C119.49 203.55 116.96 204.61 114.43 205.66 C110.99 207.1 107.54 208.52 104.09 209.94 C94.38 213.94 84.75 218.02 75.27 222.54 C71.49 224.32 67.67 225.98 63.84 227.62 C57.73 230.26 51.77 233.12 45.84 236.14 C41.09 238.55 36.29 240.83 31.46 243.06 C24.88 246.12 18.46 249.42 12.06 252.84 C3.67 257.3 -4.84 261.51 -13.35 265.75 C-22.93 270.51 -32.49 275.29 -41.91 280.35 C-47.18 283.18 -52.51 285.85 -57.88 288.48 C-65.36 292.29 -72.6 296.53 -79.85 300.75 C-81.47 301.69 -83.09 302.63 -84.7 303.56 C-85.48 304.01 -86.25 304.47 -87.05 304.93 C-88.92 306.01 -90.79 307.06 -92.67 308.12 C-97.38 310.8 -101.92 313.76 -106.48 316.69 C-108.44 317.94 -110.4 319.19 -112.36 320.44 C-113.34 321.07 -114.32 321.7 -115.33 322.34 C-118.86 324.59 -122.4 326.82 -125.94 329.05 C-133.78 333.98 -141.57 338.98 -149.23 344.19 C-149.91 344.65 -150.6 345.12 -151.3 345.59 C-162.7 353.33 -174 361.2 -185.23 369.19 C-185.86 369.64 -186.49 370.09 -187.14 370.55 C-193.83 375.31 -200.5 380.09 -207.12 384.93 C-209.56 386.7 -212 388.46 -214.45 390.22 C-222.47 395.98 -230.41 401.79 -238.21 407.85 C-241.25 410.2 -244.33 412.51 -247.41 414.81 C-251.88 418.15 -256.26 421.58 -260.6 425.09 C-263.61 427.49 -266.66 429.84 -269.73 432.19 C-277.09 437.82 -284.31 443.61 -291.48 449.5 C-295.87 453.09 -300.28 456.66 -304.73 460.19 C-305.33 460.67 -305.93 461.15 -306.54 461.64 C-309.1 463.66 -311.11 465.15 -314.23 466.19 C-314.23 466.85 -314.23 467.51 -314.23 468.19 C-315.92 469.74 -315.92 469.74 -318.35 471.62 C-319.26 472.33 -320.18 473.04 -321.12 473.77 C-322.14 474.57 -323.17 475.36 -324.23 476.19 C-325.35 477.09 -326.47 478 -327.59 478.91 C-340.07 489.03 -353.31 498.8 -370.23 497.19 C-379.58 495.38 -388.2 491.76 -395.23 485.19 C-395.23 484.53 -395.23 483.87 -395.23 483.19 C-395.89 483.19 -396.55 483.19 -397.23 483.19 C-398.97 481.27 -400.57 479.35 -402.16 477.31 C-402.65 476.69 -403.13 476.06 -403.63 475.42 C-425.07 447.29 -438.78 415.31 -435.94 379.6 C-434.15 368.24 -429.33 357.65 -425.02 347.05 C-424.55 345.91 -424.09 344.76 -423.61 343.58 C-422.71 341.37 -421.79 339.16 -420.87 336.95 C-413.74 319.49 -413.89 303.2 -414.16 284.62 C-414.51 258.11 -412.8 236.49 -400.12 212.87 C-399.38 211.47 -398.66 210.06 -397.95 208.64 C-391.87 196.81 -382.37 186.71 -373.23 177.19 C-372.44 176.35 -372.44 176.35 -371.63 175.5 C-367.37 171.1 -362.84 167.42 -357.85 163.87 C-357.07 163.31 -356.29 162.75 -355.48 162.18 C-347.68 156.67 -339.55 151.85 -331.23 147.19 C-329.77 146.36 -328.31 145.53 -326.85 144.71 C-323.58 142.86 -320.31 141.02 -317.02 139.2 C-315.77 138.49 -314.52 137.77 -313.28 137.04 C-308.43 134.19 -308.43 134.19 -306.23 134.19 C-306.23 133.53 -306.23 132.87 -306.23 132.19 C-305.67 131.91 -305.11 131.63 -304.54 131.34 C-299.34 128.61 -295.12 125.58 -290.85 121.54 C-289.23 120.19 -289.23 120.19 -287.23 120.19 C-287.23 119.53 -287.23 118.87 -287.23 118.19 C-284.85 115.56 -284.85 115.56 -282.23 113.19 C-281.57 113.19 -280.91 113.19 -280.23 113.19 C-279.97 112.63 -279.72 112.07 -279.46 111.5 C-278.03 108.82 -276.33 106.59 -274.48 104.19 C-270.22 98.62 -266.21 92.89 -262.23 87.12 C-257.18 79.86 -252 72.89 -246.23 66.19 C-245.7 65.54 -245.17 64.89 -244.63 64.22 C-226.62 42.27 -199.82 31.19 -172.23 28.19 C-167.15 27.73 -162.07 27.33 -156.98 26.93 C-128.31 24.7 -101.52 18.72 -73.82 11.27 C-62.94 8.34 -52.08 5.62 -41.04 3.37 C-40.03 3.17 -39.03 2.96 -38 2.74 C-25.36 0.25 -12.83 -0 0 0 Z M-49.98 8.69 C-50.73 8.85 -51.49 9.02 -52.27 9.2 C-64.48 11.94 -76.55 15.1 -88.6 18.44 C-101.71 22.06 -114.72 25.33 -128.23 27.19 C-129.34 27.34 -129.34 27.34 -130.47 27.49 C-138.8 28.6 -147.15 29.26 -155.52 29.88 C-189.76 32.43 -220.03 40.95 -243.66 67.82 C-251.6 77.31 -258.67 87.57 -265.69 97.76 C-271.3 105.84 -277.32 113.17 -284.23 120.19 C-284.9 120.88 -285.56 121.57 -286.25 122.29 C-297.72 133.32 -313.01 140.69 -326.79 148.39 C-343.41 157.72 -358.26 168.18 -372.23 181.19 C-372.9 181.81 -373.58 182.43 -374.28 183.08 C-392.89 200.87 -406.39 225.7 -410.23 251.19 C-410.4 252.32 -410.58 253.45 -410.76 254.62 C-411.45 260.2 -411.27 265.76 -411.18 271.36 C-411.16 273.76 -411.14 276.16 -411.12 278.56 C-411.08 282.3 -411.04 286.03 -410.98 289.77 C-410.67 310.42 -412.45 327.1 -420.73 346.12 C-421.68 348.36 -422.62 350.6 -423.57 352.84 C-424.02 353.9 -424.47 354.97 -424.94 356.07 C-427.98 363.41 -430.69 370.63 -431.98 378.5 C-432.1 379.22 -432.22 379.95 -432.34 380.69 C-437.2 412.03 -423.02 442.6 -405.02 467.52 C-395.82 479.82 -384.89 491.85 -368.98 494.19 C-346.75 495.36 -327.65 474.54 -312.01 461.21 C-307.06 457 -301.96 453 -296.83 449.01 C-293.08 446.08 -289.37 443.1 -285.66 440.12 C-279.96 435.54 -274.19 431.04 -268.38 426.6 C-265.3 424.24 -262.23 421.87 -259.16 419.5 C-251.06 413.25 -242.85 407.14 -234.66 401.01 C-232.44 399.35 -230.23 397.68 -228.02 396.01 C-212.65 384.42 -196.99 373.23 -181.23 362.19 C-180.34 361.56 -179.45 360.94 -178.53 360.3 C-144 336.11 -108.71 312.47 -71.56 292.45 C-69.05 291.09 -66.54 289.7 -64.04 288.31 C-47.15 279.02 -29.91 270.45 -12.65 261.89 C-2.59 256.9 7.42 251.84 17.33 246.57 C23.53 243.29 29.8 240.18 36.15 237.19 C37.21 236.68 38.26 236.18 39.35 235.66 C41.49 234.65 43.62 233.63 45.76 232.62 C48.51 231.31 51.25 229.99 53.98 228.66 C69.04 221.35 84.38 214.73 99.77 208.19 C100.46 207.89 101.15 207.6 101.86 207.3 C145.56 188.72 189.9 172.14 234.71 156.5 C235.62 156.18 236.53 155.86 237.47 155.53 C246.49 152.39 255.51 149.26 264.56 146.22 C265.89 145.77 267.22 145.33 268.55 144.88 C270.93 144.08 273.3 143.29 275.68 142.5 C288.19 138.29 302.21 132.03 308.46 119.62 C310.38 114.36 310.15 110.24 307.86 105.15 C299.28 89.98 281.61 84.96 265.86 80.54 C255.04 77.61 244.02 74.68 232.77 74.19 C231.77 74.11 231.77 74.11 230.74 74.03 C213.48 73.25 199.49 79.98 186.11 90.23 C178.5 96.05 172.51 99.31 162.77 99.5 C161.56 99.54 160.34 99.57 159.09 99.61 C148.68 99.08 138.84 93.5 129.65 89.06 C119.09 84.02 108.43 79.54 97.39 75.61 C87.67 72.06 78.86 67.6 73.77 58.19 C71.85 53.28 70.92 48.21 70.11 43.02 C68.39 32.11 66.46 23.78 57.77 16.19 C57.07 15.53 56.37 14.87 55.65 14.19 C43.07 5.44 28.16 3.04 13.18 3.02 C12.39 3.01 11.6 3.01 10.79 3.01 C9.12 3 7.46 3 5.79 3 C3.31 3 0.82 2.98 -1.66 2.96 C-18.22 2.9 -33.86 5.01 -49.98 8.69 Z " fill="#F7F7F7" transform="translate(457.22607421875,20.814697265625)"/>
<path d="M0 0 C0 0.66 0 1.32 0 2 C0.66 2 1.32 2 2 2 C2 2.66 2 3.32 2 4 C2.66 4 3.32 4 4 4 C5.44 5.94 5.44 5.94 7 8.56 C7.52 9.41 8.03 10.26 8.56 11.13 C13.68 21.34 13.66 35.59 11 46.62 C8.32 54.65 4.63 62.37 1 70 C0.71 70.62 0.41 71.25 0.11 71.89 C-8.3 89.38 -19.98 105.81 -32 121 C-32.66 121.84 -33.32 122.68 -34 123.54 C-38.19 128.82 -42.47 134.03 -46.75 139.24 C-49.69 142.84 -52.54 146.52 -55.37 150.2 C-55.91 150.79 -56.45 151.39 -57 152 C-57.66 152 -58.32 152 -59 152 C-59.37 152.84 -59.37 152.84 -59.74 153.7 C-61.24 156.44 -63.07 158.46 -65.19 160.75 C-67.94 163.74 -70.67 166.76 -73.33 169.83 C-77.56 174.67 -81.97 179.33 -86.39 184 C-90.24 188.08 -93.95 192.23 -97.54 196.53 C-98.02 197.02 -98.5 197.5 -99 198 C-99.66 198 -100.32 198 -101 198 C-101.26 198.59 -101.53 199.19 -101.8 199.8 C-103.04 202.08 -104.3 203.47 -106.19 205.25 C-108.76 207.74 -111.17 210.28 -113.5 213 C-115.75 215.61 -118.05 218.09 -120.5 220.5 C-124.21 224.16 -127.62 228.03 -131 232 C-131.85 232.99 -132.7 233.99 -133.57 235.01 C-143.58 246.73 -143.58 246.73 -153.13 258.81 C-154.06 259.9 -154.06 259.9 -155 261 C-155.66 261 -156.32 261 -157 261 C-157.22 261.56 -157.44 262.12 -157.67 262.7 C-164.2 273.99 -180.51 281.66 -192.3 285.75 C-193.01 286 -193.73 286.25 -194.47 286.51 C-204.52 289.95 -214.75 292.8 -224.96 295.72 C-231.1 297.48 -237.23 299.26 -243.37 301.04 C-244.57 301.38 -245.76 301.73 -247 302.09 C-283.47 312.68 -319.1 325.01 -354 340 C-355.06 340.46 -356.12 340.91 -357.21 341.38 C-362.99 343.86 -368.75 346.38 -374.5 348.91 C-376.85 349.93 -379.2 350.95 -381.55 351.96 C-388.29 354.87 -394.92 357.89 -401.45 361.23 C-404.31 362.66 -407.19 364.04 -410.08 365.4 C-423.68 371.79 -436.9 378.65 -450 386 C-450.92 386.51 -451.83 387.03 -452.78 387.55 C-488.93 407.52 -488.93 407.52 -523.82 429.55 C-527.18 431.84 -530.59 433.92 -534.15 435.91 C-537.8 438.06 -541.26 440.48 -544.75 442.88 C-545.98 443.72 -545.98 443.72 -547.24 444.58 C-555.6 450.36 -563.79 456.37 -571.93 462.46 C-573.74 463.81 -575.55 465.15 -577.37 466.5 C-586.27 473.12 -594.96 480 -603.65 486.9 C-631.32 508.85 -631.32 508.85 -651 507 C-655.7 505.6 -660.43 503.42 -664 500 C-664 499.34 -664 498.68 -664 498 C-664.99 497.67 -665.98 497.34 -667 497 C-668.1 495.43 -668.1 495.43 -669.06 493.44 C-669.38 492.8 -669.7 492.16 -670.04 491.5 C-678.48 469.66 -669.79 447.38 -662.04 426.78 C-655.35 409.81 -655.35 409.81 -652 392 C-651.86 390.26 -651.86 390.26 -651.72 388.48 C-650.07 346.5 -668.34 302.26 -695.64 270.95 C-704.59 260.61 -711.64 249.64 -710.88 235.56 C-709.28 222.17 -701.83 212.74 -692 204 C-686.05 199.36 -679.64 195.3 -673.21 191.36 C-662.31 184.63 -651.45 177.69 -641.06 170.19 C-638 168 -638 168 -635.82 166.7 C-633.57 165.34 -631.37 163.95 -629.18 162.51 C-628.48 162.05 -627.78 161.59 -627.05 161.12 C-625.62 160.18 -624.19 159.24 -622.77 158.29 C-617.9 155.11 -612.91 152.26 -607.79 149.51 C-604.22 147.58 -600.7 145.57 -597.18 143.56 C-579.38 133.41 -561.51 123.31 -542.87 114.79 C-538.86 112.96 -534.93 110.99 -531 109 C-491.35 89.06 -449.7 72.36 -407.75 57.95 C-404.38 56.78 -401.01 55.6 -397.65 54.41 C-376.85 47.07 -355.91 40.27 -334.76 34.01 C-328.25 32.08 -321.78 30.06 -315.32 27.97 C-312.81 27.24 -310.37 26.63 -307.81 26.08 C-303.39 25.11 -299.05 23.94 -294.7 22.69 C-284.79 19.89 -274.82 17.42 -264.81 15 C-263.91 14.78 -263.01 14.56 -262.08 14.34 C-234.22 7.59 -206.21 2.05 -178 -3 C-177.17 -3.15 -176.35 -3.3 -175.5 -3.45 C-158.27 -6.55 -158.27 -6.55 -149.44 -6.44 C-148.57 -6.43 -147.7 -6.43 -146.8 -6.42 C-137.02 -6.2 -128.12 -3.77 -118.77 -1.07 C-105.96 2.47 -94.88 1.18 -82.23 -2.38 C-55.79 -9.72 -24.02 -17.68 0 0 Z M-71.27 -1.48 C-92.52 4.35 -107.9 5.94 -129.43 -0.51 C-147.5 -5.68 -164.7 -2.27 -182.81 1.12 C-185.1 1.54 -187.39 1.96 -189.68 2.38 C-196.13 3.56 -202.56 4.77 -209 6 C-209.8 6.15 -210.6 6.3 -211.42 6.46 C-232.79 10.52 -253.91 15.68 -275 21 C-275.77 21.19 -276.54 21.39 -277.34 21.59 C-303.81 28.25 -329.95 35.85 -356 44 C-356.83 44.26 -357.66 44.52 -358.51 44.79 C-402.07 58.44 -444.97 74.25 -486.78 92.59 C-489.93 93.97 -493.08 95.33 -496.23 96.7 C-518.28 106.28 -540.28 116.12 -561.42 127.61 C-564.4 129.21 -567.39 130.78 -570.39 132.35 C-587.35 141.26 -603.73 150.9 -620 161 C-621.59 161.98 -623.19 162.96 -624.79 163.95 C-633.04 169.04 -641.13 174.35 -649.17 179.77 C-651.55 181.37 -653.93 182.96 -656.32 184.55 C-657.53 185.35 -658.74 186.16 -659.94 186.97 C-663.69 189.47 -667.45 191.96 -671.23 194.43 C-694.66 208.99 -694.66 208.99 -707.63 232.54 C-709.29 243.58 -704.61 253.39 -698.25 262.12 C-695.99 265.02 -693.66 267.86 -691.32 270.69 C-668.81 297.97 -655.16 331 -650 366 C-649.87 366.85 -649.74 367.69 -649.61 368.56 C-648.93 373.91 -648.84 379.3 -648.75 384.69 C-648.73 385.38 -648.71 386.08 -648.68 386.79 C-648.59 402.32 -654.48 416.54 -659.88 430.8 C-667.05 449.81 -674.35 469.93 -667 490 C-663.83 496.51 -659.76 501.19 -653 504 C-644.41 506.81 -635.19 503.44 -627.34 499.75 C-619.46 495.25 -612.45 489.32 -605.36 483.7 C-597.41 477.39 -589.35 471.26 -581.16 465.26 C-576.77 462.05 -572.41 458.81 -568.09 455.51 C-543.36 436.7 -516.79 420.67 -490 405 C-488.89 404.35 -487.78 403.7 -486.64 403.03 C-471.26 394.04 -455.75 385.33 -440 377 C-439.41 376.69 -438.81 376.37 -438.2 376.05 C-367.03 338.29 -292.32 310.93 -214.85 289.28 C-183.54 280.52 -163.03 266.36 -142.46 241 C-129.75 225.49 -129.75 225.49 -122.57 218.57 C-120.79 216.79 -119.15 214.91 -117.5 213 C-114.72 209.77 -111.79 206.77 -108.75 203.78 C-106.92 201.92 -105.21 199.98 -103.5 198 C-100.75 194.8 -97.85 191.83 -94.84 188.88 C-93.06 187.06 -91.4 185.2 -89.74 183.27 C-86.15 179.13 -82.4 175.16 -78.62 171.19 C-73.52 165.79 -68.67 160.32 -64.04 154.51 C-61.94 151.92 -59.74 149.46 -57.5 147 C-52.8 141.82 -48.35 136.47 -44 131 C-43.48 130.35 -42.97 129.7 -42.43 129.03 C-3.29 80.8 -3.29 80.8 9 22 C7.06 12.3 1.78 5.63 -6 -0.25 C-25.6 -12.33 -50.51 -7.19 -71.27 -1.48 Z " fill="#F7F7F7" transform="translate(1172,458)"/>
<path d="M0 0 C12.17 11.25 16.78 26.68 20.19 42.38 C20.34 43.08 20.5 43.79 20.66 44.51 C23.42 58.07 24.37 71.71 24.37 85.53 C24.37 87.93 24.41 90.34 24.45 92.74 C24.61 115.38 18.61 136.05 2.53 152.52 C-7.29 162.05 -19.12 169.14 -30.6 176.46 C-40.08 182.52 -49.47 188.63 -58 196 C-58.63 196.54 -59.27 197.08 -59.92 197.63 C-71.02 207.8 -74.63 220.92 -75.29 235.51 C-75.4 238.48 -75.5 241.46 -75.6 244.44 C-76.25 262.39 -80.57 278.16 -91 293 C-91.56 293.81 -92.13 294.62 -92.71 295.46 C-95.63 299.52 -95.63 299.52 -97 301 C-97.66 301 -98.32 301 -99 301 C-99.34 301.83 -99.34 301.83 -99.69 302.67 C-101.38 305.67 -103.54 307.79 -105.94 310.25 C-117.38 322.37 -125.89 337.09 -134.15 351.48 C-144.16 368.9 -154.62 386.88 -168 402 C-168.66 402 -169.32 402 -170 402 C-170.26 402.58 -170.52 403.16 -170.78 403.77 C-173.01 407.85 -176.53 410.87 -179.81 414.12 C-180.58 414.89 -181.34 415.65 -182.13 416.43 C-188.4 422.57 -194.8 428 -202 433 C-203.05 433.73 -204.1 434.46 -205.18 435.21 C-221.31 446 -238.42 454.4 -257 460 C-257.81 460.24 -258.61 460.49 -259.45 460.74 C-261.85 461.46 -264.27 462.14 -266.69 462.81 C-267.37 463.01 -268.06 463.2 -268.77 463.4 C-282.56 467 -296.87 467.35 -311.03 467.32 C-313.7 467.31 -316.36 467.34 -319.03 467.36 C-329.11 467.4 -338.23 466.7 -348 464 C-348.78 463.79 -349.55 463.58 -350.35 463.36 C-360.21 460.43 -368.74 452.62 -374 444 C-378.47 435.76 -381.7 427.2 -384.81 418.38 C-390.48 402.38 -397.93 387.55 -406.45 372.9 C-413.96 359.99 -421.19 346.77 -427 333 C-427.28 332.35 -427.56 331.7 -427.84 331.03 C-433.33 318.12 -437.41 305.22 -440.81 291.62 C-441.28 289.81 -441.75 288 -442.22 286.18 C-454.48 238.49 -454.48 238.49 -444 218 C-433.58 201.19 -417.2 189.21 -402 177 C-401.41 176.53 -400.82 176.05 -400.21 175.56 C-390.03 167.4 -379.54 159.68 -369 152 C-368.23 151.43 -367.45 150.87 -366.65 150.29 C-348.82 137.28 -330.68 124.75 -312 113 C-310.89 112.3 -309.78 111.59 -308.63 110.87 C-283.35 94.91 -257.6 79.66 -231 66 C-230.37 65.68 -229.75 65.35 -229.11 65.02 C-218.08 59.33 -206.81 54.14 -195.56 48.92 C-188.09 45.48 -188.09 45.48 -180.72 41.83 C-177.16 40.02 -173.5 38.57 -169.78 37.11 C-166.68 35.87 -163.63 34.56 -160.57 33.23 C-158.85 32.49 -158.85 32.49 -157.1 31.72 C-154.77 30.71 -152.45 29.7 -150.13 28.69 C-133.87 21.65 -117.1 15.91 -100.38 10.06 C-99.51 9.76 -98.65 9.46 -97.76 9.15 C-87.12 5.43 -76.48 1.76 -65.75 -1.69 C-64.81 -1.99 -63.88 -2.29 -62.91 -2.6 C-42.17 -9.16 -18.73 -14.36 0 0 Z M-73.75 4.56 C-75.95 5.29 -78.16 6.02 -80.36 6.75 C-86.58 8.82 -92.79 10.9 -99 13 C-99.77 13.26 -100.55 13.52 -101.35 13.79 C-130.91 23.76 -159.63 36.06 -188 49 C-189.79 49.81 -189.79 49.81 -191.61 50.64 C-217.82 62.57 -243.32 75.51 -268.07 90.27 C-271.05 92.03 -274.05 93.77 -277.05 95.5 C-305.32 111.78 -332.66 129.74 -359 149 C-360.23 149.9 -361.47 150.79 -362.7 151.69 C-378.32 163.05 -393.55 174.94 -408.58 187.05 C-410.26 188.4 -411.94 189.74 -413.64 191.07 C-428.93 203.25 -444 217.32 -446.71 237.64 C-447.78 249.96 -444.73 261.77 -441.81 273.62 C-441.4 275.32 -440.99 277.02 -440.58 278.72 C-437.77 290.26 -434.81 301.74 -431 313 C-430.68 313.96 -430.68 313.96 -430.36 314.93 C-423.01 336.8 -412.03 357.19 -400.62 377.15 C-393.32 389.98 -387.14 402.89 -381.89 416.68 C-372.25 442.56 -372.25 442.56 -351.21 459.53 C-339.56 464.08 -327.32 464.51 -315 464.38 C-314.24 464.37 -313.48 464.37 -312.7 464.36 C-263.45 464.04 -216.81 446.23 -181.4 411.43 C-164.45 394.18 -150.96 374 -139.05 353.04 C-129.86 336.91 -120.03 321.47 -107.46 307.75 C-89.1 287.17 -79.46 267.11 -78.5 239.38 C-77.91 223.01 -75.24 208.78 -63.62 196.43 C-54.03 187.54 -43.2 180.32 -32.11 173.46 C-7.7 158.32 11.88 142.51 19.24 113.54 C21.07 105.05 21.2 96.78 21.19 88.12 C21.19 87.43 21.19 86.73 21.18 86.01 C21.15 75.55 20.88 65.33 19 55 C18.84 54.08 18.68 53.16 18.51 52.22 C14.84 31.76 10.16 10.63 -8 -2 C-10.94 -3.38 -13.83 -4.3 -17 -5 C-18.2 -5.27 -18.2 -5.27 -19.43 -5.55 C-37.82 -8.77 -56.63 -1.16 -73.75 4.56 Z " fill="#F7F7F7" transform="translate(986,793)"/>
</svg>
