<svg width="20" height="20" viewBox="0 0 20 20" fill="none" xmlns="http://www.w3.org/2000/svg">
<path fill-rule="evenodd" clip-rule="evenodd" d="M0 10C0 4.47715 4.47715 0 10 0C10.2411 0 10.4723 0.0957789 10.6428 0.266267L19.7337 9.35718C19.9042 9.52766 20 9.75889 20 10C20 15.5229 15.5229 20 10 20C4.47715 20 0 15.5229 0 10ZM8.80609 1.90467C4.8533 2.48258 1.81818 5.88684 1.81818 10C1.81818 14.5187 5.4813 18.1818 10 18.1818C14.1426 18.1818 17.5661 15.1031 18.1073 11.1089C17.6115 11.172 16.9908 11.2176 16.3022 11.1926C14.6052 11.1309 12.3996 10.6334 10.6975 8.80041C9.01495 6.98847 8.63334 4.91495 8.66496 3.33409C8.6757 2.79672 8.73392 2.3115 8.80609 1.90467ZM10.525 2.71979L17.1738 9.36854C16.9223 9.38178 16.6517 9.38591 16.3683 9.3756C14.9403 9.32367 13.2823 8.91202 12.0298 7.56323C10.7578 6.19335 10.4576 4.6305 10.4828 3.37045C10.4874 3.14098 10.5028 2.92292 10.525 2.71979Z" fill="#8B8B8B"/>
</svg>
