<svg width="28" height="25" viewBox="0 0 28 25" fill="none" xmlns="http://www.w3.org/2000/svg">
<path d="M13.1984 3.72964L14 4.80446L14.8016 3.72964C16.0363 2.07418 18.0131 1 20.216 1C23.9541 1 27 4.05562 27 7.85054C27 9.41336 26.7516 10.8547 26.3203 12.1921L26.3203 12.1921L26.3182 12.1986C26.0066 13.1878 25.1866 14.4462 24.0048 15.8245C22.8416 17.1811 21.3993 18.5727 19.947 19.8249C18.4952 21.0766 17.0531 22.1721 15.8999 22.9399C15.3211 23.3251 14.8322 23.6164 14.4615 23.8029C14.2751 23.8966 14.1378 23.9541 14.0463 23.9847C14.0342 23.9887 14.0238 23.992 14.015 23.9946L14 23.9931L13.985 23.9946C13.9762 23.992 13.9658 23.9887 13.9537 23.9847C13.8622 23.9541 13.7249 23.8966 13.5385 23.8029C13.1678 23.6164 12.6789 23.3251 12.1001 22.9399C10.9469 22.1721 9.50479 21.0766 8.05302 19.8249C6.60072 18.5727 5.15841 17.1811 3.99518 15.8245C2.81343 14.4462 1.99341 13.1878 1.6818 12.1986L1.68182 12.1986L1.67973 12.1921C1.2484 10.8547 1 9.41336 1 7.85054C1 4.05562 4.04589 1 7.784 1C9.98689 1 11.9637 2.07418 13.1984 3.72964ZM13.9805 24.0038C13.9775 24.0045 13.9761 24.0047 13.9761 24.0047C13.9761 24.0046 13.9776 24.0043 13.9805 24.0038ZM14.0195 24.0038C14.0224 24.0043 14.0239 24.0046 14.0239 24.0047C14.024 24.0047 14.0225 24.0045 14.0195 24.0038Z" stroke="white" stroke-width="2"/>
</svg>
