<svg width="24" height="24" viewBox="0 0 24 24" fill="none" xmlns="http://www.w3.org/2000/svg">
<rect width="24" height="24" rx="12" fill="#ACACAC"/>
<path d="M18.25 8.19807C17.799 8.39836 17.3221 8.53076 16.834 8.59116C17.3489 8.27627 17.7348 7.78089 17.92 7.19691C17.4361 7.49177 16.9065 7.69952 16.354 7.81112C15.9847 7.40118 15.493 7.12831 14.9559 7.03529C14.4188 6.94227 13.8667 7.03437 13.3863 7.29715C12.9058 7.55992 12.5242 7.97851 12.3011 8.48726C12.0781 8.99601 12.0264 9.56614 12.154 10.1082C11.1757 10.0576 10.2187 9.79681 9.34519 9.34286C8.47172 8.88891 7.70131 8.25193 7.084 7.47331C6.86748 7.86036 6.75371 8.29869 6.754 8.74471C6.75323 9.15892 6.85253 9.56689 7.04305 9.93231C7.23358 10.2977 7.50941 10.6093 7.846 10.8391C7.45479 10.8282 7.07193 10.7208 6.73 10.5259V10.5566C6.73293 11.137 6.9316 11.6985 7.29239 12.1462C7.65318 12.5938 8.15395 12.9002 8.71 13.0134C8.49595 13.0801 8.27373 13.1153 8.05 13.1178C7.89513 13.116 7.74065 13.1016 7.588 13.0749C7.74635 13.5741 8.05277 14.0104 8.46464 14.323C8.87652 14.6357 9.37335 14.8091 9.886 14.8192C9.02032 15.5165 7.95153 15.897 6.85 15.9002C6.64944 15.9009 6.44904 15.8886 6.25 15.8633C7.37466 16.6067 8.68529 17.0013 10.024 16.9996C10.9478 17.0094 11.8643 16.8307 12.7199 16.4739C13.5755 16.1171 14.353 15.5893 15.0071 14.9215C15.6612 14.2536 16.1788 13.459 16.5295 12.584C16.8803 11.7091 17.0572 10.7714 17.05 9.82571C17.05 9.72129 17.05 9.61074 17.05 9.50018C17.5208 9.14075 17.9269 8.70013 18.25 8.19807V8.19807Z" fill="white"/>
</svg>
