<svg width="325" height="153" viewBox="0 0 325 153" fill="none" xmlns="http://www.w3.org/2000/svg">
<rect x="93" y="12.0002" width="154.402" height="92.0472" rx="5.93853" fill="#F5F8FC"/>
<path fill-rule="evenodd" clip-rule="evenodd" d="M86.1132 0C85.4983 0 84.9998 0.498519 84.9998 1.11347V10.7636C84.9998 11.3785 85.4983 11.8771 86.1132 11.8771C86.7282 11.8771 87.2267 11.3785 87.2267 10.7636V2.22695H96.5057C97.1206 2.22695 97.6191 1.72843 97.6191 1.11347C97.6191 0.498519 97.1206 0 96.5057 0H86.1132ZM253.877 0C254.492 0 254.99 0.498519 254.99 1.11347V10.7636C254.99 11.3785 254.492 11.8771 253.877 11.8771C253.262 11.8771 252.763 11.3785 252.763 10.7636V2.22695H243.484C242.87 2.22695 242.371 1.72843 242.371 1.11347C242.371 0.498519 242.87 0 243.484 0H253.877ZM254.99 114.688C254.99 115.303 254.492 115.802 253.877 115.802H243.484C242.87 115.802 242.371 115.303 242.371 114.688C242.371 114.073 242.87 113.575 243.484 113.575H252.763V105.038C252.763 104.423 253.262 103.925 253.877 103.925C254.492 103.925 254.99 104.423 254.99 105.038V114.688ZM86.1132 115.802C85.4983 115.802 84.9998 115.303 84.9998 114.688V105.038C84.9998 104.423 85.4983 103.925 86.1132 103.925C86.7282 103.925 87.2267 104.423 87.2267 105.038V113.575H96.5057C97.1206 113.575 97.6191 114.073 97.6191 114.688C97.6191 115.303 97.1206 115.802 96.5057 115.802H86.1132Z" fill="#7F7F7F"/>
<path d="M194.791 72.0047H231.755C235.764 71.2624 233.982 65.1383 232.683 64.2104C231.384 63.2825 223.404 56.9728 220.621 56.9728C218.327 56.9728 216.915 62.5182 216.489 64.4692C216.404 64.8577 216.063 65.1383 215.666 65.1383C215.302 65.1383 214.981 64.9004 214.893 64.5478C214.745 63.9545 214.565 63.0789 214.682 62.7258C214.695 62.6887 214.707 62.6499 214.719 62.6099C214.982 61.7575 214.724 60.8417 214.157 60.1532L213.315 59.13C212.869 58.5892 212.041 58.5892 211.596 59.13L210.47 60.4964C210.098 60.9493 210.026 61.5794 210.289 62.1041L210.599 62.7258L210.49 64.0407C210.447 64.5562 210.016 64.9527 209.499 64.9527C209.052 64.9527 208.66 64.6564 208.527 64.2305C207.911 62.2663 206.069 56.9728 204.104 56.9728C201.692 56.9728 197.086 59.9158 192.413 63.6537C191.067 64.7297 190.535 67.8205 191.168 70.0291C191.594 71.5163 193.244 72.0047 194.791 72.0047Z" fill="#E6E6E6"/>
<path d="M202.062 43.9824C199.649 36.0025 205.218 30.6207 208.001 30.0639C215.981 27.4659 220.359 32.1513 221.734 34.3323C227.115 42.8689 217.651 56.8605 212.455 56.2306C207.258 55.6007 203.729 49.4915 202.062 43.9824Z" fill="#E6E6E6"/>
<rect x="108.716" y="27.0949" width="28.5792" height="4.82506" rx="1.48463" fill="#E6E6E6"/>
<rect x="108.716" y="41.1989" width="18.9291" height="4.82506" rx="1.48463" fill="#E6E6E6"/>
<rect x="135.811" y="41.1989" width="35.6312" height="4.82506" rx="1.48463" fill="#E6E6E6"/>
<rect x="108.716" y="54.5602" width="53.0756" height="4.82506" rx="1.48463" fill="#E6E6E6"/>
<rect x="108.716" y="68.6642" width="53.0756" height="4.82506" rx="1.48463" fill="#E6E6E6"/>
<rect x="110.572" y="86.1086" width="123.596" height="4.82506" rx="1.48463" fill="#E6E6E6"/>
<rect x="146.945" y="36.3737" width="46.0236" height="46.0236" rx="23.0118" fill="#F94C84"/>
<path d="M179.014 61.3759H172.041V68.3485H169.004V61.3759H162.031V58.3038H169.004V51.3312H172.041V58.3038H179.014V61.3759Z" fill="white"/>
<path d="M38.1603 137.76H40.7783C41.357 137.76 41.8773 137.856 42.3393 138.047C42.806 138.234 43.177 138.528 43.4523 138.929C43.7276 139.33 43.8653 139.853 43.8653 140.497C43.8653 141.136 43.7276 141.666 43.4523 142.086C43.177 142.506 42.806 142.821 42.3393 143.031C41.8773 143.236 41.357 143.339 40.7783 143.339H39.3573V147H38.1603V137.76ZM39.3573 142.338H40.4493C40.846 142.338 41.2053 142.28 41.5273 142.163C41.854 142.046 42.113 141.855 42.3043 141.589C42.5003 141.323 42.5983 140.966 42.5983 140.518C42.5983 140.065 42.5003 139.713 42.3043 139.461C42.113 139.204 41.854 139.025 41.5273 138.922C41.2053 138.815 40.846 138.761 40.4493 138.761H39.3573V142.338ZM46.5821 147H45.3571V137.368H46.5821V147ZM49.0996 144.375C49.1042 144.72 49.1789 145.035 49.3236 145.32C49.4682 145.605 49.6829 145.831 49.9676 145.999C50.2569 146.167 50.6116 146.251 51.0316 146.251C51.3862 146.251 51.6872 146.2 51.9346 146.097C52.1866 145.99 52.3919 145.864 52.5506 145.719C52.7092 145.57 52.8236 145.437 52.8936 145.32L53.4886 146.055C53.3346 146.279 53.1456 146.475 52.9216 146.643C52.7022 146.811 52.4339 146.939 52.1166 147.028C51.7992 147.121 51.4119 147.168 50.9546 147.168C50.3386 147.168 49.8042 147.037 49.3516 146.776C48.9036 146.51 48.5582 146.144 48.3156 145.677C48.0729 145.206 47.9516 144.667 47.9516 144.06C47.9516 143.5 48.0659 142.996 48.2946 142.548C48.5232 142.095 48.8546 141.738 49.2886 141.477C49.7272 141.216 50.2546 141.085 50.8706 141.085C51.4352 141.085 51.9252 141.204 52.3406 141.442C52.7606 141.675 53.0849 142.007 53.3136 142.436C53.5469 142.865 53.6636 143.379 53.6636 143.976C53.6636 144.013 53.6612 144.081 53.6566 144.179C53.6519 144.272 53.6472 144.338 53.6426 144.375H49.0996ZM52.5016 143.458C52.4969 143.267 52.4409 143.057 52.3336 142.828C52.2309 142.599 52.0629 142.403 51.8296 142.24C51.5962 142.077 51.2812 141.995 50.8846 141.995C50.4739 141.995 50.1426 142.074 49.8906 142.233C49.6432 142.392 49.4612 142.585 49.3446 142.814C49.2279 143.038 49.1602 143.253 49.1416 143.458H52.5016ZM59.6284 147V145.88C59.5911 145.997 59.4814 146.158 59.2994 146.363C59.1221 146.568 58.8771 146.755 58.5644 146.923C58.2564 147.086 57.8924 147.168 57.4724 147.168C56.9404 147.168 56.4574 147.042 56.0234 146.79C55.5941 146.538 55.2511 146.186 54.9944 145.733C54.7424 145.276 54.6164 144.741 54.6164 144.13C54.6164 143.519 54.7424 142.987 54.9944 142.534C55.2511 142.077 55.5941 141.722 56.0234 141.47C56.4574 141.213 56.9404 141.085 57.4724 141.085C57.8878 141.085 58.2471 141.16 58.5504 141.309C58.8584 141.458 59.1034 141.631 59.2854 141.827C59.4721 142.023 59.5818 142.191 59.6144 142.331V141.253H60.8184V147H59.6284ZM55.8204 144.13C55.8204 144.545 55.9114 144.905 56.0934 145.208C56.2754 145.511 56.5111 145.747 56.8004 145.915C57.0944 146.078 57.4071 146.16 57.7384 146.16C58.0931 146.16 58.4104 146.076 58.6904 145.908C58.9704 145.74 59.1921 145.504 59.3554 145.201C59.5188 144.893 59.6004 144.536 59.6004 144.13C59.6004 143.724 59.5188 143.369 59.3554 143.066C59.1921 142.758 58.9704 142.52 58.6904 142.352C58.4104 142.179 58.0931 142.093 57.7384 142.093C57.4071 142.093 57.0944 142.177 56.8004 142.345C56.5111 142.513 56.2754 142.749 56.0934 143.052C55.9114 143.355 55.8204 143.715 55.8204 144.13ZM64.6019 141.085C64.9006 141.085 65.1783 141.115 65.4349 141.176C65.6963 141.237 65.9203 141.309 66.1069 141.393C66.2983 141.477 66.4336 141.552 66.5129 141.617L66.0299 142.387C65.9366 142.303 65.7686 142.21 65.5259 142.107C65.2833 142 65.0126 141.946 64.7139 141.946C64.3873 141.946 64.1096 142.011 63.8809 142.142C63.6523 142.268 63.5379 142.452 63.5379 142.695C63.5379 142.938 63.6546 143.131 63.8879 143.276C64.1259 143.416 64.4433 143.533 64.8399 143.626C65.1573 143.701 65.4536 143.801 65.7289 143.927C66.0089 144.053 66.2353 144.228 66.4079 144.452C66.5806 144.671 66.6669 144.965 66.6669 145.334C66.6669 145.67 66.5969 145.957 66.4569 146.195C66.3169 146.428 66.1279 146.617 65.8899 146.762C65.6519 146.902 65.3859 147.005 65.0919 147.07C64.7979 147.135 64.4993 147.168 64.1959 147.168C63.8413 147.168 63.5216 147.131 63.2369 147.056C62.9523 146.986 62.7119 146.902 62.5159 146.804C62.3246 146.701 62.1846 146.613 62.0959 146.538L62.5789 145.67C62.7003 145.787 62.8986 145.91 63.1739 146.041C63.4539 146.172 63.7713 146.237 64.1259 146.237C64.5179 146.237 64.8353 146.155 65.0779 145.992C65.3206 145.824 65.4419 145.607 65.4419 145.341C65.4419 145.14 65.3836 144.979 65.2669 144.858C65.1503 144.737 64.9939 144.639 64.7979 144.564C64.6019 144.489 64.3873 144.424 64.1539 144.368C63.9299 144.317 63.7106 144.249 63.4959 144.165C63.2859 144.081 63.0923 143.974 62.9149 143.843C62.7423 143.708 62.6046 143.544 62.5019 143.353C62.3993 143.157 62.3479 142.928 62.3479 142.667C62.3479 142.336 62.4529 142.053 62.6629 141.82C62.8729 141.582 63.1483 141.4 63.4889 141.274C63.8296 141.148 64.2006 141.085 64.6019 141.085ZM68.8418 144.375C68.8464 144.72 68.9211 145.035 69.0658 145.32C69.2104 145.605 69.4251 145.831 69.7098 145.999C69.9991 146.167 70.3538 146.251 70.7738 146.251C71.1284 146.251 71.4294 146.2 71.6768 146.097C71.9288 145.99 72.1341 145.864 72.2928 145.719C72.4514 145.57 72.5658 145.437 72.6358 145.32L73.2308 146.055C73.0768 146.279 72.8878 146.475 72.6638 146.643C72.4444 146.811 72.1761 146.939 71.8588 147.028C71.5414 147.121 71.1541 147.168 70.6968 147.168C70.0808 147.168 69.5464 147.037 69.0938 146.776C68.6458 146.51 68.3004 146.144 68.0578 145.677C67.8151 145.206 67.6938 144.667 67.6938 144.06C67.6938 143.5 67.8081 142.996 68.0368 142.548C68.2654 142.095 68.5968 141.738 69.0308 141.477C69.4694 141.216 69.9968 141.085 70.6128 141.085C71.1774 141.085 71.6674 141.204 72.0828 141.442C72.5028 141.675 72.8271 142.007 73.0558 142.436C73.2891 142.865 73.4058 143.379 73.4058 143.976C73.4058 144.013 73.4034 144.081 73.3988 144.179C73.3941 144.272 73.3894 144.338 73.3848 144.375H68.8418ZM72.2438 143.458C72.2391 143.267 72.1831 143.057 72.0758 142.828C71.9731 142.599 71.8051 142.403 71.5718 142.24C71.3384 142.077 71.0234 141.995 70.6268 141.995C70.2161 141.995 69.8848 142.074 69.6328 142.233C69.3854 142.392 69.2034 142.585 69.0868 142.814C68.9701 143.038 68.9024 143.253 68.8838 143.458H72.2438ZM79.378 144.151C79.378 144.753 79.5063 145.234 79.763 145.593C80.0243 145.948 80.4233 146.125 80.96 146.125C81.5013 146.125 81.9003 145.948 82.157 145.593C82.4136 145.234 82.542 144.753 82.542 144.151V141.253H83.746V144.319C83.746 144.879 83.6363 145.374 83.417 145.803C83.2023 146.232 82.8873 146.568 82.472 146.811C82.0613 147.049 81.5573 147.168 80.96 147.168C80.3673 147.168 79.8633 147.049 79.448 146.811C79.0373 146.568 78.7223 146.232 78.503 145.803C78.2883 145.374 78.181 144.879 78.181 144.319V141.253H79.378V144.151ZM86.633 149.912H85.422V141.253H86.654V142.331C86.696 142.186 86.8127 142.016 87.004 141.82C87.1953 141.624 87.452 141.454 87.774 141.309C88.1007 141.16 88.474 141.085 88.894 141.085C89.426 141.085 89.8973 141.213 90.308 141.47C90.7233 141.722 91.0477 142.077 91.281 142.534C91.519 142.987 91.638 143.519 91.638 144.13C91.638 144.741 91.5167 145.276 91.274 145.733C91.0313 146.186 90.7 146.538 90.28 146.79C89.8647 147.042 89.3887 147.168 88.852 147.168C88.418 147.168 88.0377 147.086 87.711 146.923C87.389 146.76 87.1347 146.575 86.948 146.37C86.766 146.165 86.661 146.001 86.633 145.88V149.912ZM90.434 144.13C90.434 143.715 90.3477 143.355 90.175 143.052C90.007 142.749 89.783 142.513 89.503 142.345C89.223 142.177 88.9197 142.093 88.593 142.093C88.2337 142.093 87.907 142.179 87.613 142.352C87.319 142.52 87.0857 142.758 86.913 143.066C86.7403 143.369 86.654 143.724 86.654 144.13C86.654 144.536 86.7403 144.893 86.913 145.201C87.0857 145.504 87.319 145.74 87.613 145.908C87.907 146.076 88.2337 146.16 88.593 146.16C88.9197 146.16 89.223 146.078 89.503 145.915C89.783 145.747 90.007 145.511 90.175 145.208C90.3477 144.905 90.434 144.545 90.434 144.13ZM94.1739 147H92.9489V137.368H94.1739V147ZM98.5884 147.168C97.9957 147.168 97.4684 147.035 97.0064 146.769C96.549 146.503 96.1897 146.144 95.9284 145.691C95.667 145.234 95.5364 144.718 95.5364 144.144C95.5364 143.57 95.667 143.052 95.9284 142.59C96.1897 142.128 96.549 141.762 97.0064 141.491C97.4684 141.22 97.9957 141.085 98.5884 141.085C99.1764 141.085 99.6967 141.22 100.149 141.491C100.607 141.762 100.964 142.128 101.22 142.59C101.477 143.052 101.605 143.57 101.605 144.144C101.605 144.718 101.477 145.234 101.22 145.691C100.964 146.144 100.607 146.503 100.149 146.769C99.6967 147.035 99.1764 147.168 98.5884 147.168ZM98.5884 146.125C98.9617 146.125 99.286 146.039 99.5614 145.866C99.8414 145.693 100.058 145.458 100.212 145.159C100.366 144.856 100.443 144.515 100.443 144.137C100.443 143.759 100.366 143.418 100.212 143.115C100.058 142.812 99.8414 142.571 99.5614 142.394C99.286 142.217 98.9617 142.128 98.5884 142.128C98.2104 142.128 97.8814 142.217 97.6014 142.394C97.3214 142.571 97.102 142.812 96.9434 143.115C96.7894 143.418 96.7124 143.759 96.7124 144.137C96.7124 144.515 96.7894 144.856 96.9434 145.159C97.102 145.458 97.3214 145.693 97.6014 145.866C97.8814 146.039 98.2104 146.125 98.5884 146.125ZM107.576 147V145.88C107.538 145.997 107.429 146.158 107.247 146.363C107.069 146.568 106.824 146.755 106.512 146.923C106.204 147.086 105.84 147.168 105.42 147.168C104.888 147.168 104.405 147.042 103.971 146.79C103.541 146.538 103.198 146.186 102.942 145.733C102.69 145.276 102.564 144.741 102.564 144.13C102.564 143.519 102.69 142.987 102.942 142.534C103.198 142.077 103.541 141.722 103.971 141.47C104.405 141.213 104.888 141.085 105.42 141.085C105.835 141.085 106.194 141.16 106.498 141.309C106.806 141.458 107.051 141.631 107.233 141.827C107.419 142.023 107.529 142.191 107.562 142.331V141.253H108.766V147H107.576ZM103.768 144.13C103.768 144.545 103.859 144.905 104.041 145.208C104.223 145.511 104.458 145.747 104.748 145.915C105.042 146.078 105.354 146.16 105.686 146.16C106.04 146.16 106.358 146.076 106.638 145.908C106.918 145.74 107.139 145.504 107.303 145.201C107.466 144.893 107.548 144.536 107.548 144.13C107.548 143.724 107.466 143.369 107.303 143.066C107.139 142.758 106.918 142.52 106.638 142.352C106.358 142.179 106.04 142.093 105.686 142.093C105.354 142.093 105.042 142.177 104.748 142.345C104.458 142.513 104.223 142.749 104.041 143.052C103.859 143.355 103.768 143.715 103.768 144.13ZM112.927 147.168C112.4 147.168 111.926 147.042 111.506 146.79C111.091 146.538 110.762 146.186 110.519 145.733C110.281 145.276 110.162 144.741 110.162 144.13C110.162 143.519 110.281 142.987 110.519 142.534C110.762 142.077 111.091 141.722 111.506 141.47C111.926 141.213 112.4 141.085 112.927 141.085C113.352 141.085 113.725 141.16 114.047 141.309C114.369 141.454 114.626 141.624 114.817 141.82C115.009 142.016 115.118 142.186 115.146 142.331V137.368H116.371V147H115.167V145.88C115.116 146.039 114.988 146.218 114.782 146.419C114.582 146.62 114.323 146.795 114.005 146.944C113.688 147.093 113.329 147.168 112.927 147.168ZM113.207 146.16C113.562 146.16 113.886 146.076 114.18 145.908C114.474 145.74 114.708 145.504 114.88 145.201C115.058 144.893 115.146 144.536 115.146 144.13C115.146 143.724 115.058 143.369 114.88 143.066C114.708 142.758 114.474 142.52 114.18 142.352C113.886 142.179 113.562 142.093 113.207 142.093C112.881 142.093 112.577 142.177 112.297 142.345C112.017 142.513 111.791 142.749 111.618 143.052C111.45 143.355 111.366 143.715 111.366 144.13C111.366 144.545 111.45 144.905 111.618 145.208C111.791 145.511 112.017 145.747 112.297 145.915C112.577 146.078 112.881 146.16 113.207 146.16ZM120.731 141.253H121.858V138.894H123.069V141.253H124.546V142.296H123.069V145.138C123.069 145.474 123.128 145.721 123.244 145.88C123.366 146.039 123.527 146.118 123.727 146.118C123.905 146.118 124.042 146.085 124.14 146.02C124.238 145.955 124.297 145.91 124.315 145.887L124.798 146.783C124.77 146.806 124.696 146.851 124.574 146.916C124.453 146.981 124.297 147.04 124.105 147.091C123.914 147.142 123.69 147.168 123.433 147.168C122.985 147.168 122.61 147.033 122.306 146.762C122.008 146.487 121.858 146.053 121.858 145.46V142.296H120.731V141.253ZM129.111 141.085C129.489 141.085 129.855 141.164 130.21 141.323C130.569 141.482 130.863 141.734 131.092 142.079C131.325 142.42 131.442 142.865 131.442 143.416V147H130.21V143.654C130.21 143.085 130.079 142.672 129.818 142.415C129.561 142.154 129.223 142.023 128.803 142.023C128.523 142.023 128.255 142.102 127.998 142.261C127.741 142.415 127.529 142.63 127.361 142.905C127.198 143.176 127.116 143.484 127.116 143.829V147H125.884V137.368H127.116V142.275C127.158 142.116 127.27 141.944 127.452 141.757C127.639 141.57 127.877 141.412 128.166 141.281C128.455 141.15 128.77 141.085 129.111 141.085ZM133.852 144.375C133.856 144.72 133.931 145.035 134.076 145.32C134.22 145.605 134.435 145.831 134.72 145.999C135.009 146.167 135.364 146.251 135.784 146.251C136.138 146.251 136.439 146.2 136.687 146.097C136.939 145.99 137.144 145.864 137.303 145.719C137.461 145.57 137.576 145.437 137.646 145.32L138.241 146.055C138.087 146.279 137.898 146.475 137.674 146.643C137.454 146.811 137.186 146.939 136.869 147.028C136.551 147.121 136.164 147.168 135.707 147.168C135.091 147.168 134.556 147.037 134.104 146.776C133.656 146.51 133.31 146.144 133.068 145.677C132.825 145.206 132.704 144.667 132.704 144.06C132.704 143.5 132.818 142.996 133.047 142.548C133.275 142.095 133.607 141.738 134.041 141.477C134.479 141.216 135.007 141.085 135.623 141.085C136.187 141.085 136.677 141.204 137.093 141.442C137.513 141.675 137.837 142.007 138.066 142.436C138.299 142.865 138.416 143.379 138.416 143.976C138.416 144.013 138.413 144.081 138.409 144.179C138.404 144.272 138.399 144.338 138.395 144.375H133.852ZM137.254 143.458C137.249 143.267 137.193 143.057 137.086 142.828C136.983 142.599 136.815 142.403 136.582 142.24C136.348 142.077 136.033 141.995 135.637 141.995C135.226 141.995 134.895 142.074 134.643 142.233C134.395 142.392 134.213 142.585 134.097 142.814C133.98 143.038 133.912 143.253 133.894 143.458H137.254ZM142.708 141.253H143.884V139.622C143.884 139.039 143.984 138.57 144.185 138.215C144.39 137.86 144.649 137.604 144.962 137.445C145.279 137.282 145.603 137.2 145.935 137.2C146.336 137.2 146.644 137.256 146.859 137.368C147.078 137.48 147.209 137.555 147.251 137.592L146.761 138.523C146.737 138.495 146.665 138.444 146.544 138.369C146.422 138.294 146.257 138.257 146.047 138.257C145.893 138.257 145.743 138.294 145.599 138.369C145.454 138.444 145.333 138.588 145.235 138.803C145.137 139.018 145.088 139.337 145.088 139.762V141.253H146.726V142.296H145.088V147H143.884V142.296H142.708V141.253ZM149.024 147H147.813V141.253H149.024V142.247H148.989C149.012 142.126 149.098 141.974 149.248 141.792C149.397 141.61 149.602 141.447 149.864 141.302C150.125 141.157 150.438 141.085 150.802 141.085C151.068 141.085 151.301 141.122 151.502 141.197C151.707 141.267 151.852 141.337 151.936 141.407L151.439 142.415C151.373 142.35 151.259 142.284 151.096 142.219C150.932 142.149 150.729 142.114 150.487 142.114C150.179 142.114 149.915 142.21 149.696 142.401C149.476 142.592 149.308 142.823 149.192 143.094C149.08 143.36 149.024 143.607 149.024 143.836V147ZM155.245 147.168C154.652 147.168 154.125 147.035 153.663 146.769C153.205 146.503 152.846 146.144 152.585 145.691C152.323 145.234 152.193 144.718 152.193 144.144C152.193 143.57 152.323 143.052 152.585 142.59C152.846 142.128 153.205 141.762 153.663 141.491C154.125 141.22 154.652 141.085 155.245 141.085C155.833 141.085 156.353 141.22 156.806 141.491C157.263 141.762 157.62 142.128 157.877 142.59C158.133 143.052 158.262 143.57 158.262 144.144C158.262 144.718 158.133 145.234 157.877 145.691C157.62 146.144 157.263 146.503 156.806 146.769C156.353 147.035 155.833 147.168 155.245 147.168ZM155.245 146.125C155.618 146.125 155.942 146.039 156.218 145.866C156.498 145.693 156.715 145.458 156.869 145.159C157.023 144.856 157.1 144.515 157.1 144.137C157.1 143.759 157.023 143.418 156.869 143.115C156.715 142.812 156.498 142.571 156.218 142.394C155.942 142.217 155.618 142.128 155.245 142.128C154.867 142.128 154.538 142.217 154.258 142.394C153.978 142.571 153.758 142.812 153.6 143.115C153.446 143.418 153.369 143.759 153.369 144.137C153.369 144.515 153.446 144.856 153.6 145.159C153.758 145.458 153.978 145.693 154.258 145.866C154.538 146.039 154.867 146.125 155.245 146.125ZM162.825 141.085C163.203 141.085 163.569 141.164 163.924 141.323C164.283 141.482 164.577 141.734 164.806 142.079C165.039 142.42 165.156 142.865 165.156 143.416V147H163.924V143.654C163.924 143.085 163.791 142.672 163.525 142.415C163.259 142.154 162.916 142.023 162.496 142.023C162.221 142.023 161.955 142.102 161.698 142.261C161.446 142.415 161.238 142.63 161.075 142.905C160.912 143.176 160.83 143.484 160.83 143.829V147H159.612V141.253H160.83V142.275C160.872 142.116 160.986 141.944 161.173 141.757C161.36 141.57 161.598 141.412 161.887 141.281C162.176 141.15 162.489 141.085 162.825 141.085ZM166.259 141.253H167.386V138.894H168.597V141.253H170.074V142.296H168.597V145.138C168.597 145.474 168.655 145.721 168.772 145.88C168.893 146.039 169.054 146.118 169.255 146.118C169.432 146.118 169.57 146.085 169.668 146.02C169.766 145.955 169.824 145.91 169.843 145.887L170.326 146.783C170.298 146.806 170.223 146.851 170.102 146.916C169.98 146.981 169.824 147.04 169.633 147.091C169.441 147.142 169.217 147.168 168.961 147.168C168.513 147.168 168.137 147.033 167.834 146.762C167.535 146.487 167.386 146.053 167.386 145.46V142.296H166.259V141.253ZM177.026 141.085C177.324 141.085 177.602 141.115 177.859 141.176C178.12 141.237 178.344 141.309 178.531 141.393C178.722 141.477 178.857 141.552 178.937 141.617L178.454 142.387C178.36 142.303 178.192 142.21 177.95 142.107C177.707 142 177.436 141.946 177.138 141.946C176.811 141.946 176.533 142.011 176.305 142.142C176.076 142.268 175.962 142.452 175.962 142.695C175.962 142.938 176.078 143.131 176.312 143.276C176.55 143.416 176.867 143.533 177.264 143.626C177.581 143.701 177.877 143.801 178.153 143.927C178.433 144.053 178.659 144.228 178.832 144.452C179.004 144.671 179.091 144.965 179.091 145.334C179.091 145.67 179.021 145.957 178.881 146.195C178.741 146.428 178.552 146.617 178.314 146.762C178.076 146.902 177.81 147.005 177.516 147.07C177.222 147.135 176.923 147.168 176.62 147.168C176.265 147.168 175.945 147.131 175.661 147.056C175.376 146.986 175.136 146.902 174.94 146.804C174.748 146.701 174.608 146.613 174.52 146.538L175.003 145.67C175.124 145.787 175.322 145.91 175.598 146.041C175.878 146.172 176.195 146.237 176.55 146.237C176.942 146.237 177.259 146.155 177.502 145.992C177.744 145.824 177.866 145.607 177.866 145.341C177.866 145.14 177.807 144.979 177.691 144.858C177.574 144.737 177.418 144.639 177.222 144.564C177.026 144.489 176.811 144.424 176.578 144.368C176.354 144.317 176.134 144.249 175.92 144.165C175.71 144.081 175.516 143.974 175.339 143.843C175.166 143.708 175.028 143.544 174.926 143.353C174.823 143.157 174.772 142.928 174.772 142.667C174.772 142.336 174.877 142.053 175.087 141.82C175.297 141.582 175.572 141.4 175.913 141.274C176.253 141.148 176.624 141.085 177.026 141.085ZM180.636 147V141.253H181.854V147H180.636ZM181.259 139.286C181.039 139.286 180.85 139.209 180.692 139.055C180.538 138.896 180.461 138.707 180.461 138.488C180.461 138.269 180.538 138.08 180.692 137.921C180.85 137.762 181.039 137.683 181.259 137.683C181.403 137.683 181.536 137.72 181.658 137.795C181.784 137.87 181.884 137.968 181.959 138.089C182.033 138.206 182.071 138.339 182.071 138.488C182.071 138.707 181.991 138.896 181.833 139.055C181.674 139.209 181.483 139.286 181.259 139.286ZM186.249 147.168C185.722 147.168 185.248 147.042 184.828 146.79C184.413 146.538 184.084 146.186 183.841 145.733C183.603 145.276 183.484 144.741 183.484 144.13C183.484 143.519 183.603 142.987 183.841 142.534C184.084 142.077 184.413 141.722 184.828 141.47C185.248 141.213 185.722 141.085 186.249 141.085C186.674 141.085 187.047 141.16 187.369 141.309C187.691 141.454 187.948 141.624 188.139 141.82C188.331 142.016 188.44 142.186 188.468 142.331V137.368H189.693V147H188.489V145.88C188.438 146.039 188.31 146.218 188.104 146.419C187.904 146.62 187.645 146.795 187.327 146.944C187.01 147.093 186.651 147.168 186.249 147.168ZM186.529 146.16C186.884 146.16 187.208 146.076 187.502 145.908C187.796 145.74 188.03 145.504 188.202 145.201C188.38 144.893 188.468 144.536 188.468 144.13C188.468 143.724 188.38 143.369 188.202 143.066C188.03 142.758 187.796 142.52 187.502 142.352C187.208 142.179 186.884 142.093 186.529 142.093C186.203 142.093 185.899 142.177 185.619 142.345C185.339 142.513 185.113 142.749 184.94 143.052C184.772 143.355 184.688 143.715 184.688 144.13C184.688 144.545 184.772 144.905 184.94 145.208C185.113 145.511 185.339 145.747 185.619 145.915C185.899 146.078 186.203 146.16 186.529 146.16ZM191.82 144.375C191.825 144.72 191.9 145.035 192.044 145.32C192.189 145.605 192.404 145.831 192.688 145.999C192.978 146.167 193.332 146.251 193.752 146.251C194.107 146.251 194.408 146.2 194.655 146.097C194.907 145.99 195.113 145.864 195.271 145.719C195.43 145.57 195.544 145.437 195.614 145.32L196.209 146.055C196.055 146.279 195.866 146.475 195.642 146.643C195.423 146.811 195.155 146.939 194.837 147.028C194.52 147.121 194.133 147.168 193.675 147.168C193.059 147.168 192.525 147.037 192.072 146.776C191.624 146.51 191.279 146.144 191.036 145.677C190.794 145.206 190.672 144.667 190.672 144.06C190.672 143.5 190.787 142.996 191.015 142.548C191.244 142.095 191.575 141.738 192.009 141.477C192.448 141.216 192.975 141.085 193.591 141.085C194.156 141.085 194.646 141.204 195.061 141.442C195.481 141.675 195.806 142.007 196.034 142.436C196.268 142.865 196.384 143.379 196.384 143.976C196.384 144.013 196.382 144.081 196.377 144.179C196.373 144.272 196.368 144.338 196.363 144.375H191.82ZM195.222 143.458C195.218 143.267 195.162 143.057 195.054 142.828C194.952 142.599 194.784 142.403 194.55 142.24C194.317 142.077 194.002 141.995 193.605 141.995C193.195 141.995 192.863 142.074 192.611 142.233C192.364 142.392 192.182 142.585 192.065 142.814C191.949 143.038 191.881 143.253 191.862 143.458H195.222ZM203.875 147.168C203.283 147.168 202.755 147.035 202.293 146.769C201.836 146.503 201.477 146.144 201.215 145.691C200.954 145.234 200.823 144.718 200.823 144.144C200.823 143.57 200.954 143.052 201.215 142.59C201.477 142.128 201.836 141.762 202.293 141.491C202.755 141.22 203.283 141.085 203.875 141.085C204.463 141.085 204.984 141.22 205.436 141.491C205.894 141.762 206.251 142.128 206.507 142.59C206.764 143.052 206.892 143.57 206.892 144.144C206.892 144.718 206.764 145.234 206.507 145.691C206.251 146.144 205.894 146.503 205.436 146.769C204.984 147.035 204.463 147.168 203.875 147.168ZM203.875 146.125C204.249 146.125 204.573 146.039 204.848 145.866C205.128 145.693 205.345 145.458 205.499 145.159C205.653 144.856 205.73 144.515 205.73 144.137C205.73 143.759 205.653 143.418 205.499 143.115C205.345 142.812 205.128 142.571 204.848 142.394C204.573 142.217 204.249 142.128 203.875 142.128C203.497 142.128 203.168 142.217 202.888 142.394C202.608 142.571 202.389 142.812 202.23 143.115C202.076 143.418 201.999 143.759 201.999 144.137C201.999 144.515 202.076 144.856 202.23 145.159C202.389 145.458 202.608 145.693 202.888 145.866C203.168 146.039 203.497 146.125 203.875 146.125ZM207.649 141.253H208.825V139.622C208.825 139.039 208.925 138.57 209.126 138.215C209.331 137.86 209.59 137.604 209.903 137.445C210.22 137.282 210.545 137.2 210.876 137.2C211.277 137.2 211.585 137.256 211.8 137.368C212.019 137.48 212.15 137.555 212.192 137.592L211.702 138.523C211.679 138.495 211.606 138.444 211.485 138.369C211.364 138.294 211.198 138.257 210.988 138.257C210.834 138.257 210.685 138.294 210.54 138.369C210.395 138.444 210.274 138.588 210.176 138.803C210.078 139.018 210.029 139.337 210.029 139.762V141.253H211.667V142.296H210.029V147H208.825V142.296H207.649V141.253ZM218.642 145.887L220.581 141.253H221.799L217.921 149.912H216.689L217.991 147L215.625 141.253H216.864L218.642 145.887ZM225.381 147.168C224.789 147.168 224.261 147.035 223.799 146.769C223.342 146.503 222.983 146.144 222.721 145.691C222.46 145.234 222.329 144.718 222.329 144.144C222.329 143.57 222.46 143.052 222.721 142.59C222.983 142.128 223.342 141.762 223.799 141.491C224.261 141.22 224.789 141.085 225.381 141.085C225.969 141.085 226.49 141.22 226.942 141.491C227.4 141.762 227.757 142.128 228.013 142.59C228.27 143.052 228.398 143.57 228.398 144.144C228.398 144.718 228.27 145.234 228.013 145.691C227.757 146.144 227.4 146.503 226.942 146.769C226.49 147.035 225.969 147.168 225.381 147.168ZM225.381 146.125C225.755 146.125 226.079 146.039 226.354 145.866C226.634 145.693 226.851 145.458 227.005 145.159C227.159 144.856 227.236 144.515 227.236 144.137C227.236 143.759 227.159 143.418 227.005 143.115C226.851 142.812 226.634 142.571 226.354 142.394C226.079 142.217 225.755 142.128 225.381 142.128C225.003 142.128 224.674 142.217 224.394 142.394C224.114 142.571 223.895 142.812 223.736 143.115C223.582 143.418 223.505 143.759 223.505 144.137C223.505 144.515 223.582 144.856 223.736 145.159C223.895 145.458 224.114 145.693 224.394 145.866C224.674 146.039 225.003 146.125 225.381 146.125ZM230.89 144.151C230.89 144.753 231.018 145.234 231.275 145.593C231.536 145.948 231.935 146.125 232.472 146.125C233.013 146.125 233.412 145.948 233.669 145.593C233.925 145.234 234.054 144.753 234.054 144.151V141.253H235.258V144.319C235.258 144.879 235.148 145.374 234.929 145.803C234.714 146.232 234.399 146.568 233.984 146.811C233.573 147.049 233.069 147.168 232.472 147.168C231.879 147.168 231.375 147.049 230.96 146.811C230.549 146.568 230.234 146.232 230.015 145.803C229.8 145.374 229.693 144.879 229.693 144.319V141.253H230.89V144.151ZM238.11 147H236.899V141.253H238.11V142.247H238.075C238.098 142.126 238.184 141.974 238.334 141.792C238.483 141.61 238.688 141.447 238.95 141.302C239.211 141.157 239.524 141.085 239.888 141.085C240.154 141.085 240.387 141.122 240.588 141.197C240.793 141.267 240.938 141.337 241.022 141.407L240.525 142.415C240.459 142.35 240.345 142.284 240.182 142.219C240.018 142.149 239.815 142.114 239.573 142.114C239.265 142.114 239.001 142.21 238.782 142.401C238.562 142.592 238.394 142.823 238.278 143.094C238.166 143.36 238.11 143.607 238.11 143.836V147ZM245.434 137.76H246.638V147H245.434V137.76ZM248.568 137.76H250.745C251.73 137.76 252.54 137.958 253.174 138.355C253.814 138.747 254.287 139.291 254.595 139.986C254.903 140.681 255.057 141.477 255.057 142.373C255.057 143.274 254.903 144.072 254.595 144.767C254.287 145.462 253.816 146.008 253.181 146.405C252.547 146.802 251.735 147 250.745 147H248.568V137.76ZM249.758 138.852V145.908H250.647C251.375 145.908 251.97 145.756 252.432 145.453C252.894 145.15 253.235 144.734 253.454 144.207C253.678 143.675 253.793 143.068 253.797 142.387C253.797 141.701 253.688 141.094 253.468 140.567C253.249 140.035 252.906 139.617 252.439 139.314C251.973 139.006 251.375 138.852 250.647 138.852H249.758ZM264.554 145.985C265.128 145.985 265.625 145.906 266.045 145.747C266.47 145.588 266.771 145.434 266.948 145.285L267.473 146.314C267.263 146.501 266.897 146.69 266.374 146.881C265.856 147.072 265.233 147.168 264.505 147.168C263.824 147.168 263.191 147.047 262.608 146.804C262.025 146.561 261.514 146.223 261.075 145.789C260.641 145.355 260.3 144.849 260.053 144.27C259.81 143.691 259.689 143.066 259.689 142.394C259.689 141.722 259.81 141.094 260.053 140.511C260.296 139.928 260.634 139.419 261.068 138.985C261.507 138.546 262.018 138.206 262.601 137.963C263.189 137.716 263.824 137.592 264.505 137.592C265.233 137.592 265.856 137.688 266.374 137.879C266.897 138.07 267.263 138.259 267.473 138.446L266.948 139.475C266.771 139.321 266.47 139.167 266.045 139.013C265.625 138.854 265.128 138.775 264.554 138.775C264.031 138.775 263.553 138.864 263.119 139.041C262.685 139.218 262.307 139.47 261.985 139.797C261.668 140.119 261.42 140.499 261.243 140.938C261.07 141.377 260.984 141.855 260.984 142.373C260.984 142.896 261.07 143.379 261.243 143.822C261.42 144.261 261.668 144.643 261.985 144.97C262.307 145.292 262.685 145.542 263.119 145.719C263.553 145.896 264.031 145.985 264.554 145.985ZM273.498 147V145.88C273.46 145.997 273.351 146.158 273.169 146.363C272.991 146.568 272.746 146.755 272.434 146.923C272.126 147.086 271.762 147.168 271.342 147.168C270.81 147.168 270.327 147.042 269.893 146.79C269.463 146.538 269.12 146.186 268.864 145.733C268.612 145.276 268.486 144.741 268.486 144.13C268.486 143.519 268.612 142.987 268.864 142.534C269.12 142.077 269.463 141.722 269.893 141.47C270.327 141.213 270.81 141.085 271.342 141.085C271.757 141.085 272.116 141.16 272.42 141.309C272.728 141.458 272.973 141.631 273.155 141.827C273.341 142.023 273.451 142.191 273.484 142.331V141.253H274.688V147H273.498ZM269.69 144.13C269.69 144.545 269.781 144.905 269.963 145.208C270.145 145.511 270.38 145.747 270.67 145.915C270.964 146.078 271.276 146.16 271.608 146.16C271.962 146.16 272.28 146.076 272.56 145.908C272.84 145.74 273.061 145.504 273.225 145.201C273.388 144.893 273.47 144.536 273.47 144.13C273.47 143.724 273.388 143.369 273.225 143.066C273.061 142.758 272.84 142.52 272.56 142.352C272.28 142.179 271.962 142.093 271.608 142.093C271.276 142.093 270.964 142.177 270.67 142.345C270.38 142.513 270.145 142.749 269.963 143.052C269.781 143.355 269.69 143.715 269.69 144.13ZM277.512 147H276.301V141.253H277.512V142.247H277.477C277.5 142.126 277.587 141.974 277.736 141.792C277.885 141.61 278.091 141.447 278.352 141.302C278.613 141.157 278.926 141.085 279.29 141.085C279.556 141.085 279.789 141.122 279.99 141.197C280.195 141.267 280.34 141.337 280.424 141.407L279.927 142.415C279.862 142.35 279.747 142.284 279.584 142.219C279.421 142.149 279.218 142.114 278.975 142.114C278.667 142.114 278.403 142.21 278.184 142.401C277.965 142.592 277.797 142.823 277.68 143.094C277.568 143.36 277.512 143.607 277.512 143.836V147ZM283.607 147.168C283.08 147.168 282.606 147.042 282.186 146.79C281.771 146.538 281.442 146.186 281.199 145.733C280.961 145.276 280.842 144.741 280.842 144.13C280.842 143.519 280.961 142.987 281.199 142.534C281.442 142.077 281.771 141.722 282.186 141.47C282.606 141.213 283.08 141.085 283.607 141.085C284.032 141.085 284.405 141.16 284.727 141.309C285.049 141.454 285.306 141.624 285.497 141.82C285.688 142.016 285.798 142.186 285.826 142.331V137.368H287.051V147H285.847V145.88C285.796 146.039 285.667 146.218 285.462 146.419C285.261 146.62 285.002 146.795 284.685 146.944C284.368 147.093 284.008 147.168 283.607 147.168ZM283.887 146.16C284.242 146.16 284.566 146.076 284.86 145.908C285.154 145.74 285.387 145.504 285.56 145.201C285.737 144.893 285.826 144.536 285.826 144.13C285.826 143.724 285.737 143.369 285.56 143.066C285.387 142.758 285.154 142.52 284.86 142.352C284.566 142.179 284.242 142.093 283.887 142.093C283.56 142.093 283.257 142.177 282.977 142.345C282.697 142.513 282.471 142.749 282.298 143.052C282.13 143.355 282.046 143.715 282.046 144.13C282.046 144.545 282.13 144.905 282.298 145.208C282.471 145.511 282.697 145.747 282.977 145.915C283.257 146.078 283.56 146.16 283.887 146.16Z" fill="#4D4D4D"/>
</svg>
