<svg width="16" height="16" viewBox="0 0 16 16" fill="none" xmlns="http://www.w3.org/2000/svg">
<path d="M12.3133 11.2202L12.5733 13.3268C12.6399 13.8802 12.0466 14.2668 11.5733 13.9802L9.2666 12.6068C9.1066 12.5135 9.0666 12.3135 9.15326 12.1535C9.4866 11.5402 9.6666 10.8468 9.6666 10.1535C9.6666 7.7135 7.57326 5.72683 4.99993 5.72683C4.47326 5.72683 3.95993 5.80683 3.47993 5.96683C3.23326 6.04683 2.99326 5.82016 3.05326 5.56683C3.65993 3.14016 5.99326 1.3335 8.77993 1.3335C12.0333 1.3335 14.6666 3.7935 14.6666 6.82683C14.6666 8.62683 13.7399 10.2202 12.3133 11.2202Z" fill="#FFC1D6"/>
<path d="M8.66683 10.1532C8.66683 10.9466 8.3735 11.6799 7.88016 12.2599C7.22016 13.0599 6.1735 13.5732 5.00016 13.5732L3.26016 14.6066C2.96683 14.7866 2.5935 14.5399 2.6335 14.1999L2.80016 12.8866C1.90683 12.2666 1.3335 11.2732 1.3335 10.1532C1.3335 8.9799 1.96016 7.94656 2.92016 7.33323C3.5135 6.94656 4.22683 6.72656 5.00016 6.72656C7.02683 6.72656 8.66683 8.2599 8.66683 10.1532Z" fill="#FFC1D6"/>
</svg>
