<svg width="40" height="40" viewBox="0 0 40 40" fill="none" xmlns="http://www.w3.org/2000/svg">
<path d="M20 0L24.2446 4.15882L30 2.67949L31.5965 8.40345L37.3205 10L35.8412 15.7554L40 20L35.8412 24.2446L37.3205 30L31.5965 31.5965L30 37.3205L24.2446 35.8412L20 40L15.7554 35.8412L10 37.3205L8.40345 31.5965L2.67949 30L4.15882 24.2446L0 20L4.15882 15.7554L2.67949 10L8.40345 8.40345L10 2.67949L15.7554 4.15882L20 0Z" fill="#F94C84"/>
<path fill-rule="evenodd" clip-rule="evenodd" d="M28.8854 15.8559L18.5586 26.1827L13.457 21.0811L15.4955 19.0426L18.5586 22.1057L26.8469 13.8174L28.8854 15.8559Z" fill="white"/>
</svg>
