<svg width="36" height="37" viewBox="0 0 36 37" fill="none" xmlns="http://www.w3.org/2000/svg">
<path d="M18.1223 3.80103C14.2444 3.80103 11.0918 6.95363 11.0918 10.8315C11.0918 14.6353 14.0668 17.7139 17.9446 17.8471C18.0631 17.8323 18.1815 17.8323 18.2703 17.8471C18.2999 17.8471 18.3147 17.8471 18.3443 17.8471C18.3591 17.8471 18.3591 17.8471 18.3739 17.8471C22.1629 17.7139 25.1379 14.6353 25.1527 10.8315C25.1527 6.95363 22.0001 3.80103 18.1223 3.80103Z" fill="white"/>
<path d="M25.6409 21.7842C21.5114 19.0312 14.777 19.0312 10.6179 21.7842C8.73822 23.0423 7.70215 24.7444 7.70215 26.5649C7.70215 28.3854 8.73822 30.0728 10.6031 31.316C12.6753 32.7073 15.3986 33.403 18.122 33.403C20.8454 33.403 23.5688 32.7073 25.6409 31.316C27.5058 30.058 28.5419 28.3706 28.5419 26.5353C28.5271 24.7148 27.5058 23.0275 25.6409 21.7842Z" fill="white"/>
</svg>
